<?xml version="1.0" standalone="no"?>
<!DOCTYPE svg PUBLIC "-//W3C//DTD SVG 1.1//EN" "http://www.w3.org/Graphics/SVG/1.1/DTD/svg11.dtd" >
<svg xmlns="http://www.w3.org/2000/svg" xmlns:xlink="http://www.w3.org/1999/xlink" version="1.1">
<metadata></metadata>
<defs>
<font id="a_day_without_sunregular" horiz-adv-x="411" >
<font-face units-per-em="2048" ascent="1638" descent="-410" />
<missing-glyph horiz-adv-x="284" />
<glyph horiz-adv-x="0" />
<glyph horiz-adv-x="682" />
<glyph unicode=" "  horiz-adv-x="284" />
<glyph unicode="&#x09;" horiz-adv-x="284" />
<glyph unicode="&#xa0;" horiz-adv-x="284" />
<glyph unicode="!" horiz-adv-x="245" d="M86 96q0 4 1 6t1 7v2q2 12 27 12q20 0 26 -12v-21q0 -8 1 -13t1 -11q0 -25 -1 -43.5t-5 -40.5q-2 -2 -12 -2q-8 0 -15.5 12t-12.5 30.5t-8 38t-3 35.5zM92 1497q2 6 23 6q20 0 26 -14q4 -80 7.5 -164t3.5 -182v-49q0 -12 -1 -25t-1 -27q0 -193 -7 -354v-110v-102.5 t2 -106.5h-2q-2 0 -4 -1t-6 -1v-7h-2q-2 0 -3 1t-5 1q-12 0 -16.5 4.5t-8.5 12.5q-2 66 -2 122v113v112.5t2 107.5v28v37t1 59.5t1 92v135.5q0 86 -2 160.5t-6 150.5z" />
<glyph unicode="&#x22;" horiz-adv-x="378" d="M90 1475q6 2 12.5 3t16.5 1q20 0 23 -7.5t10 -23.5v-2q4 -10 4 -18.5v-18.5v-12q0 -96 -15 -156l-14 -2q-12 2 -21 14v4q0 10 -1 20.5t-1 22.5zM236 1475q12 4 28 4q33 0 32 -9.5t1 -23.5h2v-49q0 -47 -4 -85t-12 -71h-15q-10 2 -16 12v7q-4 31 -5 64.5t-5 74.5z" />
<glyph unicode="#" horiz-adv-x="690" d="M29 555h147v20q6 47 9 101.5t8 107.5v4q2 35 5 71t7 71v24q-25 0 -49.5 1t-42.5 1h-43q-4 6 -4 12.5t-3 12.5h148v16q4 18 6 39t4 43q4 41 9.5 82t11.5 84q4 16 5 40t3 50q4 45 9 84t15 49q20 -12 24.5 -22t4.5 -27q0 -92 -10 -168.5t-23 -154.5v-2l-14 -88v-25 q23 -2 40 -2h30h56t89 2v18q2 23 5 46.5t5 46.5q6 53 12.5 117.5t14.5 120.5t15 94t16 40q8 0 13 -6t9 -12h-2q2 -4 2 -19.5v-23.5q0 -82 -10 -155.5t-21 -145.5v-2l-16 -94v-25h38.5t35.5 2q10 0 18 1t15 1q29 0 41 -6v10q4 -10 6 -17t2 -16q-2 0 -2 -4v-8q-8 0 -25 4 q-23 6 -51 6h-86v-20q-8 -57 -13.5 -124t-11.5 -138l-8 -92v-25h42.5t35.5 2q10 0 20.5 1t16.5 1q23 0 35 -4t14 -20v-15q-16 2 -51 4t-58 2q-12 0 -29.5 1t-33.5 3v-20l-8 -66q-4 -45 -10.5 -89t-12.5 -91q-4 -23 -5 -48.5t-3 -53.5q-4 -47 -9 -92t-11 -74q-12 2 -23.5 9 t-13.5 24q10 55 17 122.5t13 139.5q4 55 9.5 108.5t15.5 104.5v26h-164q-10 -2 -24.5 -2h-28.5v-20q-2 -23 -6 -47.5t-6 -46.5q-4 -37 -8.5 -73t-10.5 -75v-2q-4 -25 -6 -52.5t-4 -61.5q-4 -45 -8 -86t-11 -68q-16 2 -26 9t-12 26q12 66 20 143.5t18 161.5q4 41 8.5 84 t8.5 84v24q-25 0 -47.5 1t-40.5 1h-39q-4 6 -5 12.5t-3 12.5zM213 555q14 0 27.5 -1t25.5 -1h25h57t88 2v20q2 16 3 34t1 40q4 72 10.5 141.5t12.5 141.5v24h-170q-8 -2 -20.5 -2h-26.5v-18q-4 -29 -7 -60.5t-8 -64.5v-2q0 -12 -2 -26.5t-2 -26.5l-14 -176v-25z" />
<glyph unicode="$" horiz-adv-x="434" d="M37 391v31q0 6 1 22.5t3 33t6 28.5t10 12q4 0 13.5 -6t9.5 -18v-33t-2 -39v-60q0 -164 39 -241.5t82 -100.5v762l-41 70q-20 33 -40 68.5t-36 75.5t-26.5 87t-10.5 105q0 61 10.5 117.5t29.5 100.5t46 71.5t57 31.5v88q0 23 3.5 46.5t13.5 23.5q8 0 17 -3t14 -11v10 q2 -23 2 -41v-39q0 -12 1 -24.5t1 -26.5v-21q86 -20 121.5 -109t35.5 -212v-10q0 -18 -22 -19h-8v2q-6 51 -13.5 101.5t-21 92.5t-35 70.5t-55.5 34.5v-145q0 -72 -1 -114t-1 -83q0 -25 -1 -51.5t-1 -60v-78.5v-105v-10l41 -70q29 -47 54 -99t40 -99q18 -78 33.5 -149.5 t15.5 -157.5q0 -61 -19.5 -110.5t-47 -85.5t-58.5 -55.5t-53 -23.5v-33q0 -4 1 -5t1 -5v-12v-40t-3 -40t-9.5 -30.5t-16.5 -12.5q-6 0 -12 4t-6 14v166q-84 33 -123 131.5t-39 288.5zM94 1171q0 -86 30 -148t62 -116l13 -16v317q0 25 -1 48.5t-1 52.5v155q-5 0 -25 -20 q-35 -35 -55.5 -111t-22.5 -153v-9zM236 676q0 -78 1 -145.5t3 -137.5q2 -78 3 -163t1 -193v-23q37 8 76 48t51 126q2 18 3 44t1 51q0 57 -12.5 116.5t-31 114.5t-41 104.5t-44.5 83.5l-10 17v-43z" />
<glyph unicode="%" horiz-adv-x="831" d="M82 1139l14 229l10 43q16 41 45 70.5t72 29.5q20 -2 39 -14t34 -41t25.5 -78t14.5 -123l8 -235q-4 -41 -11 -83t-19.5 -78t-30 -58.5t-39.5 -22.5h-8q-16 2 -39 7.5t-54 15.5q-18 18 -27.5 36.5t-15.5 52.5t-9 92t-9 157zM137 987q0 -68 29 -113v-8l88 -8v8l20 15 q10 8 15.5 18t8.5 42t3 95.5v180.5q-4 119 -30.5 178t-49.5 59q-12 0 -49 -39l-18 -45v-8l-2 2q-12 -18 -13 -51zM201 -18q10 25 14 50t8 56l43 164q12 39 23.5 80t22 77.5t17.5 66.5t9 46v-2q35 125 56.5 214t41 168t42 157t59.5 182q8 27 14 59.5t13 65.5t19.5 59.5 t30.5 40.5q16 -10 19 -20q-10 -104 -38 -203.5t-56 -204.5q-37 -135 -77 -301t-93 -352l-52 -182q-8 -29 -15 -68t-15 -78t-16.5 -72.5t-16.5 -52.5q-12 0 -32.5 13.5t-20.5 36.5zM492 338l16 229l10 43q14 41 44 71t73 30q20 -2 38.5 -14.5t34 -41t25.5 -78t15 -122.5 l6 -236q-2 -41 -10.5 -83t-20.5 -76.5t-29.5 -57t-40.5 -22.5h-8q-16 2 -38.5 6t-53.5 14q-16 18 -25.5 36.5t-15.5 52.5t-10 92.5t-10 156.5zM547 186q0 -14 4 -35.5t10 -43t14.5 -41t14.5 -29.5v-6l74 28v7q16 16 26 23t15.5 30.5t6.5 76t1 160.5q0 55 -5.5 108.5 t-15.5 94.5t-25.5 66.5t-33.5 27.5q-8 0 -19.5 -8t-29.5 -31l-19 -43v-10l-2 2q-14 -16 -14 -51z" />
<glyph unicode="&#x26;" horiz-adv-x="512" d="M25 424q0 145 28.5 235.5t79.5 151.5v23q-35 53 -60.5 128.5t-25.5 170.5q0 61 11.5 124.5t34 114.5t55 83t75.5 32q82 0 122 -88t40 -256q0 -29 -27 -29q-12 0 -20 14.5t-4 36.5v4q0 45 -4 93.5t-16.5 88.5t-33 65.5t-51.5 25.5q-72 0 -103.5 -86t-31.5 -234 q0 -25 5 -71.5t20.5 -93t40 -80t65.5 -33.5h17q10 -4 19 -9.5t9 -15.5q0 -18 -26 -18l-13 -2q-29 0 -56.5 -22.5t-51.5 -63.5q-25 -47 -39 -119t-14 -143v-39q0 -18 1 -40t1 -57q0 -82 18.5 -140t44 -96t53 -55.5t45.5 -17.5q27 0 48.5 9.5t44.5 43.5v2q35 66 40 160t5 195 v12l-13 21q-16 29 -28.5 31.5t-16.5 2.5q-12 0 -20 -8t-17 -37v-2q-4 -14 -9 -25.5t-21 -11.5q-10 0 -10 -8q0 84 24.5 111.5t54.5 27.5q25 0 38.5 -10t25.5 -33q16 -29 32.5 -46t30.5 -17q27 0 38.5 19.5t11.5 76.5v10q0 4 -1.5 6.5t-1.5 6.5q0 -2 9 -2q14 0 22 -18.5 t8 -35.5q0 -35 -6 -54t-28 -48v-4q-4 -4 -15.5 -6t-23.5 -2q-29 0 -39 10v-16q0 -33 -2 -77t-7.5 -90t-14.5 -87t-23 -66q-31 -53 -69 -65.5t-81 -12.5q-27 0 -60.5 17.5t-63 66.5t-50 138.5t-20.5 232.5z" />
<glyph unicode="'" horiz-adv-x="239" d="M94 1464l8 6h11q29 0 41 -34v-23q0 -4 1 -11t1 -11q0 -47 -3 -84t-8 -68h-12v-4h-2q-12 0 -14 3t-4 7h-2v8q-4 25 -5.5 51.5t-3.5 55.5q-2 25 -3 50.5t-5 53.5z" />
<glyph unicode="(" horiz-adv-x="245" d="M18 336q2 178 3.5 276.5t2.5 148.5t2 72.5t3 51.5v2q0 16 1 31.5t3 42.5v2q0 106 14 198t42 165t68 120t89 61q6 -2 10 -10t4 -18q0 -12 -14 -21q-63 -33 -109.5 -151.5t-52.5 -321.5l-4 -147q-4 -129 -7 -257t-3 -259q0 -143 16 -268.5t45 -248.5v-2q16 -59 42 -84.5 t48 -42.5q20 -14 36.5 -28.5t16.5 -30.5q0 -18 -26 -18q-31 0 -62.5 24.5t-59.5 66.5t-47.5 99t-27.5 121q0 8 -1 12t-3 10q-4 16 -8 45t-8 76t-7.5 116t-5.5 167z" />
<glyph unicode=")" horiz-adv-x="245" d="M-12 -383q0 16 15 30.5t38 28.5q23 16 47.5 42t40.5 85v2q31 123 46 248t15 269q0 168 -4 330.5t-8 332.5q-8 203 -52 321.5t-110 151.5q-16 8 -16 21q0 10 4 18t12 10q49 -14 89 -61t67 -120t41 -165t14 -198v-2q2 -27 3 -42.5t1 -31.5v-2q2 -29 3.5 -51.5t2.5 -72.5 t2 -148.5t3 -276.5q0 -98 -3 -167t-7.5 -116t-9.5 -75.5t-7 -45.5q-2 -6 -2 -12v-10q-8 -63 -28.5 -120.5t-48 -99.5t-59.5 -66.5t-63 -24.5q-27 0 -26 18z" />
<glyph unicode="*" horiz-adv-x="360" d="M86 1171q4 4 11 4.5t18 0.5h28v20q-14 27 -26.5 56.5t-12.5 50.5h9q12 0 18 -8.5t10 -20.5t9.5 -24.5t11.5 -20.5v35q0 31 2 60.5t4 49.5q10 0 16 -8t6 -16v-115l7 16q4 16 12 39t14 31q20 -10 21 -25l-13 -34l-16 -36t-6 -28v-4v-12l39 12q10 0 19 -8t9 -21 q0 -14 -16 -17t-29 -3l-18 8v-20q2 -12 9 -26.5t14.5 -30t12.5 -28t5 -18.5q0 -2 -7 -6t-9 -4q-4 0 -11.5 13.5t-14.5 31.5t-13 35.5t-9 25.5v-2q-2 -4 -2 -17v-24v-32q0 -10 1 -20.5t1 -18.5q0 -33 -14 -33t-16 10q0 6 1 22.5t2 38t1 44v39.5v8q-8 -12 -12.5 -33t-8.5 -40 t-9 -33.5t-13 -14.5q-4 0 -10.5 6t-6.5 16q0 20 11.5 49t17.5 39v19l-18 -16q-29 0 -29 38z" />
<glyph unicode="+" horiz-adv-x="614" d="M121 594h37h67.5t67.5 -2v14q0 82 -3 158t-7 147q6 12 20 13q14 0 20.5 -37t8.5 -87t2 -104.5v-89.5v-12q10 -4 18 -4q23 0 46.5 4t50.5 4q16 0 29.5 -2t23.5 -6v10q6 -23 6 -41q0 -8 -1 -14t-1 -10l-86 14h-82v-53l-4 -119q0 -41 -2 -80t-2 -78v-10q0 -10 1 -24.5 l3 -43.5q0 -10 -9.5 -13t-13.5 -3q-8 0 -12 10l-6 15l-4 163v15.5v24t1 22.5t1 12v29v58t2 18v2v38v17q-16 0 -35.5 -2t-38.5 -2h-26q-6 -2 -13.5 -2h-13.5q-35 0 -39 16t-6 35z" />
<glyph unicode="," horiz-adv-x="264" d="M63 -276q0 -8 9 -9q12 0 23 13.5t22.5 33t18.5 41t11 37.5v2q12 43 15.5 79t3.5 71v67q-2 20 -5 32.5t-14 12.5h-8v-4q-16 -4 -26.5 -19t-10.5 -32q0 -6 3.5 -16t7.5 -19q4 -6 6 -14t2 -29q0 -41 -2 -68.5t-8.5 -51t-15.5 -48t-23 -57.5q0 -2 -2 0t-2 0v-6q-4 -12 -5 -16 zM139 104q-4 0 0 2v-2z" />
<glyph unicode="-" horiz-adv-x="378" d="M39 598h68.5t42.5 -2q4 0 12 -1t14 -1h14.5t16.5 2l63 6q23 0 36 -2t22 -6v12l6 -18q0 -8 6 -2q0 -25 -8 -35q-18 6 -66.5 9t-107.5 3h-27q-4 0 -11 -1t-11 -1q-23 -4 -44.5 1t-25.5 36z" />
<glyph unicode="." horiz-adv-x="249" d="M94 59q2 4 5 9.5t7 9.5l11 12v-6q16 0 23 -5t12 -11q4 -10 6 -11q2 -4 2 -14v-20v-5q-6 -20 -19 -28q-47 12 -47 69z" />
<glyph unicode="/" horiz-adv-x="391" d="M-16 25q10 27 14 52t8 54l43 164q12 39 23.5 80t21.5 77.5t17.5 66.5t9.5 46v-2q35 125 56.5 215t40 168t42 157t59.5 183q8 33 15.5 68t15.5 65.5t19.5 55t27.5 36.5q16 -10 19 -22q-10 -72 -29.5 -146.5t-42.5 -144.5l-29 -90q-29 -86 -55.5 -191.5t-55 -219 t-57 -229.5t-59.5 -220q-4 -20 -10 -55t-14.5 -74t-18.5 -77t-22 -65q-12 2 -25.5 14.5t-13.5 33.5z" />
<glyph unicode="0" horiz-adv-x="483" d="M29 377v663q0 231 58 345t151 114q84 0 133 -69.5t65 -198.5v2q4 -113 6 -223.5t2 -221.5v-237q0 -117 -6 -224.5t-27.5 -191.5t-64.5 -134t-119 -50q-37 0 -71.5 22.5t-63.5 72.5t-46 132t-17 199zM72 555q0 -90 4 -188.5t21.5 -180.5t50 -136t88.5 -54q33 0 61.5 31.5 t50 89t34.5 138.5t15 179q-2 129 -2 252v215v150q0 86 -9 159.5t-34 143.5v2q-25 57 -54.5 75.5t-59.5 18.5q-31 0 -59.5 -21.5t-50.5 -68.5t-35 -123t-15 -184q-2 -70 -3 -128.5t-2 -114.5t-1 -117.5v-137.5z" />
<glyph unicode="1" horiz-adv-x="407" d="M59 1085v9q53 84 101.5 176t97.5 198l16 -4q10 -4 18.5 -9t8.5 -9l-8 -285q-4 -98 -5 -179t-1 -126v-80v-70.5t4 -68.5v-182l10 -439q0 -20 -10 -30q-23 0 -32 8t-9 12h2v98v121t-4 123v291q-2 31 -2 68.5v66.5v98q0 18 -1 34t-1 32v61q0 96 2 176t6 156v12l-166 -286 q-4 -4 -12 -4t-11.5 12t-3.5 20z" />
<glyph unicode="2" horiz-adv-x="397" d="M39 0v23q0 33 1 72.5t5 86.5q4 18 5 41t3 49q6 80 21.5 182.5t68.5 225.5l33 65q20 37 43 82t41.5 101.5t30.5 125t12 152.5l-4 74v2q-2 23 -8 48.5t-14.5 48t-18.5 38t-20 17.5q-4 0 -7.5 1t-7.5 1q-8 4 -18 4q-23 0 -47.5 -33t-40.5 -76q-18 -51 -22.5 -90t-8.5 -102 v-2q0 -12 -1 -27.5t-3 -32.5v-2v-15t-3 -24.5t-8 -26t-14 -16.5q-16 0 -16 13v20q2 92 9 174t24.5 143.5t49.5 97.5t83 36q72 0 100.5 -63.5t38.5 -186.5q0 -90 -12 -163t-35 -140.5t-54.5 -134t-70.5 -142.5q-23 -49 -39 -126t-26.5 -158.5t-15.5 -160.5t-5 -132v-35 q16 -4 27.5 -5t27.5 -1q25 0 64 5t67 9q31 6 43 6t25.5 -9t13.5 -26q0 -10 -15 -15t-36.5 -7t-44 -1t-39.5 1h-47h-27.5t-29.5 2q-10 0 -27.5 1t-30.5 1z" />
<glyph unicode="3" horiz-adv-x="452" d="M55 176q0 4 5.5 18.5t7.5 8.5q23 -66 44 -105t41.5 -59.5t40 -26.5t37.5 -6q41 0 70 43t46.5 109.5t24.5 145.5t7 151q0 61 -6 130.5t-21.5 129t-41 98.5t-64.5 39h-29q-6 0 -18.5 -4t-22.5 -8q-8 -4 -15 -5t-22 -1q-10 0 -17 9t-7 17q0 6 4 16.5t8 20.5l6 18 q39 94 76 186.5t74 190.5l8 17q2 6 9 20t13 29.5t11.5 28t3.5 12.5h-80q-16 0 -34.5 -1t-37.5 -1q-16 -2 -37.5 -2h-38.5q-16 0 -27.5 5t-11.5 15q0 8 10.5 13.5t22.5 8.5t24.5 4t18.5 1q20 0 34.5 -1t25.5 -1h75q12 0 25.5 1t30.5 1q16 0 33.5 -5t19.5 -26q-2 0 -2 -2v-2 l-35 -80q-16 -39 -33.5 -80t-31.5 -82q-23 -59 -42.5 -115.5t-43.5 -111.5l-23 -57q31 12 64.5 12t64.5 -16.5t54.5 -51.5t35.5 -92q16 -82 24.5 -150.5t8.5 -160.5q0 -74 -11.5 -153t-33 -144.5t-55 -107.5t-78.5 -42q-25 0 -47.5 3.5t-43 13.5t-38 31.5t-31.5 56.5 q-10 20 -19.5 47t-9.5 49z" />
<glyph unicode="4" horiz-adv-x="491" d="M18 322q29 104 56.5 203.5t58.5 201.5q45 152 93 316.5t89 330.5l23 90l12 9q2 0 6 1t6 1q10 0 17.5 -5.5t12.5 -21.5t7 -50t2 -91v-45q0 -37 -1 -79t-1 -91q-2 -66 -2 -140.5v-160.5q0 -37 1 -73t1 -77q2 -53 2 -130v-169v-18q12 6 33 6q12 0 26.5 -5.5t14.5 -15.5 q0 -16 -16.5 -20t-28.5 -4q-20 0 -24 2v-21q2 -25 2 -38v-25v-56q0 -16 1 -30.5t1 -28.5v-27.5t-2 -33t-6.5 -26.5t-10.5 -11q-10 4 -19.5 10t-13.5 14q2 33 3 60.5t1 56.5q0 33 -1 64.5t-3 66.5v21q-16 4 -28.5 5t-30.5 1h-63q-20 0 -44 -2t-47 -6q-18 -4 -36.5 -6.5 t-36.5 -2.5q-23 0 -36 13.5t-18 36.5zM78 354q0 -37 10 -37q61 0 88 3.5t41 5.5v2h70q16 0 32.5 -1t38.5 -5v22q-2 27 -2 51.5v46.5v97q0 29 1 56.5t1 61.5v258v107.5t2 105.5v44t1 51.5t1 50v43.5v61l-8 -16v-4q-41 -166 -84 -313.5t-84 -290.5q-27 -94 -53.5 -193.5 t-54.5 -191.5v-15z" />
<glyph unicode="5" horiz-adv-x="499" d="M49 295v22v32t2 32t5 24.5t10 10.5q12 0 18 -12.5t6 -28.5v-53q2 -63 9 -122t24.5 -103t43.5 -69.5t64 -25.5q70 0 107 58.5t53.5 148.5t18.5 201.5t2 220.5q0 203 -50.5 292t-128.5 89q-55 0 -118 -21q-2 0 -6.5 -2t-8.5 -4q-2 -2 -16 -2q-18 0 -25 29v12q0 41 2 81 t5 79q2 39 3 75.5t1 75.5v47.5t-2 47.5v2q0 -2 25.5 -3.5t57 -1.5h60.5h35h20q29 0 61.5 -3t63.5 -7h17q33 0 32 -53l-4 6h-61q-8 0 -14.5 -1t-14.5 -1q-10 -2 -30.5 -2h-32.5q-25 0 -56 6q-16 4 -36.5 6t-36.5 2q-20 0 -30.5 -11t-16 -40t-5.5 -80v-131v-37t2 -26v-17 q45 18 103 19q125 0 177.5 -82t66.5 -244q6 -74 6 -137v-23q0 -96 -8.5 -205.5t-32 -201.5t-67.5 -153.5t-116 -61.5q-45 0 -78.5 29.5t-56 78.5t-35 111.5t-14.5 126.5z" />
<glyph unicode="6" horiz-adv-x="471" d="M61 594q0 47 1 87t4.5 80t9.5 83t14 98v2q16 100 40 184t52 164l21 58q2 12 11 33.5t21.5 41t25.5 35t28 15.5q16 -6 16 -17q0 -6 -14 -28q-2 -4 -5 -7.5t-10 -21.5q-27 -59 -51 -120.5t-44.5 -127.5t-37 -138.5t-26.5 -156.5v-10q12 27 29.5 54.5t37 49t40 35.5t40.5 14 q55 0 92 -69q49 -90 58.5 -183.5t13.5 -205.5v-2q2 -25 2 -46.5v-45.5q0 -86 -10 -173.5t-34 -158t-60.5 -114.5t-92.5 -44q-61 0 -96 60.5t-52 153.5t-20.5 204.5t-3.5 216.5zM100 469q0 -63 6.5 -145t21.5 -155t42 -123t66 -50q10 0 22.5 3.5t30.5 23.5q61 66 79.5 179 t18.5 242v11v65t-3 100.5t-11 114t-21.5 105.5t-36 77.5t-55.5 30.5q-41 0 -71.5 -38t-50 -98t-29 -134t-9.5 -146v-63z" />
<glyph unicode="7" horiz-adv-x="471" d="M14 1409q0 29 36 35t73 6h17.5t27.5 -2q29 -2 60.5 -4t45.5 -2t28.5 1t31.5 3q14 2 29.5 2h27.5q37 0 55 -16q-14 -92 -29.5 -188.5t-29.5 -184.5t-27.5 -163t-21.5 -122v-24q2 0 3 1t7 1q25 0 39 -6.5t14 -40.5q0 -4 -8 -5h-8h-14.5h-21.5t-21.5 1t-12.5 4v-15l-92 -571 l-22 -139l-41 14q6 63 16 133t27 141q16 78 24.5 138.5t18.5 121.5v2q6 35 11 71t13 83v25h-51v-2q-8 -4 -21.5 -5.5t-23.5 -1.5h-12q-12 4 -21.5 12.5t-9.5 18.5v12l152 13v16q18 80 33.5 152.5t28.5 145.5t24.5 146.5t21.5 155.5v25h-12h-25.5t-43 1t-72.5 2t-115 5 q-8 0 -25 -4q-12 -2 -24.5 -4t-22.5 -2t-23.5 2t-13.5 12z" />
<glyph unicode="8" horiz-adv-x="507" d="M47 436q0 74 5 129.5t17.5 99.5t31 77.5t42.5 64.5v20l-14 37q-18 47 -32.5 91t-14.5 110v20q0 37 1 63t4 50.5t7 49t10 57.5v4q0 6 2.5 12t2.5 14q14 70 44.5 104t71.5 34q47 0 96.5 -31t67.5 -101q12 -53 16.5 -118.5t4.5 -116.5q0 -72 -17.5 -141.5t-56.5 -128.5v-29 q39 -25 64.5 -62.5t40 -88t19.5 -110t5 -124.5v-53q0 -31 -2 -75t-7 -87t-15.5 -82t-26.5 -59v-5q-27 -63 -78 -79.5t-94 -16.5q-104 0 -149.5 110.5t-45.5 360.5zM94 459q0 -12 1 -24.5t1 -22.5v-88q0 -164 48 -236t118 -72q27 0 52.5 8.5t45.5 47.5v-2q37 70 48.5 164 t11.5 202q0 190 -49 276.5t-117 86.5q-31 0 -60.5 -18.5t-58.5 -67.5q-27 -45 -34 -113t-7 -141zM131 1067q0 -27 3 -64.5t15.5 -72.5t35 -59.5t63.5 -24.5q35 0 57.5 25.5t34.5 69.5t17 102.5t5 125.5q0 84 -13 142.5t-62 97.5q-27 23 -45 23q-14 0 -31.5 -12.5 t-38.5 -33.5v-8q-29 -55 -35 -117.5t-6 -156.5v-37z" />
<glyph unicode="9" horiz-adv-x="458" d="M47 946q0 109 10.5 203t32 164.5t54 115t79.5 52.5q82 -12 123 -106.5t51 -250.5q4 -76 6.5 -144.5t2.5 -133.5v-316q0 -70 -4.5 -166t-22 -184t-52 -149.5t-94.5 -61.5q-29 0 -57.5 11.5t-52 44t-38.5 91t-15 154.5v9l8 4q16 0 22 -4.5t11 -12.5l4 6v-2q2 -45 8 -90 t18.5 -82t33 -59.5t54.5 -22.5q33 0 57.5 32t42 90.5t25.5 138t8 178.5v18q0 10 -1 23.5t-1 35.5l2 158q-29 -86 -69.5 -133t-95.5 -47q-37 10 -65 51t-46 102.5t-28.5 135t-10.5 147.5zM92 969q0 -190 34 -301t81 -111q20 0 47 21.5t49.5 69.5t36.5 126t12 189v127 q0 29 -3 51t-7 47v-4q0 4 -1 7t-1 7v4q-6 35 -15.5 74t-22.5 72.5t-32.5 56t-46.5 22.5q-18 0 -40.5 -10t-43 -55t-34 -137t-13.5 -256z" />
<glyph unicode=":" horiz-adv-x="268" d="M119 864.5v57.5v36q0 18 1 38t17 20q10 0 13.5 -8.5t7.5 -24.5v-78v-67v-39t2 -41v-6l-4 6q-14 0 -22.5 15t-11.5 39t-3 52.5zM123 105.5v84.5v89v6q23 0 29 -6.5t10 -20.5v-92q0 -49 -1 -95t-5 -57q0 2 -6 2q-14 0 -17 11v12h-8q-2 35 -2 66.5z" />
<glyph unicode=";" horiz-adv-x="284" d="M90 -246q0 4 4 17v6q0 2 1 0t1 0q12 33 20.5 56.5t13.5 47t7 51t2 68.5q0 18 -2 27.5t-4 15.5q-8 20 -8 33q0 41 29 53h8q10 0 13 -37t3 -74q0 -35 -3 -69.5t-13 -75.5q-4 -16 -11.5 -38.5t-15.5 -43t-18.5 -34t-20.5 -13.5q-6 0 -6 10zM115 918v12v24.5t2 26.5t6 21.5 t12 9.5q20 0 27 -33v-82v-63v-70q0 2 -2 4q-16 0 -25.5 13.5t-13.5 35t-5 48t-1 53.5zM154 129q-2 2 0 4v-4zM162 758v2v4v-6z" />
<glyph unicode="&#x3c;" horiz-adv-x="456" d="M47 625q8 37 32.5 67.5t47.5 59.5q14 12 27.5 25.5t35.5 31.5v2q45 39 88.5 75t90.5 77q14 -4 21 -7.5t7 -17.5q0 -2 -1 -1t-1 -3l-2 -8q-4 -6 -24.5 -21.5t-40.5 -32.5q-8 -6 -13.5 -11t-9.5 -9q-6 -6 -10 -8q-25 -10 -52.5 -34t-54 -52.5t-50 -59t-38.5 -57.5v-12 q37 -37 73 -61.5t65 -49.5q45 -35 87 -71.5t72 -75.5q6 -14 7.5 -21.5t1.5 -15.5v-6q0 -2 -1.5 -8.5t-7.5 -12.5l-125 121q-25 27 -48 43t-46 33q-39 31 -77 60.5t-54 60.5z" />
<glyph unicode="=" horiz-adv-x="520" d="M82 383q10 12 23.5 15t29.5 3h12q10 -4 20.5 -5t43.5 -1q10 0 18.5 1t12.5 1h20q25 4 54.5 5t68.5 4q29 0 33 -17v-6l6 -12l-6 -4v-13v11q-84 -8 -153.5 -9.5t-129.5 -11.5h-8q-23 0 -34 7t-11 32zM82 664q23 10 74 12t92 2h135q37 0 39 -21v-10q2 -6 6 -6l-10 -10 q0 4 -6 4q-37 -4 -89.5 -7t-111.5 -3h-27q-12 0 -30.5 -1t-34 1t-26.5 10t-11 29zM424 371l2 2z" />
<glyph unicode="&#x3e;" horiz-adv-x="512" d="M106 344v6q0 8 1.5 15.5t5.5 19.5q31 37 71.5 73t81.5 70q29 25 64 47.5t69 59.5v10q-14 27 -36.5 56.5t-48 57t-52 50t-49.5 33.5q-4 4 -10 8q-12 8 -23 18q-20 16 -39.5 31.5t-23.5 22.5l-2 6q0 4 -1 3t-1 1q0 14 7 17t21 7q45 -41 87 -75.5t85 -71.5 q23 -16 34.5 -29.5t25.5 -27.5q23 -27 46 -55.5t32 -65.5q-16 -29 -52.5 -57.5t-74.5 -57.5q-23 -16 -45.5 -32.5t-45.5 -41.5l-120 -116q-4 4 -5.5 10t-1.5 8z" />
<glyph unicode="?" horiz-adv-x="460" d="M84 1225v121q0 49 15.5 81.5t37 53t47 30t47.5 9.5q29 0 73 -9.5t65 -31.5q16 -18 24 -63.5t11.5 -98.5t3.5 -107.5v-93.5q0 -76 -13.5 -128t-36.5 -95v-2q-31 -66 -65.5 -126t-69.5 -130v-4q-6 -16 -14 -62.5t-12 -97.5l-2 -199q0 2 -13 2l-18 2l-2 18q-2 17 -4 40.5 t-4 47.5t-2 36v71v33t2 33v2q2 66 34.5 125t70.5 123.5t68.5 142.5t30.5 180v109.5t-7 108t-23.5 82t-46.5 32.5l-35 10q-47 0 -70.5 -26.5t-44.5 -108.5v-4v-36.5t-1 -54.5t-6 -49.5t-15 -21.5q-12 0 -18.5 16.5t-6.5 39.5zM145 102q2 0 9 15v6q4 18 16 18q20 0 29 -16v-8 q0 -10 1 -21.5t1 -25.5q0 -35 -6.5 -70t-22.5 -35q-10 4 -14 16.5t-4 26.5v4q-4 20 -6.5 44t-2.5 46z" />
<glyph unicode="@" horiz-adv-x="602" d="M68 532q0 98 3 197.5t3 194.5q0 57 4 137t24.5 152.5t62.5 122.5t120 50q63 0 106 -41.5t72 -108.5t44 -149.5t23.5 -164.5t9.5 -155t1 -120q2 -37 3 -78t1 -88q0 -72 -6.5 -138.5t-19.5 -119.5t-36.5 -85t-56.5 -32q-31 49 -49 123v4l-8 -22l-4 4q-12 -23 -26.5 -37 t-33.5 -14q-39 0 -60.5 42t-31.5 105.5t-12 140t-2 144.5q0 47 3 103.5t12 104.5t24.5 81t40.5 33q23 0 42 -12.5t29 -33.5l12 80q29 -29 37.5 -72.5t8.5 -95.5v-34q0 -16 -1 -35t-1 -45v-39q0 -16 1 -32.5t1 -39.5q0 -16 -1 -28.5t-1 -28.5v-58q0 -41 1 -90t6 -94t13 -74.5 t20 -29.5q14 0 24.5 32.5t17 86t9.5 121t3 139.5q0 68 -4 125t-4 133v2q-6 113 -19.5 211t-38 171.5t-63.5 115.5t-97 42q-45 0 -74.5 -34.5t-47 -93t-24.5 -131t-10 -149.5t-2 -148.5t1 -127.5v-180q0 -129 7 -242.5t27.5 -198.5t57.5 -134.5t96 -49.5q43 0 79 7.5t71 54.5 v2q4 14 18 14q4 0 10 -5t6 -11q0 -33 -14 -53.5t-34.5 -32.5t-44 -17.5t-42.5 -5.5q-20 0 -52 1t-64.5 13.5t-62.5 39t-44 75.5q-37 111 -50 271.5t-13 332.5zM246 623q0 -39 1 -109t6 -137.5t17.5 -116.5t34.5 -49q14 0 24.5 32.5t16.5 81t9 102.5t3 97l-2 195v2 q-4 72 -22.5 107.5t-42.5 35.5q-33 0 -39 -65.5t-6 -175.5z" />
<glyph unicode="A" horiz-adv-x="405" d="M4 8l2 6q29 199 48.5 394.5t35.5 420.5q2 29 7 71t9 79l9 65q10 119 25.5 222.5t35.5 212.5q4 20 18.5 21t22.5 -19v-2q23 -49 33 -118t20 -136l15 -88v-2q10 -59 15 -116.5t9 -117.5q4 -53 8.5 -105.5t12.5 -107.5v-2q6 -37 9 -69.5t7 -67.5l8 -92l58 -453l-9 -8v-8 q2 6 -10 6t-11 1t1 3v2l-8 10q-23 135 -41.5 268.5t-34.5 290.5l-4 21h-19.5t-35 1t-36 1h-18.5q-14 0 -37.5 2t-37.5 -2l-2 -25q-4 -59 -10.5 -115.5t-12.5 -113.5q-4 -23 -5 -45.5t-3 -44.5v-2q0 -10 -2 -21.5t-2 -21.5q-4 -47 -10.5 -93.5t-10.5 -95.5v-2q0 -29 -22 -35 q-10 2 -18.5 8.5t-8.5 22.5zM117 635q16 -4 37.5 -2t33.5 2q29 0 54.5 -3t50.5 3l-8 80v2q-6 78 -13.5 158.5t-15.5 158.5q-4 45 -9 99.5t-12.5 107.5t-15.5 101.5t-18 82.5q-4 -18 -8.5 -46.5t-8.5 -60.5t-6 -64.5t-4 -59.5q-14 -123 -27.5 -246t-25.5 -252z" />
<glyph unicode="B" horiz-adv-x="442" d="M59 1096v82l2 276q0 20 20.5 22.5t41.5 2.5h49q16 4 25 4q27 0 60.5 -8.5t64 -41t51 -97t20.5 -175.5q0 -119 -5 -200.5t-46 -149.5l-20 -35v-24q47 -68 64 -173.5t17 -254.5q0 -96 -10 -157t-28.5 -96.5t-45 -53t-59.5 -25.5q-10 -2 -19.5 -3t-21.5 -1t-25.5 2t-25.5 4 q-10 2 -21.5 3t-19.5 1h-18q-16 0 -26.5 4t-15 35t-5.5 97.5t-1 191.5v536q0 53 -1 107.5t-1 126.5zM100 838l2 -35v-21q10 4 21.5 4h21.5h23q31 0 53.5 1t36.5 -3v-2q49 16 70.5 102.5t21.5 207.5q0 70 -5 134t-22.5 113.5t-50 80t-86.5 32.5q-6 -2 -14 -2h-14 q-10 0 -19.5 -1t-19.5 -5h-19v-23q0 -10 1 -19t1 -20v-75q0 -59 -1 -143.5t-1 -159.5v-166zM106 355.5q0 -27.5 1.5 -44t1.5 -24.5v-15v-229l75 -10q12 -2 23.5 -3t21.5 -1q76 0 103.5 65.5t27.5 218.5v29q0 51 -3 119.5t-13 132t-33.5 107.5t-62.5 44q-10 0 -19.5 1.5 t-17.5 1.5h-29q-18 0 -37.5 -2.5t-35.5 -12.5v-18q0 -12 -1.5 -23.5t-1.5 -21.5v-242v-72.5z" />
<glyph unicode="C" d="M37 895.5v32.5q0 47 1 96t3 98q2 35 3 66t1 63q6 229 141 252h15q18 0 34.5 -3t30.5 -13q18 -16 37 -47t33 -69t23.5 -79t9.5 -78q0 -16 -3.5 -26.5t-9.5 -26.5h-6q-14 0 -16 8l-17 76q-8 39 -17 78t-22.5 70.5t-33 51t-45.5 19.5q-27 0 -63 -43t-46 -121v-2 q0 -16 -1 -31.5t-1 -31.5q-2 -29 -2 -55.5v-53.5q0 -16 -1 -32.5t-1 -34.5v-178q0 -57 -1 -114.5t-1 -115.5q0 -84 2 -166t6 -159q2 -45 4 -85t10 -83q12 -78 39 -108t56 -30t64.5 29t51.5 88q6 14 8.5 41t4.5 55v3q2 27 4 45t10 20q20 0 24.5 -20.5t4.5 -42.5 q0 -117 -46 -189t-122 -72q-37 0 -67 28t-49 78t-30.5 117.5t-11.5 147.5v110.5t-2 110.5l-4 293v2q-2 16 -2 31.5z" />
<glyph unicode="D" horiz-adv-x="450" d="M63 453q0 96 2.5 207.5t6.5 246.5v74q0 27 -1 50.5t-1 45.5v84q0 111 1 183v20q0 59 -5 104q4 4 19 4.5t38 0.5h12h19.5h36t61.5 2q0 -2 9 -3.5t15 -3.5q135 -45 138 -305q2 -78 2 -139v-111v-114q-4 -72 -4 -139.5v-127.5v-253q0 -66 -17.5 -120.5t-50.5 -99.5v-2 q-20 -35 -53 -48t-80 -13q-18 0 -21 2v2q-2 -4 -20 -4h-41t-41 -1t-20 -3q0 2 1 5t1 15v39q0 25 -1 59.5t-2 82t-2.5 112t-1.5 148.5zM111 516q0 -10 1 -18.5t1 -16.5l4 -442q12 -4 22.5 -4t50.5 2q25 0 72 8v2q45 16 76 98t31 195v315q0 76 3 152t3 151q0 188 -11.5 278.5 t-31.5 121.5q-47 63 -90 74h-17q-4 0 -6 1t-6 1q-43 0 -102 -17v-20q4 -84 5 -157t1 -161v-108q0 -43 -1 -81t-1 -77v-129q0 -29 -2 -78t-2 -90z" />
<glyph unicode="E" horiz-adv-x="389" d="M63 578v172q0 57 1.5 99t2.5 77t2 66.5t1 70.5v45q0 63 1 101v25q0 24 -1 44v2q-2 29 -3 60.5t-1 78.5v11q0 6 -2.5 14t0 16t10.5 13.5t26 5.5q10 0 20.5 -1t22.5 -1h31q45 0 76 2t47 2q10 0 25.5 -1t27.5 -3q12 -8 11 -12.5t4 -16.5q0 -10 -21 -10q-27 0 -50.5 4 t-45.5 4q-35 0 -69 -1t-70 -5v-25q0 -147 -3.5 -293.5t-3.5 -294.5l-4 -26q27 0 59.5 -2t61.5 -2h21q20 0 24 -25v-4q0 -4 -18 -6h-29q-10 2 -19.5 2h-19.5q-16 0 -37.5 -1t-38.5 -3v-19q-2 -29 -2 -57.5v-58.5v-78q0 -20 1 -41t1 -43v-25l-2 -172q0 -8 1 -25.5t1 -78.5 v-127q16 -4 41 -5t43 -1q23 0 45.5 5t49.5 5q18 0 29.5 -8t11.5 -31v-2l-41 2q-10 0 -22.5 -1t-31 -2t-44 -2t-62.5 1h-19h-8q-12 0 -20 8t-8 49q3 42 3 88q0 23 -1 47q-2 72 -2 154q0 57 -1.5 116.5t-1.5 119.5z" />
<glyph unicode="F" horiz-adv-x="358" d="M53 1468q0 8 12.5 11.5t24.5 3.5q20 0 43 -2t45 -2h22.5t36 1t38 1h30.5q8 0 19.5 1t21.5 1q14 0 25.5 -3t11.5 -14q0 -4 -6 -13t-12 -11q-29 4 -51.5 7t-45.5 3t-41 -4t-71 -4h-27.5t-28.5 2q13 -166 13 -310q-1 -15 -1 -30q-2 -156 -1 -311v-27q8 -2 15 -2h13 q29 0 55.5 3t55.5 3q14 0 15 -6t1 -14q0 -12 -5 -14.5t-21 -2.5h-84h-27.5t-17.5 -2l-2 -35q-4 -78 -4.5 -155.5t-2.5 -157.5q0 -84 2 -159.5t7 -164.5l-7 -69q-31 0 -37 35.5t-6 78.5q0 186 4.5 390t4.5 397q0 35 -1 69.5t-1 69.5v199q0 16 1 33.5t1 40.5q0 16 -3.5 42.5 t-6.5 52t-5 45t-2 23.5z" />
<glyph unicode="G" horiz-adv-x="380" d="M43 666v67l8 522v2l2 64q4 35 10.5 69.5t22.5 67.5q10 23 30.5 31t47.5 8q34 0 63 -18q47 -35 69.5 -102.5t35.5 -166.5q0 -41 -15 -69q-16 10 -21 15t-9 15v27q0 8 1 15.5t1 17.5q0 16 -4 37.5t-17 60.5l-14 33q-23 49 -40 74.5t-50 25.5q-18 0 -31.5 -17.5t-21 -42 t-11.5 -48t-6 -35.5q-4 -27 -4 -52.5v-58.5v-88q0 -25 1 -51.5t1 -52.5l-1 -24q-1 -23 -3 -64t-3 -95.5t-1 -115.5q0 -223 7 -359.5t22.5 -211t39 -99t56.5 -24.5q8 0 23.5 2t25.5 10q16 12 27.5 38.5t17.5 57.5t8 61.5t2 53.5v20t-1 25.5t-1 41v68.5q0 45 -3 88t-5 70v23 q0 31 -1 38t-17 15q-2 0 -2 1t-2 1l-60 -14l-26 -13q-27 0 -27 29q0 16 21.5 23.5t48 10.5t52 4t32.5 3q16 -29 22 -82t6 -125q0 -35 1 -67.5t1 -67.5q0 -14 1 -42t-1 -44q0 -31 -4 -68t-14 -72.5t-25.5 -66.5t-38.5 -47q-10 -6 -25.5 -9t-31.5 -3h-12q-80 16 -116 110 t-36 264v41q0 98 -3 154.5t-3 110.5z" />
<glyph unicode="H" horiz-adv-x="444" d="M74 1051q0 49 1 105t3 81v244q0 2 18 2q16 0 23 -13v-313v-118.5t-2 -123.5v-10v-41t4 -30v-17q12 0 25.5 1t27.5 1q27 2 59.5 3t57.5 1q14 0 23.5 1t23.5 1v13q4 100 5 187t1 165t-2 142.5t-4 92.5v25q0 10 4 19.5t16 9.5h13q10 -55 14 -113.5t4 -130.5v-143 q0 -45 -1 -91.5t-1 -95.5v-22v-43.5t4 -38.5v-84q0 -23 1 -45.5t1 -50.5q2 -35 2 -86.5v-110.5v-113v-105t2 -75v-10q0 -27 1 -44.5t1 -27.5v-16q-2 -20 -4 -31.5t-14 -11.5q-25 0 -31 6v379q0 98 -3 186t-7 191v32h-92q-4 0 -39 1h-10q-30 0 -58 -5q-10 -2 -12 -2t-6 -16 v-19q4 -59 6 -105t2 -112v-45q0 -35 -1 -85t-1 -124v-82t2 -94v-33.5t-2 -33.5l-6 -52q-2 -4 -9.5 -5t-11.5 -1q-16 0 -16 49q0 10 1 20.5t1 20.5q2 14 2 32v40v133.5t-2 102.5q0 41 -1 77.5t-1 81.5v50q0 78 -2 139t-6 119q-2 47 -3 103t-1 112z" />
<glyph unicode="I" horiz-adv-x="208" d="M80 1421q0 23 3 45.5t13 22.5q8 0 17.5 -3t13.5 -9l6 -355v-98t-2 -106q-2 -59 -3 -130t-1 -131q0 -80 2 -153.5t4 -147.5q2 -53 3 -115.5t1 -119.5v-12v-39t-3 -39.5t-9 -30.5t-16 -12q-6 0 -13.5 10t-7.5 45v973q0 23 -1 47t-1 51v22.5t-1 47.5t-2 89t-3 148z" />
<glyph unicode="J" horiz-adv-x="352" d="M31 135q8 16 24 17q18 0 25 -25v-2q10 -27 24.5 -54.5t34.5 -43.5v-4h17v2q47 29 58 93t11 193v185q0 41 -1 84t-3 88q-2 47 -3 94t-1 94v84t2 88q0 35 1 88t1 86q0 53 -1 104.5t-3 104.5v21q-18 6 -33.5 8t-31.5 2q-10 0 -16.5 -1t-20.5 -7h-15q-12 0 -12 12 q0 31 15.5 35t35.5 2h13q10 0 18 -1t18 -1h52q4 0 10 1t12 1q23 0 40 -5t17 -24q0 -18 -16 -20l-12 4t-12 2q-10 0 -19 -6v-19q0 -70 -1 -126t-3 -105q-2 -53 -2 -116.5v-119.5q0 -59 1 -116.5t3 -116.5t4 -117.5t2 -116.5v-286q-2 -49 -8 -89t-23 -75l-55 -54q-8 -4 -24 -4 q-41 0 -74 49.5t-49 112.5z" />
<glyph unicode="K" horiz-adv-x="477" d="M63 1546h19q18 0 22 -16q0 -29 1 -57.5t1 -63.5q0 -55 2 -119.5t1.5 -130t0.5 -128t3 -113.5v-19q63 104 124.5 242.5t118.5 269.5l33 76q12 23 28.5 38t39.5 17q12 -12 12 -22v-9q-18 -16 -40.5 -51t-45.5 -82t-44.5 -100t-41.5 -104q-23 -55 -44.5 -107.5t-47.5 -105.5 v-15q20 -115 45.5 -188.5t52.5 -143.5q20 -51 43 -112.5t39 -124.5q37 -131 63.5 -238.5t26.5 -152.5q-2 2 -18 2q-4 0 -8.5 -4t-4.5 -7v5q-23 80 -45 158.5t-43 166.5q-16 70 -39.5 140.5t-44.5 123.5q-29 74 -55.5 151t-48.5 167v10q-10 -10 -19.5 -29.5t-29.5 -62.5v-6 q0 -23 1 -46.5t1 -45.5q-2 -45 -3 -82t-1 -76v-43q0 -35 1 -62.5t1 -56.5q2 -29 2 -74v-100v-29.5t2 -35.5q2 -29 3 -69t1 -85q0 -2 -10 -8q-12 2 -23.5 4t-13.5 6q2 31 2 50.5v39.5q0 31 -1 61.5t-3 59.5q-2 27 -3 61.5t-2 86t-2 120t-1 162.5q0 31 2 76q1 15 1 29 q0 27 -3 49l-2 256q-1 26 -1 53v26q1 40 1 84v93v127t-5 114z" />
<glyph unicode="L" horiz-adv-x="374" d="M47 1466q2 16 23 17q27 0 30.5 -24.5t3.5 -59.5v-19q2 -70 3.5 -149.5t1.5 -147.5q0 -102 -4.5 -206.5t-4.5 -221.5q0 -57 3 -112.5t3 -112.5q0 -31 -1 -59.5t-1 -59.5v-225q0 -33 6.5 -42t16.5 -9q2 0 4 2t6 2h64q43 0 80.5 5t80.5 5h19q12 -10 12 -33q0 -12 -15.5 -14 t-45.5 -2h-144q-18 0 -36.5 1t-34.5 1h-54q-2 43 -3 85t-1 114v41q0 46 -2 118q-1 36 -1 68t1 61v103q0 63 1 114.5t2 102.5t2 107.5t1 127.5v140q0 41 -1 80t-3 82v12q0 25 -2 35t-4 22v2q-6 25 -6 49z" />
<glyph unicode="M" horiz-adv-x="534" d="M53 1376q0 10 1 23.5t1 27.5q0 18 -1 24.5t1 10.5q2 0 5 5.5t8 9.5q4 4 6 7t16 7h12q10 0 19.5 -12.5t17.5 -51.5l27 -133v-2q10 -31 16 -59.5t11 -50.5v-2q0 -2 1 -6.5t3 -16.5t7 -36.5t13 -67.5l62 -273v-2l2 6v2l12 72q25 98 39 176t24 133q2 6 2 23q14 106 43 172 q10 33 16.5 60.5t6.5 50.5q2 20 12 20q8 0 21.5 -3t17.5 -7l8 -277q0 -18 -1 -35.5t-1 -35.5v-72q-2 -35 -3 -72t-1 -73v-39q0 -10 1 -21.5t1 -26.5v-102q0 -29 1 -57.5t1 -63.5v-278q0 -160 6 -258q2 -12 3.5 -25.5t1.5 -21.5q0 -16 -1.5 -22.5t-1.5 -8.5q-2 -2 -7 -5 t-11 -3q-8 0 -17.5 3t-9.5 5l-12 471v401q0 20 -1 42t-1 44v72q0 18 1 38.5t1 43.5l4 231q-18 -76 -36.5 -158.5t-28.5 -148.5q-6 -23 -12.5 -60.5t-12.5 -78.5q-10 -63 -23.5 -121.5t-37.5 -99.5q-20 14 -33.5 53t-24.5 92v2q-27 98 -45 176t-35 164l-16 78q-6 33 -13 81 t-18 89v-4q4 -141 6.5 -271.5t2.5 -226.5v-434q0 -43 -1.5 -79t-3.5 -75v-16q-2 -35 -2 -69.5v-77.5l7 -129v-9q0 -2 1 -4t1 -4q0 -8 -11 -12q8 0 -8 -4q-6 0 -14 3t-10 7q-2 43 -3.5 90t-1.5 105v108t3 90q2 39 2 80v88v328v107.5t-2 97.5q-2 143 -13 282z" />
<glyph unicode="N" horiz-adv-x="522" d="M55 1477q4 18 15 14q31 0 47 -39q4 -25 15 -63.5t23.5 -76.5t26 -72t21.5 -50v-2q16 -23 26.5 -43.5t20.5 -36.5q33 -74 59.5 -136.5t55.5 -125.5l43 -92v8q-2 172 -5.5 343t-5.5 343q2 20 7.5 28.5t29.5 8.5q8 -6 8 -12q0 -29 1 -56.5t1 -58.5q2 -72 3.5 -164t1.5 -178 q0 -70 1 -135.5t1 -128.5v-226q0 -57 1 -100t2 -77t2 -61.5t3 -54.5q4 -33 6 -67.5t2 -69.5v-30.5t-2 -32.5q-4 -31 -16 -41q-33 0 -35 8l2 39q2 31 2 62.5v62.5v57.5t-2 50.5q0 10 -1 24.5t-3 33.5q-4 82 -6.5 148.5t-2.5 125.5q0 41 -22 84q-35 82 -62.5 138.5 t-52.5 109.5q-53 115 -90 208t-72 195v-6q-2 -59 -2 -120.5v-110.5v-72v-111.5t2 -109.5q2 -106 3.5 -218t1.5 -235q0 -98 2 -158.5t6 -113.5v-29q0 -25 -2 -35t-11 -22q2 2 -3 -1t-17 -3q-14 0 -14 14q0 78 -1 133.5t-1 110.5v168q0 178 -7 373q-2 78 -2 164.5v189.5v168 t-4 162z" />
<glyph unicode="O" horiz-adv-x="671" d="M29 750q6 184 27.5 332.5t62.5 258.5q43 104 114 140q25 12 53.5 17t53.5 5q39 0 73.5 -17.5t69.5 -35.5q35 -29 68 -77t45 -111q16 -76 25.5 -136.5t13.5 -107.5q4 -59 6 -126t2 -130v-75t4 -79q0 -115 -18.5 -224.5t-55.5 -209.5v-2q-29 -61 -59.5 -105t-87.5 -85 q-45 -23 -86 -23q-61 0 -111.5 41t-81.5 88q-35 61 -58 138t-36.5 162t-18.5 177t-5 185zM70 680q0 -55 6 -119.5t14 -132.5v-2q8 -88 28.5 -160.5t61.5 -142.5q23 -37 41.5 -57.5t38.5 -32.5q23 -12 42.5 -21.5t39.5 -5.5l35 4q68 23 105.5 89.5t72.5 166.5 q10 33 22.5 87.5t20.5 144.5q4 31 4 61.5v67.5v57v98q0 35 1 70v14q0 28 -3 54l-4 131l-8 59q-18 109 -53 195.5t-84 119.5q-27 20 -59 30.5t-60 10.5q-12 0 -28.5 -2t-35.5 -10q-82 -31 -119.5 -135.5t-54.5 -274.5q-6 -49 -12 -108t-8 -109q-2 -33 -1 -57.5t-3 -56.5v-33z " />
<glyph unicode="P" horiz-adv-x="421" d="M57 987q0 51 1 100.5t1 96.5v145q0 18 -1 39t-1 37v55q2 6 16.5 7t26.5 1h19q16 0 42.5 5.5t49.5 5.5q12 0 21.5 -1t19.5 -3q33 -8 60.5 -26.5t46 -55.5t28.5 -96.5t10 -149.5v-23q0 -12 -1 -42.5t-1 -112.5v-60q0 -102 -20.5 -169.5t-51 -108.5t-65.5 -57.5t-65 -16.5 q-25 0 -84 16v-288q2 -23 2 -45.5v-44.5v-95l-2 -96l-9 -8q-10 0 -21 5t-11 17l-5 289q0 29 -2 50.5t-2 43.5q0 10 1 18.5t1 18.5v92q0 84 -2 200t-2 257zM102 911q-1 -22 -1 -44q0 -33 2 -65q3 -54 6 -106l2 -67q41 -27 73 -27q55 0 87 33t49.5 84t22.5 114.5t5 122.5v17 v33.5t1 38t2 29.5l1 11v15q0 170 -24.5 253t-108.5 83q-10 0 -23.5 -2t-25.5 -2l-68 -9v-512z" />
<glyph unicode="Q" horiz-adv-x="700" d="M18 682v72q0 29 1 62.5t6 64.5l8 118q0 8 2 14.5t2 14.5q12 100 29.5 187.5t49 153t82 103t128.5 41.5h10q84 0 148.5 -52t108.5 -136t68.5 -187.5t30.5 -203.5q2 -23 2 -44.5v-43.5l-4 -238q-12 -227 -76 -409l-8 -21q-4 -6 -5 -13t-9 -18v-22q23 -35 40 -65.5t32 -65.5 v-6q-4 -4 -19 -4q0 -4 -8 -7.5t-10 -3.5t-11.5 16.5t-19.5 37t-21.5 38t-17.5 21.5v-8q-31 -47 -84 -82t-119 -35h-12q-92 0 -151.5 57.5t-94.5 142.5t-49 179t-18 168v2q-2 20 -4 31.5t-3.5 27t-2.5 41t-1 72.5zM63 739q0 -23 1.5 -56.5t1.5 -86.5v-2q8 -127 26.5 -235.5 t52 -187.5t84 -124t117.5 -45q53 0 98 24.5t88 94.5v20q-16 31 -39.5 70t-45 75t-37 64.5t-15.5 38.5v4v4v-2l2 2q2 0 6.5 15.5t6.5 15.5l2 -2v-6q45 -49 85 -115.5t68 -126.5q2 2 4 6t6 9l13 34q33 94 43 209t16 226v2q0 8 1 14t1 12v27q0 12 1 23.5t1 21.5v41 q0 98 -10.5 177t-26.5 157q-20 104 -59 173.5t-86 107.5t-97 50q-30 8 -59 8q-19 0 -37 -3l-8 -3q-37 -23 -68.5 -52t-54.5 -83q-16 -20 -28.5 -79.5t-22.5 -135.5t-17 -159.5t-11 -153.5v-10q0 -4 -1.5 -9.5t-1.5 -15.5v-33zM395 393v2v-2zM395 393l2 2zM664 -6l2 2l2 -2 q0 -6 -2 -6z" />
<glyph unicode="R" horiz-adv-x="444" d="M51 1440q2 41 23 41q20 0 36.5 -2t47.5 -2h14t43 -4q49 -12 73 -29.5t40 -50.5q14 -35 23 -70t14 -63l6 -37q5 -32 5 -69v-12v-34q0 -38 1 -94v-57.5t-2 -82.5v-12q0 -33 -6.5 -71.5t-18.5 -75.5t-29.5 -63.5t-37.5 -35.5q-12 -4 -13 -20q0 -14 11 -55 q18 -78 33.5 -135.5t35.5 -133.5v-2q18 -66 32.5 -118t31.5 -123v-9q0 -4 1 -5t1 -5v-8q-4 -6 -21 -6q-12 0 -29.5 49t-35 111.5t-30.5 123t-19 85.5l-58 231q-8 -4 -28 -4q-31 0 -95 12l6 -354q1 -37 1 -70v-32v-15q0 -39 4 -78v-14q0 -41 -7 -49q-14 0 -27.5 1t-15.5 5 v295q0 31 -1 59.5t-1 57.5v2q-3 31 -3 69q0 19 1 39q1 15 1 29q0 43 -5 80v157q0 43 1 85t1 85v166v87t-2 85zM96 1087q0 -31 1 -60.5t1 -59.5l4 -181v-133l33 -8q10 -4 33 -6h27q43 0 70.5 26.5t43 71.5t20.5 102.5t5 118.5v89.5t-1 81t-2 63.5t-3 39q-18 150 -74 176 l-43 23q-10 0 -28.5 4t-39.5 4q-33 0 -47 -15v-26q0 -25 2 -44.5t0 -41.5q0 -29 -1 -58.5t-1 -58.5v-107z" />
<glyph unicode="S" horiz-adv-x="391" d="M33 387v31q0 6 1 22.5t3 31.5t6 27.5t10 12.5t13.5 -3t11.5 -9v-49q0 -8 -1 -16.5t-1 -18.5v-58q0 -35 3 -67.5t7 -65.5q4 -29 10 -58.5t14.5 -56t19.5 -47t26 -28.5q10 -10 21 -16.5t22 -6.5q41 0 80.5 46t50.5 139q4 16 4 32.5v42.5q0 92 -30 184.5t-58 168.5 q-8 16 -13.5 31.5t-9.5 23.5v2q-20 47 -37.5 82t-33.5 63q-29 49 -54.5 100.5t-42.5 108.5q-16 70 -16 140t19.5 147.5t45.5 124.5q14 23 27.5 33t44.5 14h8q2 0 4 1t7 1q29 0 52 -9t42 -32q67 -102 67 -273v-5v-11q0 -16 -22 -16q-8 0 -8 2q-6 53 -14.5 100t-20.5 95v2 q-39 102 -98 102q-10 0 -19.5 -4t-21.5 -21q-16 -16 -27.5 -43.5t-20 -63.5t-11.5 -76t-5 -77v-8q0 -88 24.5 -148.5t55.5 -113.5l31 -59l28 -52q29 -57 58.5 -117.5t48.5 -129.5l8 -33q16 -59 27.5 -118.5t11.5 -121.5v-18v-23.5t-2 -23.5q-4 -31 -14.5 -66t-25.5 -67.5 t-34.5 -57t-38.5 -33.5q-20 -10 -47 -10q-55 0 -103 45t-67 144q-10 57 -13 114.5t-3 116.5z" />
<glyph unicode="T" horiz-adv-x="370" d="M-10 1470q2 12 39 13q16 0 33.5 -1t39.5 -1h113.5t108.5 6q16 0 37.5 -2t23.5 -12l2 -23v-8l-94 4q-23 2 -44.5 0t-43.5 2v-16q-4 -61 -4 -119v-119q0 -166 1 -334t11 -334v-450q0 -68 -25 -92h-2q-2 0 -3 1t-5 1l-10 18q3 39 3 81v21q-1 54 -1 136l-2 125q0 113 -5 237 q-4 88 -4 172q0 34 1 66v215q0 41 1 91t1 87v143v36t-4 32h-58l-71 -4h-19q-10 0 -14 5t-6 23z" />
<glyph unicode="U" horiz-adv-x="479" d="M57 610v54q0 104 2 205.5t2 217.5v54q0 45 -1 89t-1 89v78v18t1 24.5t5.5 21.5t12.5 9q10 0 20.5 -7t10.5 -11v-22q0 -92 -2.5 -182.5t-2.5 -182.5v-242q0 -69 3 -153q1 -38 1 -73q0 -42 -2 -79v-61q0 -55 3.5 -114.5t11.5 -113t22.5 -95.5t34.5 -64l17 -19 q18 -25 35.5 -31t39.5 -6h11.5t11.5 4l16 9q29 12 45.5 53t24.5 96t10 117.5t2 122.5v479q0 47 -1 93t-1 93v31q0 16 1 29.5t1 25.5v52q0 16 -1 34.5t-3 44.5v15q-2 18 -3 35.5t-1 37.5v17.5t2 17.5v2q0 4 3 19.5t5 15.5l8 2q18 0 24.5 -35.5t6.5 -76.5q0 -16 -1 -33t-1 -33 v-350q0 -61 3 -124t3 -120v-172q0 -48 1 -108v-30q0 -46 -2 -92q-3 -62 -10 -121t-24.5 -105t-47 -73.5t-74.5 -27.5q-74 0 -117 55.5t-66.5 138.5t-30 181t-6.5 186v39q0 12 -1 25.5t-1 25.5z" />
<glyph unicode="V" horiz-adv-x="448" d="M-12 1470h18q14 0 23 -16q4 -37 10 -77t16 -85q10 -49 21.5 -106.5t17.5 -128.5q4 -29 8 -62.5t11 -70.5q10 -66 22 -144t23 -174l6 -51q6 -47 11 -96t15 -92q6 -31 9.5 -57.5t7.5 -55.5t8 -59.5t12 -57.5q8 49 18.5 117t20.5 138.5t20.5 137t18.5 117.5 q10 66 19.5 134.5t19.5 133.5v3l82 552h16q25 0 25 -4q-4 -41 -8 -73.5t-8 -67.5v-2q0 -6 -2.5 -12t-2.5 -13l-36 -231l-33 -227q-18 -113 -33.5 -223.5t-32.5 -221.5q-12 -82 -24.5 -166t-24.5 -168q-6 -47 -22 -73q-25 0 -27 6l-4 -4v2l-12 88v2l-54 317q-12 72 -22 150 t-19 149q-10 66 -21 131.5t-22 131.5v2q-12 84 -24 165.5t-27 159.5q-10 61 -13 96t-5 64q0 8 -1 11t-1 11z" />
<glyph unicode="W" horiz-adv-x="780" d="M-4 1439.5v24.5q0 6 12 6q8 0 16.5 -2t10.5 -6l24 -202l17 -187q4 -47 9 -94t9 -94l10 -92q8 -78 17.5 -151t21.5 -155q6 -35 12.5 -72.5t10.5 -72.5q6 -57 13 -112.5t18 -106.5q16 100 30.5 201.5t26.5 195.5q8 66 16.5 133.5t18.5 139.5v2q6 47 10 85t10 74l21 164 q2 23 5 43.5t5 40.5l12 94l13 86q4 10 34 11q4 0 9.5 -1t7.5 -1q4 -2 7 -31t7 -53q2 -16 4 -37t0 -10l23 -166q6 -41 11 -85t9 -85l25 -193q10 -72 16 -135.5t14 -122.5q8 -80 18.5 -162t27.5 -180q23 131 38 259t31 257l29 217l18 158l19 160q4 41 11 84t11 84v10l4 33 q2 18 4 35.5t9 23.5v4q6 14 26 14q4 0 6 -1t4 -1q4 -4 7 -4q0 -4 -1 -6t-1 -6q-2 -4 -2 -11v-14l-13 -98q-2 -23 -5 -48.5t-5 -47.5l-45 -359q-4 -45 -10 -85.5t-11 -79.5q-6 -49 -13 -98.5t-11 -104.5q-10 -90 -22.5 -168t-26.5 -164v-4q0 -6 -2 -10t-2 -10q4 8 0 -13.5 t-9 -42.5v-2q-4 -31 -9 -63.5t-11 -32.5q-4 0 -6 -7t-6 -16h-9q-8 0 -16 13q-6 14 -12 43q-14 78 -23.5 159.5t-19.5 163.5l-12 115q-6 63 -12.5 106t-12.5 84q-4 35 -11 70t-14 86l-51 412q-23 -135 -38 -271.5t-31 -277.5l-39 -314q0 -8 -4 -24v-2q-4 -35 -12.5 -96.5 t-19.5 -120t-25.5 -100.5t-31.5 -42q-16 14 -26 62.5t-17 95.5v2l-6 39q-10 66 -19 130.5t-18 127.5q-16 111 -30.5 232.5t-28.5 247.5t-26.5 253t-20.5 248q-2 10 -2 24.5zM584 -29v-2v2z" />
<glyph unicode="X" horiz-adv-x="385" d="M-10 -20h2h-2zM-8 -20q0 4 1 7t1 9v2q2 16 5 29.5t5 29.5l6 37l13 60q10 59 21 104t24 90l26 113q4 16 11.5 40.5t15.5 55.5q16 47 27.5 95t13.5 71v6l-43 180q-23 104 -47.5 214t-46.5 231q-6 29 -11.5 55.5t-13.5 54.5q2 12 25 13h8t6 -2l41 -179q25 -111 50.5 -226.5 t49.5 -233.5q6 -35 10 -45v4q39 168 64 276.5t39 178t22.5 110.5t12.5 74q4 29 28 41l13 4q10 0 10 -4v-15l-43 -188l-37 -168l-33 -148q-31 -133 -47 -229v-8q10 -49 24.5 -108.5t35.5 -135.5q23 -78 46 -171t50 -200v-2q8 -29 12 -53t8 -47v-2q-4 -4 -18 -4q-10 0 -19 4 l-67 279q-4 14 -17.5 62t-30 104.5t-31.5 107.5t-26 72v-4l-14 -50q-16 -59 -37.5 -130.5t-44.5 -170.5l-63 -290q-2 2 -13.5 2h-13.5q-6 0 -8 -2zM379 1460q2 2 1 3t1 5v-12q-2 2 -2 4zM395 2l2 -2q-2 0 -2 2z" />
<glyph unicode="Y" horiz-adv-x="385" d="M2 1468q0 12 23 13q8 0 14 -6l59 -265q23 -98 47.5 -204.5t44.5 -210.5q37 162 61.5 270.5t40 179t24 113.5t12.5 76q4 16 12 29.5t27 13.5q10 0 12 -3.5t2 -9.5q0 -14 -11.5 -65t-29.5 -117q-10 -43 -20.5 -88t-20.5 -90l-47 -215q-10 -55 -20.5 -103.5t-22.5 -101.5v-4 v-71t2 -70q2 -55 3 -106.5t1 -98.5q0 -84 -1 -167t-7 -175v6q-4 -4 -14.5 -7t-16.5 -3q-10 0 -13 22.5t-3 44.5q2 92 3 145.5t2 81t1 39v21.5v50.5t2 45.5v2q0 23 1 44.5t1 43.5v156q-25 129 -55 244q-23 100 -45.5 203.5t-44.5 222.5l-9 39l-9 40.5t-5 34.5z" />
<glyph unicode="Z" horiz-adv-x="507" d="M10 18q0 8 5 20.5t10 24.5l6 17q35 102 67.5 205.5t63.5 212.5l18 65q29 98 59.5 202.5t61.5 205.5l74 233q16 51 30.5 99.5t32.5 95.5v26q-16 8 -28 9h-17q-4 0 -10 -1t-10 -1h-23q-51 0 -81.5 -4.5t-53.5 -4.5h-133q-25 0 -25 25v14q2 10 9.5 12.5t21.5 2.5h21 q14 0 28.5 -3.5t32.5 -3.5h20q6 0 12.5 1.5t12.5 1.5h248l2 2q10 0 20.5 -9.5t10.5 -25.5q0 -4 -3.5 -16.5t-6.5 -28t-5 -26.5l-2 -11v2q-8 -25 -17 -48.5t-20 -47.5q-18 -37 -32.5 -85.5t-27.5 -101.5t-29.5 -108.5t-39.5 -108.5v-2q-35 -86 -59.5 -177t-48.5 -181 l-43 -156l-45 -166q0 -4 -4 -20.5t-11.5 -38t-16.5 -44t-17 -40.5q14 0 27.5 2t23.5 2q25 0 52.5 3t55.5 3q29 0 55.5 -1t55.5 -1h121q4 0 5 1t5 1q23 0 29 -14v-23q0 -2 -11.5 -4t-27 -4t-31.5 -3t-25 -1h-16q-49 0 -97 5t-95 5h-15q-35 0 -71.5 -7t-71.5 -7 q-20 0 -23.5 11t-3.5 15z" />
<glyph unicode="[" horiz-adv-x="245" d="M84 1435v74q0 -2 2 0q10 0 30.5 -1t44 -2t44 -3t28.5 -4v19q0 -4 1.5 -5.5t1.5 -3.5v-17t2 -9l4 -4q0 -6 -5.5 -9.5t-23.5 -3.5q-4 0 -12 -1t-19 -1q-10 -2 -23.5 -2h-17.5v-22q4 -27 3 -59.5t-1 -63.5v-823v-191.5v-164t-1 -124t-1 -71.5q0 -10 -1 -29.5t-1 -32.5v-119 q0 -16 1 -29.5t1 -35.5v-21l60 -8q16 0 30.5 -2t26.5 -4v-22q0 -16 -4 -19.5t-27 -3.5q-4 0 -34.5 1t-59.5 1h-39q-4 0 -6 6t-2 41v213v61.5t1 115t1 150.5v167v643q0 23 1 44t1 42v86q0 41 -1 85t-3 87q-2 35 -2 75zM258 -338q0 2 1 2t1 -2h-2z" />
<glyph unicode="\" horiz-adv-x="389" d="M-16 1489q2 12 18 22q27 -20 31 -38q18 -102 37.5 -183.5t38 -151t38 -132t39 -130t40.5 -143.5t44 -170q4 -27 19.5 -85t34 -122.5t34 -119t19.5 -72.5l6 -33q4 -29 9 -54.5t16 -51.5q0 -20 -15.5 -32.5t-27.5 -15.5q-10 25 -18.5 54.5t-14.5 64.5q-14 76 -38 163 t-50.5 179t-52 186.5t-44.5 180.5q-20 94 -44.5 181t-49 170t-43 165t-26.5 168z" />
<glyph unicode="]" horiz-adv-x="245" d="M25 1477q0 16 4 20t30 4q4 0 29 -1t51 -1h49q8 0 9.5 -6t1.5 -41v-213v-61.5t-1 -115t-1 -150.5v-167v-546q0 -23 1 -46.5t1 -50.5q0 -23 -1 -44t-1 -44v-84q0 -41 1 -85t3 -87q2 -35 2 -75.5v-75.5l-2 2q-10 0 -32 1t-45.5 2t-43 3t-27.5 4v-10q-8 14 -8 29 q0 14 24.5 16t59.5 2h14v22q-2 23 -2 46.5v48.5v208v273v296.5t1 281t1 221.5t2 123v120v59.5t-2 63.5v23l-57 8h-20q-23 -2 -32 1t-9 26z" />
<glyph unicode="^" horiz-adv-x="614" d="M152 999v2l24 86q12 39 23.5 80t21.5 88l29 95l22 61v2l4 14q10 33 39 54q16 -27 28.5 -53.5t18.5 -61.5q10 -53 20.5 -94t25.5 -82l6 -16v-3q16 -49 28.5 -94t28.5 -98q-2 -2 -12 -2h-8l-17 4q-29 78 -50.5 151.5t-43.5 159.5q-10 27 -17.5 54.5t-15.5 56.5 q-20 -45 -41.5 -115.5t-38.5 -154.5l-8 -25q-6 -31 -14 -61.5t-25 -59.5l-6 -8q-4 0 -6 -2q-10 0 -11 1t-1 3v2z" />
<glyph unicode="_" horiz-adv-x="512" d="M8 -96h135q23 0 58 -1t57 -1h34.5t37.5 2q20 0 39.5 1t40.5 1q23 0 45 -1t43 -3v6q8 -14 8 -29q0 -16 -2 -18h-21.5t-19.5 2l-64 4h-155h-113h-33h-78q-6 10 -7 19.5t-5 17.5z" />
<glyph unicode="`" horiz-adv-x="188" d="M6 1315q0 8 4 13t21 5q10 0 15 -3t15 -11l2 -2q23 -31 42.5 -54.5t39.5 -52.5q2 -4 2 -8t-2 -6t-22 -2l-8 6q-10 4 -16.5 8t-12.5 13q-8 8 -21.5 21t-26.5 26.5t-22.5 26t-9.5 20.5z" />
<glyph unicode="a" horiz-adv-x="344" d="M29 207q0 123 35.5 205t130.5 116q2 0 11 1t19.5 7.5t18.5 22.5t8 47v172q0 2 -1 4t-1 6v11q0 33 -4 73.5t-11.5 75.5t-18.5 58.5t-28 23.5q-8 0 -20 -9t-24.5 -22.5t-25 -31t-18.5 -31.5q-8 -14 -16 -26.5t-21 -12.5q-14 0 -14 27q0 37 16.5 66.5t39 50t45 30.5t36.5 10 q33 0 55.5 -29.5t35 -79.5t17.5 -118t5 -143q0 -47 -1 -103.5t-1 -107.5v-127q0 -47 3 -109.5t3 -116.5q0 -35 -3 -66.5t-17.5 -56t-43 -39t-79.5 -14.5h-10q-29 6 -51.5 29t-38 55.5t-23.5 72.5t-8 79zM76 213q0 -29 3 -59.5t13 -49.5v-2q27 -43 37 -62.5t41 -19.5h12 q6 0 17.5 4.5t29.5 14.5q18 14 23.5 52t5.5 83q0 20 -1 57t-2 76t-2 71t-1 40v67q-41 0 -84 -23.5t-72 -94.5v-2q-10 -31 -15 -70t-5 -82z" />
<glyph unicode="b" horiz-adv-x="360" d="M49 766v88v107.5t4 128.5q2 4 2 17v32v26q0 27 -1 58.5t-1 66.5v201q0 23 3 40t16 17q6 0 13 -1t11 -5l2 8v-39q-3 -33 -3 -60v-13q1 -32 1 -60v-303q25 6 47 6q31 0 65 -6t52 -28q35 -39 46 -91.5t22 -128.5q6 -59 6 -143v-35v-78t-4 -127q0 -12 -1 -34.5t-1 -32.5 q0 -27 -1 -56.5t-3 -64.5v-27q-2 -53 -7.5 -101t-15.5 -77v-2q-8 -23 -24.5 -40t-36.5 -29q-16 -8 -33 -10.5t-35 -2.5h-41v2q-25 2 -44 18.5t-26 51.5q-8 66 -9 123t-1 129v264v123t-2 88zM92 592q0 -47 2 -103q0 -16 1 -33.5t1 -35.5v-225q0 -16 1 -38t3 -51v-2 q18 -90 54 -90q12 0 26.5 2t36.5 13v2q12 10 23.5 24.5t21.5 55.5q6 16 10 77.5t9 180.5q0 45 1 91t1 87v74.5v52.5q0 94 -7.5 160.5t-17.5 107.5q-14 39 -32.5 64.5t-37.5 29.5q-4 2 -11 2h-11q-35 0 -70 -28v-17q-4 -55 -4 -124.5v-147.5v-45v-84zM131 -33v-4q-2 2 0 4z " />
<glyph unicode="c" horiz-adv-x="344" d="M45 578.5v113.5v113q2 59 8 123.5t31 111.5v2q12 27 36.5 39.5t53.5 12.5q14 0 43 -4.5t39 -8.5q23 -18 40 -66t17 -102q0 -12 -2 -20v-6q0 -12 -12 -13h-10v3q-14 10 -17.5 24t-5.5 31q0 4 -1 4t-1 4v4q-8 51 -29.5 75.5t-41.5 24.5h-21q-53 -29 -67.5 -98t-14.5 -153 v-47.5t2 -45.5v-41q2 -51 3 -111.5t1 -111.5v-46t-2 -46v-84q0 -39 2 -77t13 -72q12 -49 36.5 -65.5t47.5 -16.5h8q25 4 39 36.5t24 88.5v4q0 4 1 7t1 7q2 12 6.5 26.5t16.5 14.5q29 -8 28 -41q0 -35 -10 -78t-20 -65q-14 -31 -37 -45.5t-51 -14.5q-39 0 -73 27t-50 74v2 q-18 43 -22.5 96t-4.5 106v195q-4 55 -4 109.5z" />
<glyph unicode="d" horiz-adv-x="391" d="M49 530v33q0 18 1 34.5t1 33.5v59v105.5t4 93.5v2q2 41 14.5 74.5t34.5 58.5q45 43 101 45h14q47 0 76 -29v47q0 129 -2 223.5t-12 190.5v8v18.5t2 10.5h14q8 0 25 -8q0 -12 4 -17q4 -29 8 -66.5t4 -86.5v-25q0 -12 -1 -33.5t-1 -68.5q0 -12 1 -31.5t1 -48.5q0 -20 1 -45 t1 -53l16 -633q0 -57 -2 -114.5t-6 -133.5q-4 -41 -12 -79t-25 -72q-10 -23 -27.5 -41.5t-41.5 -20.5h-21q-59 0 -82 23q-55 47 -71 118v2q-8 27 -11.5 72t-5.5 111v125t-2 118zM94 295l6 -72q6 -63 13 -102v-2q25 -80 59 -103q27 -18 43 -18q6 0 13.5 2t17.5 10 q18 16 32.5 61.5t22.5 123.5q4 41 6 81.5t2 85.5v55.5t-2 57.5q-4 152 -7 243t-3 122v20q-4 61 -12.5 92t-20.5 45q-27 33 -47 33q-10 0 -29 -12l-16 -4v-4q-20 -14 -35.5 -29.5t-25.5 -52.5q-12 -49 -14.5 -123t-2.5 -133v-377z" />
<glyph unicode="e" horiz-adv-x="342" d="M31 651q0 127 8 213t25.5 138.5t43 75t62.5 22.5q43 0 69.5 -22.5t42 -78t22.5 -151.5t11 -244q-6 -20 -36 -20h-38t-108 6h-29.5t-23.5 -4v-31q0 -14 -1 -27.5t-1 -25.5q0 -121 4 -210t17.5 -148.5t41 -89t76.5 -29.5q18 0 26.5 7t13.5 23.5t10 45t16 69.5v8q6 31 28 35 v6q12 -12 13 -49q0 -61 -9.5 -97t-26 -56.5t-39 -27.5t-48.5 -12q-39 0 -80 26t-58 101l-2 13q-10 25 -16 88t-9 141t-4 161t-1 144zM78 706.5q0 -28.5 2 -57.5v-18h46t60 -4q16 0 43 2t33 2v20q0 135 -5 215t-16.5 122t-27.5 53.5t-37 11.5h-10q-16 -4 -30.5 -15.5 t-29.5 -46.5v-2q-16 -51 -22 -105.5t-6 -115.5v-61.5z" />
<glyph unicode="f" horiz-adv-x="274" d="M37 61q0 2 1 23.5t3 53.5t3 73t1 82q0 39 -1 73.5t-3 73.5t-3 84t-1 103v49v33.5t1 54.5t1 66.5v72.5v182q0 106 2 181t12 120v3q14 57 43 99t94 42q14 -2 33 -13.5t36 -33t30.5 -53t17.5 -74.5v-10q2 -4 2 -11v-12v-8q0 -12 -20 -12q-8 0 -15.5 5t-7.5 15v2 q-10 78 -33.5 120t-48.5 42q-27 0 -44 -24.5t-40 -82.5v-2q-10 -35 -14 -96t-4 -123v-76q0 -16 -1 -36.5t-1 -45.5v-19v-24.5t1 -40t3 -65.5v-129q20 0 39.5 2t52.5 2q51 0 55 -12v-2l5 -17q0 -10 -13.5 -13t-21.5 -3q-16 2 -27.5 2h-17.5q-23 0 -39.5 -2t-32.5 -8v-21 v-118.5t4 -122.5v-248v-27.5t2 -28.5v-28q0 -37 -2 -63.5t-10 -43.5q-14 0 -25.5 6.5t-13.5 20.5v6q0 8 -1 22.5t-1 34.5z" />
<glyph unicode="g" horiz-adv-x="405" d="M47 535v112q0 31 1 59.5t1 63.5q0 33 1 63.5t3 65.5q18 88 65.5 141.5t102.5 53.5q53 0 96 -50l9 -12q18 -31 26 -61.5t13 -67.5v-375v-83t2 -83q2 -43 3 -87t1 -91v-301v-46t2 -52q2 -39 3 -83t1 -97q0 -109 -11.5 -176.5t-32 -104.5t-46 -50t-56.5 -13 q-33 0 -73.5 22.5t-57.5 73.5q-10 29 -16 52.5t-10 59t-7.5 89t-5.5 141.5q2 23 13 35q29 0 33 -36t6 -87q0 -49 3 -103.5t14 -98.5t34.5 -72.5t66.5 -28.5q20 0 40 10t30 39q8 10 19.5 83t11.5 181v65t-2 85q-2 66 -3 139.5t-1 142.5v10q-23 -39 -48.5 -66.5t-66.5 -27.5 q-31 0 -59.5 19.5t-45.5 58.5v2q-33 57 -44 144.5t-11 164.5v71t-2 52q0 14 -1 27.5t-1 26.5zM96 367q0 -59 1 -104.5t7 -74.5q6 -27 15.5 -57.5t24 -57t30.5 -45t35 -18.5q25 0 45 24.5t34.5 64.5t22.5 91.5t8 106.5v47q0 20 -1 42t-1 56v62t2 61q2 33 3.5 73t1.5 77 q0 68 -3.5 129t-13.5 107t-30.5 73t-57.5 27q-66 0 -94.5 -70t-28.5 -174v-440z" />
<glyph unicode="h" horiz-adv-x="372" d="M39 1199v71v101.5v59t1 44t1 57.5q35 0 41 -26.5t4 -61.5v-88q0 -23 -1 -44.5t-1 -49.5q0 -49 1 -99.5t5 -113.5v-95q2 6 4 10.5t4 10.5q16 41 49 61.5t70 24.5q33 -6 52.5 -13.5t29.5 -21.5q12 -23 18.5 -70t9.5 -105t4 -119.5t1 -115.5v-143q0 -117 1 -204t1 -146v-135 q0 -2 -10.5 -2h-14.5q-10 0 -15 20.5t-8 49t-3 57v45.5q0 23 1 48t1 54q2 35 2 76v90v203q0 113 -1 187.5t-7.5 119.5t-17.5 63.5t-32 18.5q-43 0 -68.5 -38t-41 -90t-20.5 -105.5t-5 -84.5q0 -41 -1 -81.5t-1 -79.5v-142q0 -49 1 -89t3 -79q2 -41 3 -88t1 -108 q-2 -25 -26 -35q-12 8 -15.5 25.5l-7.5 37.5v175q0 31 -1 69.5t-1 79.5q-2 43 -2 98.5v98.5q0 180 -2 308t-4 220q-2 45 -2 89z" />
<glyph unicode="i" horiz-adv-x="192" d="M66 1413q0 39 3 77t13 38q12 0 20.5 -16.5t12.5 -41.5q2 -16 4 -48.5t2 -63.5q0 -20 -3.5 -35.5t-11.5 -15.5q-6 0 -13 2t-13 12t-10 31.5t-4 60.5zM72 1051q0 51 28 51q4 0 11.5 -4t7.5 -19v-479q0 -139 1 -226t1 -155v-178q0 -51 -27 -51q-4 0 -10 4t-8 18v688 q0 57 -1 114.5t-1 105t-1 82t-1 49.5z" />
<glyph unicode="j" horiz-adv-x="221" d="M-78 -621q0 6 23 7q12 0 19 -4.5t16 -10.5q14 -8 23 -13t11 -5q23 0 40.5 26.5t29.5 71.5t18.5 101.5t6.5 117.5v105q2 51 2 101v104v166.5t-2 166.5t-3.5 167t-1.5 169v412q10 0 20.5 -5t12.5 -12q6 -137 10.5 -280t4.5 -285q0 -20 -1 -38.5t-1 -37.5v-178q0 -66 1 -131 t1 -131q4 -59 4 -138v-144q0 -72 -7.5 -141.5t-25 -125t-46 -89.5t-69.5 -34q-18 0 -33.5 9.5t-26.5 23.5t-18.5 28.5t-7.5 26.5zM88 1436v38.5t3 43t9 35t17 14.5q16 0 21 -16.5t5 -37.5v-36q0 -16 -1 -40t-1 -59q0 -53 -6 -85.5t-24 -32.5q-16 29 -19.5 74.5t-3.5 101.5z " />
<glyph unicode="k" horiz-adv-x="395" d="M53 1464v25.5t3 31t8.5 25.5t15.5 10q8 0 15 -19t7 -48v-23.5t-2 -23.5v-2q0 -14 -1 -26.5t-1 -22.5q0 -37 1 -69t1 -60v-445v-121.5t4 -122.5v-10q31 59 67 139t65 158q8 16 15 38t13 44q16 55 34.5 100t39.5 45q27 0 27 -26q0 -4 -3 -10v-2l-28 -64l-21 -49v-2 q-16 -45 -33.5 -86t-33.5 -84v-2l-31 -94v-27q35 -4 62.5 -15.5t41.5 -52.5q25 -72 28 -152.5t3 -160.5v-47q0 -47 4 -92t11 -90v-15q0 -14 -6.5 -25t-20.5 -11q-10 0 -15.5 11t-7.5 19l-4 187q-4 199 -16 296t-64 97q-31 0 -53 -19.5t-38.5 -53.5t-25 -78t-8.5 -93 q0 -133 7 -270v-21q0 -18 -2 -39.5t-9 -29.5q-14 0 -22 12t-12.5 30.5t-5.5 41t-1 41.5v122q0 166 -1 258.5t-1 149.5v190q0 25 1 50.5t1 50.5q0 68 -1 133t-3 131t-3 132.5t-1 135.5z" />
<glyph unicode="l" horiz-adv-x="192" d="M59 1509q0 51 27 52q6 0 13 -4.5t7 -20.5v-339v-246.5t-1 -170t-1 -110.5v-69v-44v-111q0 -127 5.5 -206.5t14.5 -128t23.5 -72t30.5 -37.5l12 -31l-2 -10q-2 -8 -16 -8q-4 0 -8 1t-14 5l-19 18q-25 25 -39 77t-20 115.5t-7.5 132.5t-1.5 128v414v240.5t-2 189.5 q0 66 -1 122t-1 113z" />
<glyph unicode="m" horiz-adv-x="522" d="M53 829v39q0 121 26.5 172.5t76.5 51.5q35 0 65.5 -26t46.5 -73v2q12 55 44 71.5t73 16.5q37 0 55.5 -39.5t27.5 -98t10 -124t1 -119.5q0 -41 -1 -79.5t-3 -77.5t-2 -77v-77v-143.5t4 -143.5q0 -4 1 -10t1 -10v-4q2 -12 4 -25.5t2 -25.5q0 -16 -8 -29.5t-26 -13.5l-11 8 q-2 4 -2 18.5v34.5v551q0 41 1 81t1 81v20q0 33 -1 78t-7 85t-21.5 68.5t-41.5 28.5q-29 0 -44.5 -25.5t-22.5 -63.5t-9 -81t-2 -75v-486v-138.5t2 -135.5q0 -14 -4 -32.5t-15 -18.5q-10 0 -16 24.5t-9 63.5t-4 83t-1 85v110t2 107v47.5t1 56.5t1 57.5v49.5v92q0 43 -2 92 t-10.5 91t-24.5 69.5t-43 27.5q-23 0 -36 -17t-21.5 -45t-11.5 -59.5t-3 -62.5q0 -39 1 -58.5t1 -35.5v-64q0 -41 -1 -90t-1 -102v-189v-66.5t2 -66.5q2 -33 3 -66.5t1 -68.5q0 -14 -4 -34.5t-14 -20.5q-23 0 -23 41q0 98 -1 196.5t-3 200.5q-2 98 -3 198.5t-1 198.5z" />
<glyph unicode="n" horiz-adv-x="397" d="M53 106.5v45.5v456q0 78 2 153t6 150v2q4 70 31 106t68 60q10 4 25.5 8.5t31.5 4.5q31 0 57.5 -12.5t42.5 -43.5q16 -37 19.5 -91t3.5 -114v-503q4 -31 6 -90.5t2 -122.5v-27q0 -37 -3 -62.5t-19 -25.5q-10 0 -15.5 15.5t-7.5 39t-3 52t-1 57.5v356q0 35 1 69t1 68 q0 111 -6 215q-6 102 -23.5 140.5t-62.5 38.5q-14 -4 -32.5 -18.5t-34 -37t-27 -52.5t-11.5 -62q-4 -33 -5 -59.5t-1 -59.5v-105q0 -27 1 -51t1 -51q2 -72 2 -163v-167v-114q0 -41 -2 -79t-12 -38q-12 0 -12 -2v4q-8 6 -13.5 23.5t-7.5 40t-2 47z" />
<glyph unicode="o" horiz-adv-x="501" d="M20 510v65q0 41 4.5 75t14.5 77q16 78 40.5 154.5t61.5 134.5q16 23 56 53q33 20 69 21q55 0 96 -50q23 -23 36.5 -48t23.5 -54q52 -116 70 -268q4 -39 7 -83t3 -95q0 -27 -1 -53.5t-3 -61.5q-4 -57 -13.5 -118.5t-25.5 -125.5q-20 -78 -65.5 -122t-110.5 -44h-23 q-115 37 -173 168t-67 375zM63 502q0 -66 8.5 -129.5t24.5 -122.5q49 -184 160 -219q4 -2 12 -2h13q31 0 57.5 14t48.5 51q33 61 48.5 161.5t19.5 225.5v29q0 55 -5.5 114.5t-13.5 112.5q-10 41 -19 78t-20 66q-6 16 -17 36.5t-18 36.5v2q-53 90 -96 91q-14 0 -30.5 -8.5 t-36.5 -22.5q-16 -14 -56 -88v-2l-20 -56q-10 -25 -18.5 -49t-16.5 -53v-2q-16 -63 -20.5 -130t-4.5 -134z" />
<glyph unicode="p" d="M53 784q0 53 3 101.5t16 95.5v2q16 66 60 95.5t89 29.5t62 -14q33 -25 52 -68t28.5 -96t12.5 -114.5t3 -125.5v-119q2 -43 2 -90v-96v-68q0 -74 -8 -142.5t-31 -121.5q-18 -43 -48 -60.5t-65 -17.5q-29 0 -58.5 11.5t-49.5 33.5v-14v-117.5t2 -115.5q0 -59 1 -116.5 t1 -115.5v-98t-2 -96q0 -6 -1 -15.5t-1 -17.5v-32.5t-2 -22.5l-6 -7q-20 0 -28.5 17.5t-8.5 44.5v29q0 23 1 65.5t1 136.5q4 41 4 83v83q0 55 -1 106.5t-5 108.5l-4 275l-6 278l-5 80v2q-4 55 -6 111.5t-2 111.5zM98 756q0 -47 2 -92.5t4 -88.5v-2q2 -31 3.5 -59.5 t1.5 -56.5q0 -18 1 -38t1 -38q2 -66 5 -130.5t15 -119.5v-2q18 -51 43 -75.5t49 -24.5q20 0 43 12v2q23 14 36 49t20.5 82t9.5 102.5t2 112.5v70q0 33 1 62.5t-1 53.5q-2 12 -2 36v51q0 31 -1 65.5t-3 68t-4 64.5t-5 51q-10 72 -37.5 116t-56.5 44h-14t-14 -2v-2 q-16 -8 -35 -32.5t-39 -55.5q-8 -18 -13.5 -45t-7.5 -57.5t-3 -62.5t-1 -58z" />
<glyph unicode="q" horiz-adv-x="436" d="M51 616v93.5t4 93.5q10 123 52.5 199.5t109.5 76.5h25q70 0 98.5 -51t44.5 -180v2q2 -174 3 -344t1 -356q0 -47 -1 -94.5t-3 -94.5t-3 -92t-1 -92v-60.5t2 -60.5q2 -35 3 -72t1 -78q0 -104 -6 -204v-41q0 -10 -11.5 -18.5t-21.5 -8.5h-10q-6 18 -6 57q0 12 1 25.5t1 26.5 q2 14 2 29.5v31.5v100q0 25 1 49.5t1 51.5q0 41 -1 80t-1 79q-2 35 -2 80v82v94q-18 -23 -47 -37t-60 -14q-47 0 -85 41t-58 123q-16 72 -21.5 137.5t-9.5 139.5v98q0 25 -1 52.5t-1 55.5zM100 662q0 -102 1 -188.5t5 -168.5q4 -84 18.5 -134t45.5 -101v-2q39 -55 66 -56 q18 0 36.5 21.5t38.5 60.5q16 41 19.5 93.5t3.5 105.5v43t2 43v2q2 63 3 124.5t1 125.5v68.5t-2 68.5q0 88 -15.5 164t-60.5 100q-4 4 -16.5 10.5t-16.5 6.5q-35 0 -64.5 -43t-45.5 -109q-14 -53 -16.5 -113.5t-2.5 -121.5z" />
<glyph unicode="r" horiz-adv-x="282" d="M53 866q0 35 3 67t14 60q16 47 45.5 74t64.5 27q47 0 70 -37v-4q14 -14 24.5 -27.5t16.5 -30.5q0 -2 -1 -2t-2 -2v-2q-12 -8 -18 -8q-25 0 -23.5 6t-4.5 10v-2q-6 0 -11 11q-16 14 -33.5 25t-27.5 11h-8q-35 -20 -45.5 -71t-10.5 -105q-2 -31 -2 -59.5v-58.5v-105.5 t2 -105.5q0 -53 1.5 -105.5t1.5 -103.5q0 -74 -2.5 -151t-8.5 -148q-4 -25 -16 -25q-10 0 -16 6q-8 10 -9.5 21.5t-1.5 27.5v260q0 57 2 115t2 115v101t-4 102v53q0 14 -1 29.5t-1 31.5zM288 981v8q0 2 1.5 2t1.5 2q0 -4 -1.5 -6t-1.5 -6zM291 993q2 0 2 2q-2 0 -2 -2v2l2 2 v-6q-2 0 -2 2z" />
<glyph unicode="s" horiz-adv-x="296" d="M20 893q0 29 6.5 73t26.5 74q16 27 44 42.5t57 15.5q35 0 61.5 -18.5t38.5 -65.5q10 -29 17.5 -62.5t7.5 -68.5q0 -16 -4.5 -39t-18.5 -23q-8 0 -9 1l-3 3v2l-4 4v-6q-6 14 -7 33v21q0 6 1.5 11t1.5 15q0 43 -11.5 79t-29.5 52q-12 20 -29 21q-12 0 -20.5 -2t-16.5 -6 q-12 -2 -22.5 -17.5t-19.5 -37t-14 -46t-5 -49.5q0 -49 8 -82t18 -63q10 -29 23.5 -65t23.5 -58h2v-10q12 -29 24.5 -51.5t25.5 -45.5q33 -59 62.5 -124.5t29.5 -161.5q0 -47 -4.5 -91.5t-14.5 -80t-28.5 -61t-44.5 -34.5v-2q-4 -2 -21 -2q-61 0 -104 75t-43 185 q0 23 4 51.5t20 28.5q12 0 14 -2q8 -16 9 -33v-45q0 -35 2 -54t4 -32q0 -4 1 -6t1 -6v-4q10 -47 34.5 -82t49.5 -35q29 0 52.5 55.5t27.5 129.5v2q0 106 -31 181t-68 142q-23 37 -42 76t-29 74l-17 51q-16 47 -26.5 83t-10.5 91z" />
<glyph unicode="t" horiz-adv-x="303" d="M-2 1020q0 -14 14.5 -19.5t28.5 -5.5h35v-20q-1 -44 -1 -92q0 -71 2 -149q3 -130 3 -240v-123q0 -31 -1 -63t-1 -62q0 -51 5 -101.5t18.5 -90.5t36 -65.5t59.5 -25.5q51 0 74.5 45t31.5 111v2q2 10 2 24q0 31 -16 31q-10 0 -12.5 -4t-4.5 -8l-4 -14q0 -4 -1 -4.5t-1 -4.5 v-4q-14 -53 -28.5 -89t-42.5 -36q-20 2 -34 24.5t-22 56.5t-12 75t-4 80q0 31 1 54.5t1 43.5v57q1 48 1 101t-1 111q-2 116 -2 210v41v53.5t1 47t5 34t10 13.5l13 2l77 6q16 4 17 8q0 10 -9.5 22.5t-23.5 12.5q-12 0 -25.5 -1t-23.5 -3q-12 -2 -25 -4q-8 0 -12 23.5t-5 54 t0 61.5t1 45v215q0 4 -9.5 7t-19.5 3h-8q0 2 -8 -27.5t-8 -60.5v-69q0 -57 1 -86t3 -46.5t3 -35t1 -54.5q0 -35 -10 -34q-23 0 -32 2t-26 14q-4 -12 -8 -27.5t-4 -21.5zM84 1468q0 3 2 5v-7z" />
<glyph unicode="u" horiz-adv-x="417" d="M51 881v20v49t3 60.5t9.5 50t16.5 20.5t18 -11t8 -26q0 -35 -1 -66.5t-1 -64.5v-131v-120t2 -119v-64q0 -100 4 -186t15.5 -148.5t35 -98.5t66.5 -36q35 0 54.5 40t30 101.5t13.5 135t3 143.5q0 141 -6.5 280.5t-6.5 301.5q0 16 2 40.5t17 24.5q33 0 33 -45q0 -10 -1 -19 t-1 -20v-35l4 -122q2 -178 2 -289v-166q0 -78 -1 -152.5t-11.5 -134t-38 -96.5t-78.5 -37q-53 0 -86 25.5t-52.5 69.5t-27.5 104.5t-10 130.5t-5.5 143.5t-3.5 143.5v40q0 70 -3 132.5t-3 130.5z" />
<glyph unicode="v" horiz-adv-x="309" d="M0 1038v19q0 14 14 18q25 0 27 -8l14 -74l8 -49v-2l9 -55l30 -221q10 -57 17.5 -118t17.5 -120q10 -63 19.5 -123.5t17.5 -124.5l19 150q10 88 21 176t17 174l13 129l14 139q4 47 9.5 73.5t16.5 59.5q0 -8 9 -8q29 0 29 -6q0 -2 -1.5 -2t-1.5 -2l-83 -703l-9 -90 q-4 -43 -9 -85t-9 -85v-2q0 -6 -1 -11t-1 -15q-4 -29 -8 -60.5t-27 -29.5q-16 8 -22.5 38.5t-10.5 53.5l-2 18v2q-8 109 -24 217q-10 80 -22.5 153t-24.5 146l-29 168l-12 80q-8 45 -14.5 88t-10.5 92z" />
<glyph unicode="w" horiz-adv-x="497" d="M6 1024v27q0 4 1 6t11 8q8 0 16.5 -2t8.5 -6v-4q2 -10 6 -35t8 -51.5t7.5 -52t5.5 -40.5l24 -208q10 -59 15.5 -120t11.5 -118q4 -59 10 -116.5t12 -116.5q4 57 10.5 104t10.5 88q4 43 10 90t10 109l13 127q4 23 6 47t6 57q4 35 9 82t15 84q4 14 25 14q12 0 17.5 -5 t9.5 -15q4 -14 6 -39t4 -51v-23.5t2 -23.5q4 -35 8 -68t8 -63q6 -33 10.5 -63t6.5 -58v-2q4 -68 10 -117t12 -96q4 -41 9.5 -83t11.5 -95l49 471l24 208q0 12 3.5 37t7.5 52.5t8 52t6 37.5v4q0 4 8 6t15 2h4q10 -6 11 -8t1 -6v-31q-4 -35 -7 -61.5t-7 -55.5v-2l-13 -104 q-12 -104 -24.5 -208t-24.5 -204q-2 -16 -5 -37.5t-7 -38.5q-6 -59 -11 -108t-10 -109q-2 -12 -4 -27.5t-6 -31t-10 -25.5t-14 -10q-16 0 -20.5 26.5t-6.5 53.5q0 10 -1 19t-1 18q-2 45 -6 81.5t-8 73.5l-11 80q-12 127 -27.5 259t-31.5 237q-4 -63 -11 -137t-18 -148 q-6 -51 -12 -104.5t-12 -106.5q-2 -23 -5 -44t-6 -44q-4 -35 -8 -70.5t-6 -76.5v-21q-2 -31 -6 -63.5t-25 -32.5q-6 0 -12 10t-9 25.5l-6 31t-3 27.5l-9 80l-16 137q-6 49 -11 102.5t-9 102.5q-6 72 -14.5 141.5t-18.5 141.5v2l-12 73q-6 37 -10.5 72t-8.5 80zM498 1065v4 v-4z" />
<glyph unicode="x" horiz-adv-x="329" d="M0 -23q12 72 29.5 144t36.5 143q16 68 31.5 138.5t31.5 150.5v8q-27 135 -54.5 261t-62.5 249l2 -2q6 14 37 14l15 -4q18 -80 33.5 -153.5t33.5 -153.5l23 -104l30 127l68 280q2 6 31 6q2 -2 2 -4q4 -2 12 -2q2 0 4 -2v-2q-35 -135 -65.5 -255t-53.5 -243v-12 q12 -45 21.5 -85t19.5 -77q16 -72 33.5 -135t42.5 -135l39 -123q0 -16 -8 -18v-4q-2 -2 -21 -2q-10 0 -12 2l-2 4v8q-29 76 -50.5 148.5t-41.5 150.5v2l-47 178v-2l-37 -172q-16 -70 -31.5 -138.5t-30.5 -133.5v-4q-2 -10 -6 -19.5t-6 -19.5q-4 -10 -27 -11l-10 7 q-2 0 -6 -1t-4 -6v2z" />
<glyph unicode="y" horiz-adv-x="417" d="M51 978v112q0 31 19 30q27 0 30.5 -27.5t3.5 -68.5v-338q0 -63 -1 -124.5t-1 -127.5q0 -82 1 -156.5t10.5 -132t29 -92.5t56.5 -35q33 0 56.5 30t36.5 81t19 117.5t6 138.5v383q0 33 -1 64.5t-1 66.5v107q0 23 -1 49t-1 49q0 18 2 30.5t13 12.5q25 0 28.5 -18.5 t3.5 -41.5v-24q6 -133 7.5 -269.5t1.5 -267.5v-135q0 -53 -1 -105.5t-3 -105.5q0 -16 -1.5 -30.5t-1.5 -30.5v-62v-102t3 -92q2 -49 3 -103.5t1 -132.5q0 -72 -7.5 -162t-27.5 -153q-4 -10 -15.5 -27.5t-27 -34t-35.5 -29t-43 -12.5q-37 0 -65.5 13.5t-49 47.5t-32 92 t-11.5 149q0 29 5.5 48t21.5 19q27 0 31 -20q-2 -18 -2 -36v-36q0 -70 6 -114t16 -68.5t24.5 -33.5t32.5 -9q14 0 34 8t38.5 28.5t32.5 52.5t18 79q8 82 9.5 167t1.5 203v79t-1 69t-2.5 65.5t-3.5 71.5v6q-23 -53 -52 -87t-64 -34q-78 0 -112 109.5t-34 300.5q0 25 1 48.5 t1 45.5v199q0 94 -1 142t-3 87q-2 31 -2 77z" />
<glyph unicode="z" horiz-adv-x="323" d="M16 31v6q31 104 57.5 222t55.5 230q12 55 26.5 108.5t24.5 100.5q16 59 27.5 119t21.5 115v2q2 16 5.5 31.5t5.5 31.5v25q-20 0 -38 -1t-36 -3q-23 -2 -42.5 -4t-43.5 -2q-41 0 -60 26v17q0 16 3 20h-3h3q2 0 4 1t6 1q59 -16 112 -16q23 0 45.5 3t45.5 7h12q41 0 53 -22 q0 -4 1 -8.5t1 -10.5q0 -29 -8 -47q-6 -8 -10 -24.5t-9 -30.5q-23 -111 -47 -214.5t-49 -207.5q-27 -106 -57 -242l-12 -51l-33 -143v-25q10 -2 19 -2h20q18 0 37.5 2t38.5 6h13t25 2q6 0 19 4q6 2 11 3t11 1q23 0 33 -16l2 2l-8 -37q-4 -4 -11 -6t-20.5 -5t-38 -4t-63.5 -1 h-43q-16 0 -30.5 -1t-33.5 -7q-39 2 -43 45z" />
<glyph unicode="{" horiz-adv-x="317" d="M74 545q0 20 12 26.5t25 10.5q4 2 7 3t13 11q6 6 13.5 23.5t12.5 36t8 36t3 23.5q6 29 8 56.5t2 53.5q0 53 -7 108.5t-13 110.5q-8 59 -13.5 119t-5.5 117t12.5 107.5t47.5 91.5v2q6 8 21.5 17t29.5 9q12 0 24.5 -9t12.5 -19q0 -6 -13.5 -10.5t-23.5 -8.5l-8 -4v-2 q-33 -18 -44.5 -65.5t-11.5 -110.5q0 -51 5.5 -97t11.5 -87l4 -41v-2q8 -59 15 -125t7 -127q0 -66 -12 -126.5t-43 -107.5v-22q27 -47 37 -104.5t10 -121.5q0 -66 -7 -136t-15 -132l-6 -53v-2q0 -8 -1.5 -13.5t-1.5 -15.5q-4 -29 -6 -61.5t-2 -67.5q0 -76 16.5 -129 t63.5 -57q6 -10 10 -16.5t4 -12.5q0 -4 -9 -12t-25 -8q-25 0 -47.5 25.5t-36.5 47.5q-16 33 -22.5 74t-6.5 90q0 63 7 127t16 127q8 53 14 102.5t6 92.5q0 59 -8 111.5t-27 88.5q-10 20 -15 23.5t-11 7.5q-14 8 -25.5 15.5t-11.5 11.5z" />
<glyph unicode="|" horiz-adv-x="227" d="M86 1653q2 16 23 16q20 0 23 -28.5t3 -57.5v-63v-95.5t4 -117.5q0 -59 1 -118t1 -95v-132t-2 -174q-2 -45 -3 -93t-2 -94t-1 -86v-66q0 -27 1 -54.5t1 -56.5v-2q4 -29 4 -56.5v-58.5t-2 -92t-2 -133v-266q0 -10 2 -20.5t2 -20.5v-74v-23.5t-4 -31.5v-2q-4 -10 -14 -11 q-16 0 -18.5 41t-2.5 99v348q-6 123 -6 225q0 61 1 163.5t3 215.5q0 53 1 112.5t2 116t1 105.5v82v141q0 18 -1 56t-2 82t-3 89t-2 80q0 12 -1 21.5t-1 17.5v31.5t-2 25.5q-2 14 -3 27.5t-1 26.5z" />
<glyph unicode="}" horiz-adv-x="321" d="M33 1483q0 10 12 19t25 9q14 0 29.5 -8t21.5 -18v-2q35 -41 47 -91.5t12 -107.5t-5 -116.5t-13 -118.5q-6 -55 -13.5 -110.5t-7.5 -109.5q0 -27 2 -54t9 -56q0 -6 3 -23.5t8 -36t12 -36t13 -23.5q10 -10 13.5 -11t7.5 -3q12 -4 24.5 -10.5t12.5 -26.5q0 -6 -11.5 -12.5 t-23.5 -12.5q-8 -2 -14.5 -5t-10.5 -19q-20 -41 -29.5 -95.5t-9.5 -113.5q0 -43 6.5 -92t14.5 -103q8 -63 15 -126.5t7 -127.5q0 -49 -6 -90t-22 -74q-14 -20 -37 -46.5t-47 -26.5q-16 0 -25.5 8t-9.5 12q0 6 4 12.5t10 16.5q47 4 63.5 57t16.5 129q0 35 -2 68t-6 61 q0 10 -1 15.5t-1 13.5v2l-6 53q-8 63 -15.5 133t-7.5 136q0 63 10.5 120.5t36.5 104.5v24q-31 47 -43 106.5t-12 125.5q0 61 7 126.5t16 125.5v2q0 12 2 21t2 20q6 41 11 87t5 97q0 59 -13.5 107.5t-41.5 68.5l-8 6q-10 4 -23.5 8.5t-13.5 10.5z" />
<glyph unicode="~" horiz-adv-x="614" d="M104 430q0 88 37 134t84 46h17q29 -4 43 -21.5t26 -39.5q16 -23 32.5 -45.5t35.5 -34.5q16 -8 31 -8q23 0 39 25.5t22 84.5q2 6 2 29q0 4 -1 6t-1 6v13q0 2 10 2h13v-4q18 -25 18 -56q-4 -72 -37 -116.5t-67 -44.5h-17l-14 6q-6 2 -13.5 4t-13.5 4q-8 2 -12 4v2 q-27 27 -37 47q-16 27 -32.5 48.5t-39.5 33.5h-10q-18 0 -32.5 -10t-24.5 -45q-8 -14 -11.5 -26.5t-7.5 -29.5v-4q0 -2 -12 -2h-16q-10 0 -11 -8z" />
<glyph unicode="&#xa2;" horiz-adv-x="393" d="M59 674q0 61 1 132t13.5 131t40 100t81.5 40v43q0 47 -4.5 80t-4.5 62q4 18 21 18q23 0 27 -28.5t4 -57.5v-119q45 -4 73.5 -50t28.5 -128q0 -39 -14 -39q-16 0 -24.5 22.5t-15.5 51.5t-18.5 55.5t-36.5 34.5v-121q0 -51 -1 -75.5t-3 -45t-3 -49.5t-1 -86q0 -59 3 -115.5 t3 -111.5v-142q0 -59 -1 -125.5t-1 -117.5v-23q27 -4 43.5 21.5t25.5 59.5t14 64.5t7 41.5q31 -12 31 -41q0 -92 -38 -143.5t-83 -59.5v-105q0 -6 1 -16t1 -33v-20t-2 -27v2q-2 -6 -4 -9t-12 -3q-14 0 -17.5 41t-3.5 100v74q-68 29 -97.5 103.5t-29.5 197.5q0 18 1.5 36.5 t1.5 35.5v65q0 70 -3.5 139.5t-3.5 139.5zM104 774q0 -88 3.5 -177t3.5 -177v-113q0 -10 -1 -17t-1 -16v-32q0 -41 2 -77t10 -67q25 -74 65 -88v303q0 129 3.5 268.5t3.5 280.5v164q-57 -16 -73 -86t-16 -166z" />
<glyph unicode="&#xa3;" horiz-adv-x="485" d="M18 745h23q33 0 41 -2v25q-23 117 -38 226.5t-15 207.5v25q4 53 10 97t22 87q12 35 33 56.5t45.5 33.5t48 16.5t41.5 4.5q16 0 40 -4.5t46.5 -11.5t41 -16t26.5 -22q45 -72 62.5 -181t19.5 -251v-20q0 -8 -11.5 -15.5t-21.5 -7.5q-4 2 -4 9.5v15.5v33q-6 61 -11 105 t-11.5 80t-14.5 68.5t-20 69.5q-27 70 -68 88.5t-78 18.5q-18 0 -35 -4v-2q-10 -4 -28.5 -17.5t-37 -38t-31.5 -59.5t-15 -80q-4 -37 -4 -63.5v-42.5v-29q0 -78 9 -139.5t28 -143.5l26 -108v-17h88q23 0 45.5 1t36.5 1l4 2q6 -4 9.5 -9t1.5 -27q-2 -12 -3.5 -16.5t-7.5 -8.5 q-8 4 -25.5 7t-37 4t-37.5 2t-29 1h-16t-16 -2v-26q23 -117 30.5 -212.5t7.5 -162.5v-41q0 -14 -1 -26.5t-1 -24.5v-23h15q27 -8 43 -23.5t28 -37.5q20 -37 44 -67t59 -30q25 0 46 34t21 116v27h9q18 0 27 -22.5t9 -39.5q-2 -37 -13 -67.5t-27.5 -54t-36 -36t-35.5 -12.5 q-10 0 -38 6t-38 17q-25 25 -31 33t-6 9t3 1t-1 6q-23 33 -43 61.5t-49 28.5v-16q-12 -68 -39 -100t-61 -40q-6 0 -12.5 7.5t-6.5 11.5q0 68 22.5 115t61.5 65v18q0 33 2 65t2 64q0 53 -2 93.5t-12 91.5l-21 139v2l-6 33v18h-40t-31 2q-6 16 -7.5 25.5t-3.5 25.5z" />
<glyph unicode="&#xa5;" horiz-adv-x="419" d="M6 1477q0 6 3 11t20 11h15t7 -4v-4l10 -41v-2l9 -27q0 -23 2 -30t6 -15q2 -6 5 -17t3 -3q27 -162 48.5 -263.5t37.5 -166.5q14 -57 23.5 -100.5t15.5 -90.5q2 10 5 23.5t5 25.5q8 41 16.5 84t19.5 104.5t26.5 149.5t38.5 221v5q0 4 2 10t2 10q2 18 5 40t8 40t14.5 30.5 t25.5 12.5q2 0 4 -1t4 -1h2q4 -12 6 -21.5t-2 -9.5l-53 -303q-18 -104 -37.5 -206.5t-36.5 -211.5v-26h84q43 0 45 -25v-12q4 -8 8 -8l-12 -11q2 2 -1 3t-7 1q-29 -4 -58.5 -7t-74.5 -5v-18l-8 -56v-14q0 -4 -1 -16.5t-1 -48.5v-29q10 0 19 1t20 3l73 4q35 0 37 -20v-9 q8 -10 8 -12l-6 -6v-14q0 -4 -1 6t-1 6q-47 -4 -78.5 -6t-72.5 -2v-23q2 -68 2 -137.5v-140.5v-27q0 -31 -4.5 -67.5t-20.5 -45.5q-18 0 -22 23v164v85t2 144v23q-27 0 -42.5 -3t-33.5 -8l-21 -4h-10q-27 0 -40 8.5t-13 36.5q10 16 26.5 20.5t36.5 4.5h11q6 -2 12 -2 q6 -4 15 -6t32 -2h27v22q0 16 -1 36t-1 36v8q-6 14 -11 27q-4 10 -7 22.5t-7 22.5v14h-33h-43t-47 4q-4 10 -7 18.5t-3 22.5q18 6 49 10.5t78 6.5v22q-4 35 -8 60.5t-9 46.5l-10 55q-10 68 -20.5 107.5t-20.5 74.5t-20.5 74t-20.5 88l-18 80q-8 33 -16.5 64.5t-10.5 68.5z M397 432l4 2l-2 -2h-2z" />
<glyph unicode="&#xa8;" horiz-adv-x="188" d="M-37 1235q0 10 4 18q9 21 23 21q29 0 38 -11.5t9 -35.5q0 -8 -6 -19.5t-23 -11.5q-45 0 -45 39zM147 1239v8q12 20 33 21h9.5t15.5 -4q10 -6 10 -19q0 -37 -39 -37q-10 0 -19.5 9.5t-9.5 21.5z" />
<glyph unicode="&#xa9;" horiz-adv-x="538" d="M20 569q8 262 72 432q33 80 84 105q37 18 74 18q12 0 16 -2q23 -4 46 -14.5t46 -22.5q49 -41 74 -139l2 -12v-2q18 -100 27 -166q4 -70 7 -145.5t7 -155.5q0 -82 -13 -163t-42 -155v-2q-14 -45 -47 -79v-7l-23 -24l-39 -31q-33 -16 -61 -16q-16 0 -37 6 q-35 12 -60.5 36.5t-43.5 53.5q-53 92 -71 221t-18 264zM53 520q0 -41 4 -85t11 -91q0 -4 1 -7t1 -7v-2q4 -63 18 -110.5t43 -98.5q16 -29 29.5 -47.5t29.5 -24.5q31 -14 58 -14l24 2q31 6 49.5 27.5t43.5 62.5q2 6 8 15.5t10 13.5q4 14 11 30.5t14 34.5q10 25 16 62.5 t12 103.5q2 23 3 47.5t1 52.5q0 43 -3 94.5t-7 106.5l-8 84l-6 43q-12 88 -31.5 158.5t-56.5 97.5v4q-20 0 -39 6q-20 8 -35 8q-18 0 -41 -10q-61 -23 -94 -95.5t-45 -199.5q-6 -61 -11.5 -120.5t-9.5 -118.5v-23zM145 558v77v57v2q2 43 7.5 90t21.5 82q10 20 26.5 28.5 t39.5 8.5q10 0 27.5 -3t25.5 -7q16 -12 28.5 -48t12.5 -73q0 -10 -2 -14v-4q0 -10 -8 -11h-9v2q-8 8 -10 18.5t-4 20.5q0 4 -1 4t-1 5v2q-4 37 -17.5 56t-29.5 19h-14q-37 -23 -48.5 -74t-11.5 -112v-32.5t2 -33.5v-75q0 -29 1 -63t1 -74q0 -29 1 -55.5t10 -53.5 q8 -35 26.5 -47t32.5 -12h6q18 4 25.5 26.5t15.5 63.5v2q0 4 1 5t1 5q2 10 4 20.5t10 10.5q23 -6 23 -31t-8 -56.5t-15 -47.5q-18 -41 -59 -41q-27 0 -51.5 19t-36.5 54q-12 33 -15 71t-3 77v25.5t-3 39.5q-2 35 -2 77zM373 45v14l8 9v-19z" />
<glyph unicode="&#xab;" horiz-adv-x="436" d="M63 580q0 4 15.5 30.5t27.5 46.5q10 20 20.5 39t20.5 41q10 20 21.5 42t40.5 52q0 -2 6 -2q10 0 10 -6t-2 -15t-6 -24q-18 -29 -30.5 -50t-24.5 -50q-10 -23 -22.5 -43t-33.5 -55v-21q18 -35 31 -56.5t23 -37.5q18 -35 32.5 -59.5t24.5 -44.5l6 -37q0 -4 -1 -8.5t1 -8.5 q2 0 -14 -4q-29 31 -37 49.5t-18 38.5q-12 29 -25.5 56.5t-30.5 48.5l4 -6q-37 55 -39 84zM223 313h2h-2zM233 580q0 4 15.5 30.5t27.5 46.5q10 20 20.5 39t20.5 41q10 20 21.5 42t40.5 52q0 -2 6 -2q10 0 10 -6t-2 -15t-6 -24q-16 -29 -29.5 -50t-25.5 -50 q-10 -23 -21.5 -43t-34.5 -55v-21q18 -35 30.5 -56.5t23.5 -37.5q18 -35 32.5 -59.5t24.5 -44.5l6 -37q0 -4 -1 -8.5t1 -8.5q2 0 -14 -4q-29 31 -37 49.5t-18 38.5q-10 29 -24.5 56.5t-31.5 48.5l4 -6q-16 27 -26 47t-13 37zM393 313h2h-2z" />
<glyph unicode="&#xad;" horiz-adv-x="378" d="M39 598h68.5t42.5 -2q4 0 12 -1t14 -1h14.5t16.5 2l63 6q23 0 36 -2t22 -6v12l6 -18q0 -8 6 -2q0 -25 -8 -35q-18 6 -66.5 9t-107.5 3h-27q-4 0 -11 -1t-11 -1q-23 -4 -44.5 1t-25.5 36z" />
<glyph unicode="&#xae;" horiz-adv-x="534" d="M37 561q6 109 19.5 207t39 172t65.5 117t99 43q23 0 52.5 -13.5t52.5 -25.5q27 -20 43 -54t28 -81l2 -15q12 -68 19.5 -123t11.5 -107t6 -104.5t4 -115.5q0 -164 -53 -307v-2q-14 -43 -47 -76v-6l-23 -25l-37 -29q-29 -16 -59 -16q-70 0 -113 54.5t-67.5 137t-33.5 182 t-9 187.5zM70 514q0 -41 8 -88t8 -96v-2q4 -66 21.5 -118t42 -89t53 -57.5t55.5 -20.5l25 2q23 4 32 12.5t17 22.5t19 33.5t38 46.5q6 12 15.5 30.5t18.5 53.5t15 91t6 144q0 43 -2 93.5t-8 103.5l-14 121q-10 86 -30.5 154.5t-55.5 95.5v2q-18 0 -34.5 7t-35.5 7 q-59 0 -93 -39t-53.5 -109.5t-29.5 -167t-18 -210.5v-23zM188 252v22q0 47 1 82t1 66v250q0 10 -1 21.5t-1 21.5q0 63 22.5 112.5t68.5 49.5q31 0 47 -23v-6q10 -10 18 -20.5t10 -20.5q0 -4 -2 -10v-4q0 4 -14 4t-25 16v2q-12 10 -22 17.5t-21 7.5q-29 0 -37 -39t-8 -86v-84 v-58.5t1 -38t1 -36v-56.5q0 -20 1 -58t-1 -76t-6 -65.5t-14 -27.5q-12 0 -15.5 13.5t-3.5 23.5zM354 807h2v-2q-2 0 -2 2zM379 55v15l8 6v-19z" />
<glyph unicode="&#xb4;" horiz-adv-x="188" d="M66.5 1197q-3.5 9 1.5 15l9 18q9 17 22.5 39.5t27.5 43t27 28.5q16 12 32 13q6 0 13.5 -4.5t7.5 -8.5q0 -12 -12.5 -26.5t-28.5 -31.5t-34.5 -38.5t-33.5 -48.5q-4 -6 -10 -7t-10 -1q-8 0 -11.5 9z" />
<glyph unicode="&#xb8;" horiz-adv-x="172" d="M10 -162q0 4 1 7t7 14l43 -25q6 -2 15 -2q23 0 43 14.5t26 44.5v5q0 4 -1 7t-1 9l-86 -12q-10 18 -12 22t-2 8q0 2 7 12.5t15.5 22.5t16.5 21.5t10 13.5h33l-14 -23q-4 -8 -17 -26q6 2 23 2q30 0 55 -12q8 -10 8 -27v-12q0 -29 -10 -58.5t-55 -46.5q-12 -8 -29 -8 q-12 0 -24.5 4t-22.5 8q-10 6 -19.5 15.5t-9.5 21.5z" />
<glyph unicode="&#xbb;" horiz-adv-x="436" d="M63 313q2 4 3 17l6 37q10 20 24.5 44.5t32.5 59.5q10 16 22.5 37.5t30.5 56.5v21q-20 35 -31.5 55.5t-23.5 42.5l-57 107q-6 14 -7 32q0 6 11 6q6 0 6 2q29 -31 41 -52t22 -42q10 -23 19.5 -41t19.5 -39q14 -20 28.5 -46.5t14.5 -30.5q-2 -29 -39 -84v-4h-2 q-12 -16 -24.5 -43t-24.5 -52q-10 -20 -18 -38.5t-37 -49.5q-16 6 -17 4zM233 313q2 4 3 17l6 37q10 20 24.5 44.5t32.5 59.5q10 16 22.5 37.5t30.5 56.5v21q-20 35 -31.5 55.5t-23.5 42.5l-57 107q-6 14 -7 32q0 6 11 6q8 0 8 2q27 -31 39 -52t22 -42q10 -23 19.5 -41 t19.5 -39q14 -20 28.5 -46.5t14.5 -30.5q-2 -16 -11 -37t-26 -47v-4h-4q-12 -16 -24.5 -43t-22.5 -52q-10 -20 -19 -38.5t-36 -49.5q-18 6 -19 4z" />
<glyph unicode="&#x2c6;" horiz-adv-x="188" d="M-43 1214q20 35 43 51.5t47 51.5l2 2q12 16 24.5 26.5t22.5 10.5q6 0 20.5 -14.5t24.5 -26.5q12 -18 23.5 -27.5t21 -18.5t19.5 -20.5t22 -31.5q2 -2 2 -9q0 -10 -12 -10t-24 12h-3q-16 18 -27 28.5t-20.5 19t-20.5 18.5t-28 31q-29 -29 -48 -49.5t-48 -47.5l-21 -10 q-4 0 -6 -2q-10 0 -14 16z" />
<glyph unicode="&#x2da;" horiz-adv-x="188" d="M10 1286q2 12 2.5 24.5t10.5 22.5q14 16 26 24.5t33 6.5q10 0 27.5 -2t37.5 -23q20 -25 27.5 -45t15.5 -43v-6q0 -8 -1 -18t-9 -21l-24 -28q-10 -8 -25 -9h-16q-8 2 -24.5 8.5t-27.5 16.5l-18 16q-10 8 -17.5 21.5t-17.5 54.5zM47 1292q0 -35 23.5 -59.5t48.5 -24.5 q20 0 29.5 14.5t9.5 24.5t-5.5 22.5t-15.5 28.5l-10 13q-30 14 -59 8q-20 -6 -21 -27z" />
<glyph unicode="&#x2dc;" horiz-adv-x="188" d="M-55 1212q0 47 25.5 70t54.5 23q18 0 32.5 -10.5t28.5 -22.5t28.5 -22.5t32.5 -10.5q25 0 39.5 15.5t14.5 37.5v13q0 8 8 8q10 0 18.5 -12.5t8.5 -22.5q0 -39 -41 -70q-18 -14 -43 -14t-42.5 10t-33 23.5t-28.5 24t-25 10.5q-16 0 -23.5 -8.5t-12.5 -19.5t-12.5 -19.5 t-19.5 -8.5q-10 0 -10 6z" />
<glyph unicode="&#x401;" horiz-adv-x="389" d="M63 578v172q0 57 1.5 99t2.5 77t2 66.5t1 70.5v45q0 63 1 101t-1 69v2q-2 29 -3 60.5t-1 78.5v11q0 6 -2.5 14t0 16t10.5 13.5t26 5.5q10 0 20.5 -1t22.5 -1h31q45 0 76 2t47 2q10 0 25.5 -1t27.5 -3q12 -8 11 -12.5t4 -16.5q0 -10 -21 -10q-27 0 -50.5 4t-45.5 4 q-35 0 -69 -1t-70 -5v-25q0 -147 -3.5 -293.5t-3.5 -294.5l-4 -26q27 0 59.5 -2t61.5 -2h21q20 0 24 -25v-4q0 -4 -18 -6h-29q-10 2 -19.5 2h-19.5q-16 0 -37.5 -1t-38.5 -3v-19q-2 -29 -2 -57.5v-58.5v-78q0 -20 1 -41t1 -43v-25l-2 -172q0 -8 1 -25.5t1 -78.5v-127 q16 -4 41 -5t43 -1q23 0 45.5 5t49.5 5q18 0 29.5 -8t11.5 -31v-2l-41 2q-10 0 -22.5 -1t-31 -2t-44 -2t-62.5 1h-19h-8q-12 0 -20 8t-8 49q4 63 2 135t-2 154q0 57 -1.5 116.5t-1.5 119.5zM67 1634q0 10 4 18q9 21 23 21q29 0 38 -11.5t9 -35.5q0 -8 -6 -19.5t-23 -11.5 q-45 0 -45 39zM251 1638v8q12 20 33 21h9.5t15.5 -4q10 -6 10 -19q0 -37 -39 -37q-10 0 -19.5 9.5t-9.5 21.5z" />
<glyph unicode="&#x402;" horiz-adv-x="456" d="M-27 1454q6 14 37 14q10 0 27 -4q20 -4 43 -4h31q35 0 66.5 1t80.5 5q16 0 36.5 -2t22.5 -12l5 -22q0 -8 -3 -9q-23 4 -42 4t-35 2q-12 0 -34 1.5t-40 3.5v-21q-2 -98 -2 -192.5v-192.5v-37q0 -10 1 -18t1 -17v-6l6 17q16 43 46 61t65 21q29 -4 58.5 -13.5t41.5 -19.5 q12 -23 18.5 -70t9.5 -103.5t4 -117.5t1 -113v-143l-2 -39q-2 -127 -11.5 -212t-26 -138t-42 -75.5t-60.5 -22.5q-12 0 -24 1t-12 7v6q2 14 9 30.5t17 16.5h10v2q8 -12 11 -12q25 0 39 20.5t22 53t12.5 73.5t6.5 82l6 76v366q0 92 -2 150.5t-10.5 92.5t-23.5 47.5t-42 13.5 q-37 0 -59.5 -32t-37 -73t-19.5 -80t-7 -55v-2q0 -6 -1 -12.5t-1 -12.5q2 -53 3 -107t5 -108v-448q0 -35 -8 -62.5t-25 -27.5q-16 0 -16 -2q4 53 5 137t1 162q0 98 -2 189t-4 183q-2 96 -4 193.5t-2 206.5q0 41 1 80t1 77v154q0 25 -2 45.5t-17 20.5l-8 -9q0 2 -10 2h-33v2 q-4 0 -6 1.5t-6 1.5v-5q-6 -4 -29 -4h-16q-23 0 -25 33z" />
<glyph unicode="&#x403;" horiz-adv-x="389" d="M61 86l5 92q2 39 4 81t2 120v45v61.5t-2 59.5q-4 47 -6.5 105.5t-2.5 154.5v117t2 178q0 47 1.5 98t2.5 97t2 83t1 56v22q0 18 6 21q29 4 61.5 5t67.5 1q25 0 40 -1t29 -3t25.5 -2h26.5h24q6 0 6 -15q0 -16 -12 -22t-27 -6h-35.5t-39.5 2q-43 6 -76 6h-27.5t-27.5 -2v-23 q0 -59 1 -81.5t1 -24.5l-2 -480v-108q0 -29 1 -50.5t1 -35.5v-23l-4 -368l2 -176v-35q0 -33 -19 -41l-8 4v6q-10 0 -16.5 26.5t-6.5 55.5zM138.5 1596q-3.5 9 1.5 15l9 18q9 17 22.5 39.5t27.5 43t27 28.5q16 12 32 13q6 0 13.5 -4.5t7.5 -8.5q0 -12 -12.5 -26.5 t-28.5 -31.5t-34.5 -38.5t-33.5 -48.5q-4 -6 -10 -7t-10 -1q-8 0 -11.5 9z" />
<glyph unicode="&#x404;" horiz-adv-x="423" d="M35 870q4 96 6 189.5t4 191.5q6 190 102 240q6 4 16.5 7t29.5 5q23 0 40 -2t33 -14q59 -49 84 -156v-4q10 -25 17.5 -54.5t7.5 -58.5q0 -31 -10 -65v14q-2 0 -3.5 -1t-5.5 -1q-14 0 -16 8l-8 37l-4 19v2q-6 51 -17.5 101t-38.5 75l-22 24q-8 10 -15.5 18.5t-17.5 12.5 t-15 5t-16 1v-4q-25 -20 -41 -36.5t-26 -35t-16.5 -39t-12.5 -46.5v-5q0 -16 -1 -31.5t-1 -31.5q-4 -94 -4 -174v-172v-103q29 -2 37 -3t10 -1h12h16.5t18.5 2l60 7q39 0 63 -11q2 -8 3 -17t1 -22q0 -4 -4 -12v-8q0 -2 -2 6t-2 6q-18 4 -65.5 7t-104.5 3h-43v-20 q4 -199 12 -381l4 -90q0 -23 1 -46.5t3 -45.5v-4q37 -135 95 -136q27 0 67 35q16 10 28.5 33t22.5 57v7q0 6 2.5 29.5t5.5 49t6 47t5 23.5q18 0 20 -2v-2l13 -10q0 -8 1 -17.5t1 -31.5q0 -76 -21 -132q-14 -49 -46 -81.5t-75 -42.5q-16 -4 -26 -5q-41 0 -74 29 q-84 102 -84 342v110.5t-2 110.5z" />
<glyph unicode="&#x405;" horiz-adv-x="391" d="M33 387v31q0 6 1 22.5t3 31.5t6 27.5t10 12.5t13.5 -3t11.5 -9v-49q0 -8 -1 -16.5t-1 -18.5v-58q0 -35 3 -67.5t7 -65.5q4 -29 10 -58.5t14.5 -56t19.5 -47t26 -28.5q10 -10 21 -16.5t22 -6.5q41 0 80.5 46t50.5 139q4 16 4 32.5v42.5q0 92 -30 184.5t-58 168.5 q-8 16 -13.5 31.5t-9.5 23.5v2q-20 47 -37.5 82t-33.5 63q-29 49 -54.5 100.5t-42.5 108.5q-16 70 -16 140t19.5 147.5t45.5 124.5q14 23 27.5 33t44.5 14h8q2 0 4 1t7 1q29 0 52 -9t42 -32q68 -104 67 -278v-11q0 -16 -22 -16q-8 0 -8 2q-6 53 -14.5 100t-20.5 95v2 q-39 102 -98 102q-10 0 -19.5 -4t-21.5 -21q-16 -16 -27.5 -43.5t-20 -63.5t-11.5 -76t-5 -77v-8q0 -88 24.5 -148.5t55.5 -113.5l31 -59l28 -52q29 -57 58.5 -117.5t48.5 -129.5l8 -33q16 -59 27.5 -118.5t11.5 -121.5v-18v-23.5t-2 -23.5q-4 -31 -14.5 -66t-25.5 -67.5 t-34.5 -57t-38.5 -33.5q-20 -10 -47 -10q-55 0 -103 45t-67 144q-10 57 -13 114.5t-3 116.5z" />
<glyph unicode="&#x406;" horiz-adv-x="208" d="M80 1421q0 23 3 45.5t13 22.5q8 0 17.5 -3t13.5 -9l6 -355v-98t-2 -106q-2 -59 -3 -130t-1 -131q0 -80 2 -153.5t4 -147.5q2 -53 3 -115.5t1 -119.5v-12v-39t-3 -39.5t-9 -30.5t-16 -12q-6 0 -13.5 10t-7.5 45v973q0 23 -1 47t-1 51v22.5t-1 47.5t-2 89t-3 148z" />
<glyph unicode="&#x407;" horiz-adv-x="208" d="M-23 1634q0 10 4 18q9 21 23 21q29 0 38 -11.5t9 -35.5q0 -8 -6 -19.5t-23 -11.5q-45 0 -45 39zM80 1421q0 23 3 45.5t13 22.5q8 0 17.5 -3t13.5 -9l6 -355v-98t-2 -106q-2 -59 -3 -130t-1 -131q0 -80 2 -153.5t4 -147.5q2 -53 3 -115.5t1 -119.5v-12v-39t-3 -39.5 t-9 -30.5t-16 -12q-6 0 -13.5 10t-7.5 45v973q0 23 -1 47t-1 51v22.5t-1 47.5t-2 89t-3 148zM161 1638v8q12 20 33 21h9.5t15.5 -4q10 -6 10 -19q0 -37 -39 -37q-10 0 -19.5 9.5t-9.5 21.5z" />
<glyph unicode="&#x408;" horiz-adv-x="342" d="M31 135q8 16 22 17q20 0 27 -25v-2q10 -27 24.5 -54.5t34.5 -43.5v-4h17v2q47 29 58 93t11 193v185q0 41 -1 84t-3 88q-2 47 -3 94t-1 94v84t2 88q0 35 1 88t1 86q0 53 -1 104.5t-3 104.5v21q-18 6 -33.5 8t-31.5 2q-10 0 -16.5 -1t-20.5 -7h-15q-12 0 -12 12 q0 31 15.5 35t35.5 2h13q10 0 18 -1t18 -1h39q16 0 29.5 1t30.5 3h10q35 -6 45 -41q0 -2 -16 -8q-10 4 -16.5 1t-8.5 -1v4h-18q-6 0 -11.5 -1t-11.5 -1v-23q0 -72 -1 -124t-3 -103q-2 -55 -2 -119.5v-120.5q0 -59 1 -116.5t3 -116.5t4 -117.5t2 -116.5v-286q-2 -49 -8 -89 t-23 -75l-55 -54q-8 -4 -24 -4q-41 0 -75 49.5t-48 112.5z" />
<glyph unicode="&#x409;" horiz-adv-x="747" d="M0 2q2 12 9 28.5t22 16.5q12 0 11 -1t3 -1q8 -6 16 -6q45 0 58.5 36t23.5 91q4 16 6.5 29.5t6.5 29.5q8 29 12 76t8 100v2q0 10 1 16.5t1 14.5q0 55 2 102.5t4 94.5q4 53 5 112.5t1 133.5v51q-2 16 -2 38.5v51.5v133v8t2 21v2q0 23 1.5 44t1.5 44q0 8 1 14t1 14v23v40 t-2 32q0 10 -1.5 19t-1.5 20q0 51 15 51h10q0 -4 8 -4l39 -9q20 -6 45 -6h18.5t22.5 2q14 2 25.5 3t21.5 1h29v5q2 2 7 3t24 1l2 -2l2 -103q2 -35 1 -73.5t-3 -69.5q0 -8 -1 -21.5t-1 -21.5v-287l28 10v2q4 2 9.5 3.5t21.5 1.5q33 0 68.5 -17.5t65.5 -57.5t48.5 -108.5 t18.5 -169.5v-59q0 -84 1 -125t1 -64v-30q0 -84 -12.5 -136.5t-32 -83t-46 -45t-57.5 -22.5q-10 -2 -18 -3t-19 -1q-10 0 -21 2l-22 4q-8 2 -14 3t-12 1h-17q-16 0 -28 1t-15 7v277q0 47 -1 96t-1 100v156t2 135v39t1.5 46.5t1.5 45v35.5v156q0 18 1 40.5t1 45.5l4 225v21 h-39t-33 2h-104v-50q0 -8 1 -14t1 -14q0 -31 -1 -57.5t-4 -49.5q-2 -14 -2 -26.5v-22.5v-39q0 -25 1 -55.5t4 -63.5v-2q2 -29 2 -55.5v-44.5v-51q0 -33 -2.5 -67t-4.5 -68q-2 -29 -3 -56.5t-1 -50.5v-18l-6 -54v-159q0 -4 -2 -10.5t-2 -10.5q-8 -199 -45 -304t-113 -105h-18 q-14 0 -27.5 2t-13.5 8v6zM215 1483v4v-4zM446 51l58 -8q16 -4 21 -4h16q76 0 103.5 66.5t27.5 220.5q0 16 -1 33.5t-1 35.5v2q-2 25 -2 49.5v55.5v16q0 51 -1 96t-10 91q-10 39 -26.5 68.5t-36 49t-38.5 29.5t-34 12q-16 0 -29.5 -6t-35.5 -20v-19q0 -10 -1 -20.5t-1 -20.5 q-4 -51 -5 -104t-1 -111v-31q0 -61 -1.5 -112t-1.5 -92v-277z" />
<glyph unicode="&#x40a;" horiz-adv-x="616" d="M61 1051v105t2 81v242q4 4 19 4q16 0 20 -10v-568q0 -27 2 -42t7 -29v-17q35 2 78.5 3t76.5 1h15v279q0 18 1 40.5t1 45.5l6 270q4 23 39 23l2 -2l2 -103q2 -35 1 -73.5t-3 -69.5q0 -8 -1 -21.5t-1 -21.5v-287l30 10v2q4 2 9.5 3.5t19.5 1.5q33 0 70 -17.5t65.5 -57.5 t48 -108.5t19.5 -169.5v-59q0 -84 1 -125t1 -64v-30q0 -84 -12.5 -136.5t-32 -83t-46 -45t-57.5 -22.5q-10 -2 -19 -3t-19 -1t-20.5 2t-20.5 4q-20 4 -29 4h-17q-14 0 -26 1t-14 7v277q0 47 -1.5 96t-1.5 100v78t3 76q0 25 1 62.5t1 58.5v22h-29h-21.5t-21.5 2 q-10 0 -23.5 1t-23.5 1q-12 0 -26.5 -4t-24.5 -34v-9q4 -59 6 -105t2 -110v-43.5t-2 -56.5v-2q-2 -35 -3 -71t-1 -60v-41v-21.5t2 -25.5q2 -23 3 -49.5t1 -59.5q0 -16 -1 -33.5t-3 -33.5l-6 -58h-21q-14 0 -14 49q0 10 1 20.5t1 20.5q2 14 2 32v40q0 74 -2 116t-4 56 q0 45 1 82t1 68v123q0 78 -1 139t-5 119q-2 53 -4.5 104t-2.5 111zM319 51l60 -8q14 -4 19 -4h16q78 0 104.5 66.5t26.5 220.5q0 16 -1 33.5t-1 35.5v2q-2 25 -2 49.5v55.5v16q0 51 -1 96t-10 91q-18 78 -61 116.5t-74 42.5q-14 0 -28.5 -6t-36.5 -20v-19q0 -10 -1 -20.5 t-1 -20.5q-4 -51 -5 -104t-1 -111v-31q0 -61 -1.5 -112t-1.5 -92v-277z" />
<glyph unicode="&#x40b;" horiz-adv-x="456" d="M-27 1454q6 14 37 14q10 0 27 -4q20 -4 43 -4h31q35 0 66.5 1t80.5 5q16 0 36.5 -2t22.5 -12l5 -22q0 -8 -3 -9q-23 4 -42 4t-35 2q-12 0 -34 1.5t-40 3.5v-21q-2 -98 -2 -194.5v-194.5v-12q16 27 49 46t74 19q29 0 55.5 -12t40.5 -41v-2q18 -37 21.5 -91.5t3.5 -111.5 v-498q0 -16 1 -40.5t1 -55.5q2 -39 2 -87v-83q0 -27 -3 -43t-16 -16q-10 0 -15 15.5t-8 38t-4 51t-1 57.5v352q0 35 1 68.5t1 68.5q0 201 -13.5 295t-79.5 94q-14 -4 -30.5 -18.5t-31.5 -36t-26.5 -50t-13.5 -61.5v-22q-2 -25 -3 -47.5t-1 -50.5q0 -59 1 -116t1 -116 q2 -53 2 -116.5v-116.5v-123q0 -33 -1 -63.5t-2 -55.5t-4 -39t-9 -14q-12 0 -19.5 14t-10.5 36.5t-3 50.5v54v586q-2 86 -2 165v161q0 41 1 80t1 77v154q0 25 -2 45.5t-17 20.5l-63 -2h-31h-16q-10 0 -15.5 4t-7.5 20z" />
<glyph unicode="&#x40c;" horiz-adv-x="477" d="M63 1546h19q18 0 22 -16q0 -29 1 -57.5t1 -63.5q0 -55 1.5 -119.5t1.5 -130t1 -128t3 -113.5v-19q63 104 124.5 242.5t118.5 269.5l33 76q12 23 28.5 38t39.5 17q12 -12 12 -22v-9q-18 -16 -40.5 -51t-45.5 -82t-44.5 -100t-41.5 -104q-23 -55 -44.5 -107.5t-47.5 -105.5 v-15q20 -115 45.5 -188.5t52.5 -143.5q20 -51 43 -112.5t39 -124.5q37 -131 63.5 -238.5t26.5 -152.5q-2 2 -18 2q-4 0 -8.5 -4t-4.5 -7v5q-23 80 -45 158.5t-43 166.5q-16 70 -39.5 140.5t-44.5 123.5q-29 74 -55.5 151t-48.5 167v10q-10 -10 -19.5 -29.5t-29.5 -62.5v-6 q0 -23 1 -46.5t1 -45.5q-2 -45 -3 -82t-1 -76v-43q0 -35 1 -62.5t1 -56.5q2 -29 2 -74v-100v-29.5t2 -35.5q2 -29 3 -69t1 -85q0 -2 -10 -8q-12 2 -23.5 4t-13.5 6q2 31 2 50.5v39.5q0 31 -1 61.5t-3 59.5q-2 27 -3 61.5t-2 86t-2 120t-1 162.5q0 31 2 76t-2 78l-2 256 q-2 39 -1 79.5t1 83.5v93v127t-5 114zM187.5 1586q-3.5 9 1.5 15l9 18q9 17 22.5 39.5t27.5 43t27 28.5q16 12 32 13q6 0 13.5 -4.5t7.5 -8.5q0 -12 -12.5 -26.5t-28.5 -31.5t-34.5 -38.5t-33.5 -48.5q-4 -6 -10 -7t-10 -1q-8 0 -11.5 9z" />
<glyph unicode="&#x40e;" horiz-adv-x="401" d="M-2 -6q0 2 1 1t1 1q4 14 12 28.5t23 6.5q0 -2 2 -2h4q2 -2 6 -2q2 -4 5 -7.5t3 -5.5q23 -8 40.5 -1t30.5 25.5t24.5 43t21.5 49.5v2q4 10 8 18.5t8 18.5q8 20 11.5 53t7.5 80q4 29 7 59.5t5 59.5v6q-4 14 -5 27.5t-3 25.5q0 4 -2 4t-2 2l-2 19v2q-4 39 -9.5 76t-11.5 73 l-10 66q-10 78 -21.5 151.5t-25.5 145.5l-27 166l-12 78q-8 45 -14 88t-11 92v18q0 12 15 17q25 0 26 -9l13 -71l8 -49v-2l8 -54l33 -219q8 -59 17.5 -119.5t19.5 -119.5q12 -59 21 -130t18 -133q6 47 12 107.5t14 110.5v2q12 74 22.5 147.5t16.5 146.5l12 127l15 140 q4 47 9 73.5t15 57.5q0 -8 11 -8q29 0 28 -7q0 -2 -1 -2t-1 -2l-80 -663v-12q-4 -39 -9 -89.5t-13 -107.5l-27 -203q-10 -94 -21.5 -167.5t-29.5 -125.5q-31 -86 -77 -123.5t-95 -15.5v2q-2 0 -6 3t-6 3q-12 4 -22.5 11.5t-10.5 13.5v2zM72 1695q0 16 17 17q8 0 13 -8.5 t9 -20.5t12.5 -24.5t24.5 -20.5t25.5 -10t25.5 -2q2 0 15.5 -1t31 4t31.5 19.5t20 44.5q2 25 21 25q12 0 12 -19q0 -47 -33.5 -83.5t-105.5 -36.5q-23 0 -44.5 11t-37.5 28.5t-26.5 38t-10.5 38.5z" />
<glyph unicode="&#x40f;" horiz-adv-x="442" d="M63 1051v158.5t3 111.5q0 29 1 75t1 85q0 2 16 2q20 0 26.5 -34t6.5 -77q0 -23 -1 -42t-1 -38v-264q0 -51 1 -103.5t1 -105.5v-49t2 -57q2 -35 3 -72t1 -66v-80.5t-2 -80.5q0 -31 -1 -81t-1 -81q0 -10 1 -20.5t1 -24.5v-2q2 -23 2 -49.5v-59.5v-26.5t-2 -26.5v-25 q25 0 49.5 1t48.5 1q31 2 75 2.5t91 0.5v22q0 180 -1 352.5t-7 354.5q-2 41 -2 83v80q0 63 1 119t3 107q2 47 2 89v83q0 14 -1 26.5t-3 22.5v4q-2 10 -2 16.5v12.5v18t3 29.5t9 27t16 11.5q8 0 12.5 -28t6.5 -65.5t2 -79.5v-73v-188.5t2 -206.5q2 -156 4 -350.5t2 -454.5 q0 -16 1 -26.5t-1 -22.5q6 2 -22.5 0t-79.5 -2q-4 0 -7.5 1t-7.5 1q-8 2 -15 2t-12 -6.5t-8.5 -19.5t-3.5 -40v-46t3 -46q2 -25 3 -49.5t1 -50.5q0 -2 -1 0t-1 0q-4 -12 -8.5 -18.5t-14.5 -6.5q-18 0 -22.5 34t-4.5 68v29q0 33 1 67t8 56v27q-14 2 -25.5 3t-21.5 1h-41 q-12 0 -26.5 -1t-31.5 -1q-18 0 -18 51q0 10 1 16t1 17q2 10 2 24.5v36.5v14q0 8 -1 23.5t-2 48.5t-1 85v132v142q0 78 -1 139t-5 119q-2 53 -4.5 104t-2.5 111z" />
<glyph unicode="&#x410;" horiz-adv-x="405" d="M4 8l2 6q29 199 48.5 394.5t35.5 420.5q2 29 7 71t9 79l9 65q10 119 25.5 222.5t35.5 212.5q4 20 18.5 21t22.5 -19v-2q23 -49 33 -118t20 -136l15 -88v-2q10 -59 15 -116.5t9 -117.5q4 -53 8.5 -105.5t12.5 -107.5v-2q6 -37 9 -69.5t7 -67.5l8 -92l58 -453l-9 -8v-8 q2 6 -10 6t-11 1t1 3v2l-8 10q-23 135 -41.5 268.5t-34.5 290.5l-4 21h-19.5t-35 1t-36 1h-18.5q-14 0 -37.5 2t-37.5 -2l-2 -25q-4 -59 -10.5 -115.5t-12.5 -113.5q-4 -23 -5 -45.5t-3 -44.5v-2q0 -10 -2 -21.5t-2 -21.5q-4 -47 -10.5 -93.5t-10.5 -95.5v-2q0 -29 -22 -35 q-10 2 -18.5 8.5t-8.5 22.5zM117 635q16 -4 37.5 -2t33.5 2q29 0 54.5 -3t50.5 3l-8 80v2q-6 78 -13.5 158.5t-15.5 158.5q-4 45 -9 99.5t-12.5 107.5t-15.5 101.5t-18 82.5q-4 -18 -8.5 -46.5t-8.5 -60.5t-6 -64.5t-4 -59.5q-14 -123 -27.5 -246t-25.5 -252z" />
<glyph unicode="&#x411;" horiz-adv-x="438" d="M57 14v56q0 16 1 36.5t1 38.5v146q0 47 -1 96t-1 100v224.5t1 174.5t2 149.5t3 150.5q0 29 1.5 63.5t1.5 71.5t1 71.5t1 63.5q0 10 12 27v8q0 2 1 -7t1 -7q41 10 92 6h43q27 0 43 -1t31 -3q12 -2 22.5 -2h26.5h29q4 -6 4 -15q0 -16 -12.5 -22t-28.5 -6h-33.5t-42.5 2 q-47 6 -86 6h-27.5t-27.5 -2v-66q0 -96 -6 -184v-289q59 16 84 17q35 0 70.5 -17.5t65 -57.5t48 -108.5t18.5 -169.5v-59q0 -84 1 -125t1 -64v-30q0 -84 -12 -136.5t-31.5 -83t-46 -45t-55.5 -22.5q-10 -2 -19.5 -3t-21.5 -1t-25.5 2t-25.5 4t-22.5 3t-18.5 1h-19 q-12 0 -26.5 1t-16.5 7zM102 51l68 -8q4 0 6 -1t6 -1q10 -2 19.5 -2h17.5q78 0 105.5 66.5t27.5 220.5q0 16 -1 33.5t-1 35.5v2q-2 25 -2 49.5v55.5v59q0 37 -2 72t-10 72q-8 45 -26.5 75.5t-40 49t-43 26.5t-40.5 8q-33 0 -73 -26v-19q0 -10 -2 -21.5t-2 -21.5 q-6 -102 -7 -213v-512z" />
<glyph unicode="&#x412;" horiz-adv-x="442" d="M59 1096v82l2 276q0 20 20.5 22.5t41.5 2.5h49q16 4 25 4q27 0 60.5 -8.5t64 -41t51 -97t20.5 -175.5q0 -119 -5 -200.5t-46 -149.5l-20 -35v-24q47 -68 64 -173.5t17 -254.5q0 -96 -10 -157t-28.5 -96.5t-45 -53t-59.5 -25.5q-10 -2 -19.5 -3t-21.5 -1t-25.5 2t-25.5 4 q-10 2 -21.5 3t-19.5 1h-18q-16 0 -26.5 4t-15 35t-5.5 97.5t-1 191.5v536q0 53 -1 107.5t-1 126.5zM100 838l2 -35v-21q10 4 21.5 4h21.5h23q31 0 53.5 1t36.5 -3v-2q49 16 70.5 102.5t21.5 207.5q0 70 -5 134t-22.5 113.5t-50 80t-86.5 32.5q-6 -2 -14 -2h-14 q-10 0 -19.5 -1t-19.5 -5h-19v-23q0 -10 1 -19t1 -20v-75q0 -59 -1 -143.5t-1 -159.5v-166zM106 355.5q0 -27.5 1.5 -44t1.5 -24.5v-15v-229l75 -10q12 -2 23.5 -3t21.5 -1q76 0 103.5 65.5t27.5 218.5v29q0 51 -3 119.5t-13 132t-33.5 107.5t-62.5 44q-10 0 -19.5 1.5 t-17.5 1.5h-29q-18 0 -37.5 -2.5t-35.5 -12.5v-18q0 -12 -1.5 -23.5t-1.5 -21.5v-242v-72.5z" />
<glyph unicode="&#x413;" horiz-adv-x="389" d="M61 86l5 92q2 39 4 81t2 120v45v61.5t-2 59.5q-4 47 -6.5 105.5t-2.5 154.5v117t2 178q0 47 1.5 98t2.5 97t2 83t1 56v22q0 18 6 21q29 4 61.5 5t67.5 1q25 0 40 -1t29 -3t25.5 -2h26.5h24q6 0 6 -15q0 -16 -12 -22t-27 -6h-35.5t-39.5 2q-43 6 -76 6h-27.5t-27.5 -2v-23 q0 -59 1 -81.5t1 -24.5l-2 -480v-108q0 -29 1 -50.5t1 -35.5v-23l-4 -368l2 -176v-35q0 -33 -19 -41l-8 4v6q-10 0 -16.5 26.5t-6.5 55.5z" />
<glyph unicode="&#x414;" horiz-adv-x="563" d="M47 39q0 -16 2 -25v-2q2 -12 3 -33.5t3 -80.5v-39q0 -16 -1 -41t-1 -49q0 -31 3 -62t18 -31q16 0 21 29t5 62q0 27 -1 48t-1 42v82l2 38v19h21h82t67 4h62q8 -2 18 -2h17q16 0 30.5 1t24.5 1h59v-23q-2 -16 -2 -29.5v-25.5v-117q0 -6 -1 -21t-1 -56q0 -16 4 -31.5 t21 -15.5q16 0 16 2l2 110v51v56.5t2 50.5q0 16 1 27.5t1 19.5q0 23 -4 37t-12 14q-23 0 -36 -2t-21 -6v20q4 35 7 75t3 83v45q0 27 -1 57.5t-1 63.5q-2 39 -2 80v82t1 113.5t1 148.5v330q0 35 1 64.5t1 53.5v74q2 37 2 57.5v28.5v32t-2 30q-35 -6 -62.5 -7.5t-38.5 -1.5 h-47v-6q-20 0 -45 6q-10 2 -21 4.5t-24 4.5q-8 0 -8 4h-8q-14 0 -14 -51q0 -10 1 -19.5t1 -19.5q2 -14 2 -32v-40v-23q0 -8 -1 -14t-1 -14q0 -23 -1 -44.5t-1 -43.5v-2q-2 -14 -2.5 -20.5t-0.5 -8.5v-133v-51.5t3 -38.5v-51q0 -55 -1.5 -98.5t-3.5 -82.5v-2q-4 -39 -4 -80 t-2 -86q-4 -88 -9 -170t-17 -131l-11 -53v-2q-10 -51 -21 -89t-44 -44v2l-21 6q0 2 -6 -4v-4q-6 -6 -6 0zM164 35v31q29 70 39 154.5t14 174.5v2l12 228q-2 0 -2 4v18q0 23 1 50.5t3 56.5q2 35 4.5 68.5t2.5 66.5v51v45t-2 55v2q-2 33 -3.5 64t-1.5 55v39v22.5t2 26.5 q2 23 3.5 49.5t1.5 57.5q0 8 -1 14t-1 14v50h24q8 0 23.5 -1t25.5 -1q20 -2 44 -2h42h23v-353q0 -98 -1 -186t-5 -189l-2 -88q4 -98 6 -185t2 -165q0 -82 -2 -128t-15 -91v-16q-14 0 -51 1t-67 3q-29 2 -50.5 2h-27.5h-41zM215 1483v4v-4zM305 1509q2 0 4 -4q4 -8 4 -20v-15 q-4 0 -6 5t-2 34z" />
<glyph unicode="&#x415;" horiz-adv-x="389" d="M63 578v172q0 57 1.5 99t2.5 77t2 66.5t1 70.5v45q0 63 1 101t-1 69v2q-2 29 -3 60.5t-1 78.5v11q0 6 -2.5 14t0 16t10.5 13.5t26 5.5q10 0 20.5 -1t22.5 -1h31q45 0 76 2t47 2q10 0 25.5 -1t27.5 -3q12 -8 11 -12.5t4 -16.5q0 -10 -21 -10q-27 0 -50.5 4t-45.5 4 q-35 0 -69 -1t-70 -5v-25q0 -147 -3.5 -293.5t-3.5 -294.5l-4 -26q27 0 59.5 -2t61.5 -2h21q20 0 24 -25v-4q0 -4 -18 -6h-29q-10 2 -19.5 2h-19.5q-16 0 -37.5 -1t-38.5 -3v-19q-2 -29 -2 -57.5v-58.5v-78q0 -20 1 -41t1 -43v-25l-2 -172q0 -8 1 -25.5t1 -78.5v-127 q16 -4 41 -5t43 -1q23 0 45.5 5t49.5 5q18 0 29.5 -8t11.5 -31v-2l-41 2q-10 0 -22.5 -1t-31 -2t-44 -2t-62.5 1h-19h-8q-12 0 -20 8t-8 49q4 63 2 135t-2 154q0 57 -1.5 116.5t-1.5 119.5z" />
<glyph unicode="&#x416;" horiz-adv-x="796" d="M16 -10q0 10 4.5 43t12.5 84q6 29 16 60.5t21 66.5q10 29 20 58.5t21 64.5q23 78 43 137t43 112v5q4 29 15 63.5t26 69.5q12 39 26.5 83t24.5 97v12q-23 47 -43.5 96.5t-40.5 98.5q-16 45 -35.5 90t-40.5 88q-8 18 -20.5 41.5t-25.5 46.5t-25.5 41t-20.5 25v8q0 14 12 22 q51 -4 70 -53l39 -94l43 -96q45 -98 87 -189.5t89 -171.5v266q0 33 1 69t1 71q0 68 -1 126t-5 113q2 2 20 2t21 -14l4 -250q0 -33 1 -83t2 -103.5t2 -101.5t1 -76v-19q47 80 99 190.5t100 217.5q10 23 22 52.5t23 51.5l22 49q20 51 70 56q8 -8 8 -23v-8q-18 -14 -35.5 -44 t-34.5 -67q-23 -45 -44 -98t-44 -109q-23 -53 -44 -107t-48 -102v-14q12 -53 26.5 -97t26.5 -83q12 -35 24.5 -68.5t16.5 -62.5v-4q23 -53 43.5 -113.5t42.5 -138.5l25 -94q12 -47 24.5 -88t20.5 -82q18 -98 18 -127q0 -4 -1 0t-1 0h-4q-2 0 -5 1t-5 1h-6t-6 -8v2 q-27 80 -48.5 158.5t-43.5 166.5q-16 66 -39 134.5t-43 121.5q-23 68 -50.5 145.5t-50.5 170.5v10l-8 -10q-10 -10 -19.5 -21.5t-27.5 -46.5v-10q0 -41 -1 -73t-3 -60q-2 -27 -3 -58.5t-1 -58.5v-141q0 -23 1 -47.5t1 -57.5v-2q2 -20 2 -41.5v-46.5q0 -57 6 -195v-12 q0 -2 -10 -8q-8 0 -21 4l-12 4v92v62.5t-2 44.5q-4 27 -6 88t-2 156v81q0 23 -1 47.5t-1 59.5v37q0 10 1 23.5t1 29.5v74q-14 25 -23.5 39t-15.5 22l-12 15v-11q-25 -92 -50.5 -168.5t-52.5 -148.5q-20 -57 -40.5 -119.5t-41.5 -134.5q-12 -53 -27.5 -98t-31.5 -93l-37 -120 q0 4 -2 6t-4 0v-2q-2 2 -6 2q-14 0 -15 -15v13q-2 2 -2 0zM39 -10v-2q2 2 0 2z" />
<glyph unicode="&#x417;" horiz-adv-x="387" d="M16 150q0 6 11 16v2q4 4 6 8t4 14l10 -18v-4q16 -33 30.5 -62.5t37.5 -52.5q16 -18 32.5 -25.5t32.5 -7.5q20 0 40 17.5t37 47.5t30.5 69t19.5 82q4 43 6 79.5t2 77.5q0 57 -2 99.5t-10 78.5l-6 25v2q-10 29 -18.5 56.5t-20.5 49t-27.5 35t-35.5 13.5h-17q-10 2 -18 3 t-13 1q-16 0 -16 -4q0 6 -2 15t-6 21q2 -2 18 7h19.5t17.5 -2h17q41 0 62.5 46t37.5 105v2l8 25q4 20 7 35.5t4 32t1 38v51.5q0 41 -1 63.5t-5 63.5q-10 88 -43 146.5t-76 58.5q-16 0 -38.5 -5t-45.5 -30q-16 -16 -23 -39.5t-17 -54.5l-17 -39q-4 14 -8 21.5t-8 11.5 q-4 8 -4 10q0 16 9 39t19 37v4q25 57 52.5 66.5t70.5 9.5h10q25 0 43.5 -7t34.5 -28q29 -39 47.5 -80t26.5 -88q8 -37 11 -64.5t3 -66.5q0 -78 -8 -136t-22 -128v2q-10 -37 -14.5 -47t-16.5 -27l-23 -22v-6q-2 -4 -5 -6.5t-5 -6.5v-18q2 -4 5 -6t5 -6v-7l23 -22 q12 -16 16 -27.5t15 -46.5q14 -70 22 -138.5t8 -143.5q0 -82 -14 -154q-8 -49 -26.5 -100.5t-47.5 -90.5q-16 -23 -34.5 -29.5t-43.5 -6.5q-47 0 -82.5 13t-64.5 73q-8 16 -17.5 40.5t-9.5 39.5zM121 795q0 -4 2 -7q-2 3 -2 7z" />
<glyph unicode="&#x418;" horiz-adv-x="524" d="M66 31v65q0 35 1 63.5t3 61.5v12q4 53 6 116t2 177q2 115 2 235v255q2 133 3 244.5t5 214.5q0 4 14 10q23 0 27 -6t6 -23v-6l-12 -688v-8q20 45 47 103t53.5 118.5t53 120t49.5 108.5q2 6 15 32t24 42v10q0 4 2 0t2 -2q18 33 32.5 73t24.5 93q16 39 45 39q14 0 16 -2 q-4 -88 -5 -168t-1 -174v-103v-132t-2 -119q-2 -88 -3 -189.5t-1 -183.5v-168q0 -55 -1 -117.5t-1 -140.5q0 2 -18 2q-16 0 -25 12q-4 4 -5 13.5t-1 33.5q0 18 2 25v4q4 53 6 114.5t2 157.5v234.5t4 218.5v109q0 29 1 56t1 56q0 68 -1 135.5t-3 141.5v34l-289 -653 q-14 -16 -16 -38.5t-2 -45.5q0 -59 -3 -125.5t-7 -148.5v-17q-4 -45 -5 -73.5t-1 -75.5q0 -31 1 -62.5t3 -62.5v-39q-2 -4 -9.5 -6t-29.5 -2q-10 10 -12 39z" />
<glyph unicode="&#x419;" horiz-adv-x="524" d="M66 31v65q0 35 1 63.5t3 61.5v12q4 53 6 116t2 177q2 115 2 235v255q2 133 3 244.5t5 214.5q0 4 14 10q23 0 27 -6t6 -23v-6l-12 -688v-8q20 45 47 103t53.5 118.5t53 120t49.5 108.5q2 6 15 32t24 42v10q0 4 2 0t2 -2q18 33 32.5 73t24.5 93q16 39 45 39q14 0 16 -2 q-4 -88 -5 -168t-1 -174v-103v-132t-2 -119q-2 -88 -3 -189.5t-1 -183.5v-168q0 -55 -1 -117.5t-1 -140.5q0 2 -18 2q-16 0 -25 12q-4 4 -5 13.5t-1 33.5q0 18 2 25v4q4 53 6 114.5t2 157.5v234.5t4 218.5v109q0 29 1 56t1 56q0 68 -1 135.5t-3 141.5v34l-289 -653 q-14 -16 -16 -38.5t-2 -45.5q0 -59 -3 -125.5t-7 -148.5v-17q-4 -45 -5 -73.5t-1 -75.5q0 -31 1 -62.5t3 -62.5v-39q-2 -4 -9.5 -6t-29.5 -2q-10 10 -12 39zM131 1695q0 16 17 17q8 0 13 -8.5t9 -20.5t12.5 -24.5t24.5 -20.5t25.5 -10t25.5 -2q2 0 15.5 -1t31 4t31.5 19.5 t20 44.5q2 25 21 25q12 0 12 -19q0 -47 -33.5 -83.5t-105.5 -36.5q-23 0 -44.5 11t-37.5 28.5t-26.5 38t-10.5 38.5z" />
<glyph unicode="&#x41a;" horiz-adv-x="477" d="M63 1546h19q18 0 22 -16q0 -29 1 -57.5t1 -63.5q0 -55 1.5 -119.5t1.5 -130t1 -128t3 -113.5v-19q63 104 124.5 242.5t118.5 269.5l33 76q12 23 28.5 38t39.5 17q12 -12 12 -22v-9q-18 -16 -40.5 -51t-45.5 -82t-44.5 -100t-41.5 -104q-23 -55 -44.5 -107.5t-47.5 -105.5 v-15q20 -115 45.5 -188.5t52.5 -143.5q20 -51 43 -112.5t39 -124.5q37 -131 63.5 -238.5t26.5 -152.5q-2 2 -18 2q-4 0 -8.5 -4t-4.5 -7v5q-23 80 -45 158.5t-43 166.5q-16 70 -39.5 140.5t-44.5 123.5q-29 74 -55.5 151t-48.5 167v10q-10 -10 -19.5 -29.5t-29.5 -62.5v-6 q0 -23 1 -46.5t1 -45.5q-2 -45 -3 -82t-1 -76v-43q0 -35 1 -62.5t1 -56.5q2 -29 2 -74v-100v-29.5t2 -35.5q2 -29 3 -69t1 -85q0 -2 -10 -8q-12 2 -23.5 4t-13.5 6q2 31 2 50.5v39.5q0 31 -1 61.5t-3 59.5q-2 27 -3 61.5t-2 86t-2 120t-1 162.5q0 31 2 76t-2 78l-2 256 q-2 39 -1 79.5t1 83.5v93v127t-5 114z" />
<glyph unicode="&#x41b;" horiz-adv-x="630" d="M0 2q2 12 9 28.5t24 16.5q12 0 11 -1t3 -1q8 -6 16 -6q45 0 57.5 36t22.5 91q4 16 6.5 29.5t6.5 29.5q8 29 13 76t9 100v2q0 10 1 16.5t1 14.5q0 55 2 102.5t4 94.5q4 53 5.5 112.5t1.5 133.5v51q-2 16 -2.5 38.5t-0.5 51.5v133v8t3 21v2q0 23 1 44t1 44q0 8 1 14t1 14 v23v40t-2 32q0 10 -1 19t-1 20q0 51 14 51h8q0 -4 8 -4l41 -9q20 -6 43 -6h19.5t23.5 2t24.5 3t22.5 1h45h32t32 3l16 2l23 4q2 -20 2 -29.5v-32.5v-28.5t-2 -57.5v-74q0 -25 -1 -54t-1 -64v-111v-72.5t-4 -60.5v-2q0 -20 -1 -36.5t-1 -31.5q0 -29 6 -49q2 -12 2 -21.5 v-17.5q0 -25 -1 -47t-1 -45q-4 -23 -4 -46.5v-51.5v-81t4 -77q0 -33 1 -63.5t1 -61.5v-45q0 -31 -3 -72t-8.5 -77.5t-12.5 -63t-15 -26.5q-16 0 -20.5 19t-4.5 30q0 20 13 32v11q4 41 5 91t1 101q0 78 -2 165t-6 185l2 88q4 100 5 188.5t1 186.5v353h-21h-74.5t-62.5 4h-106 v-50q0 -8 1 -14t1 -14q0 -31 -1 -57.5t-4 -49.5q-2 -14 -2 -26.5v-22.5v-39q0 -25 1 -55.5t4 -63.5v-2q2 -29 2 -55.5v-44.5v-51q0 -29 -2.5 -61.5t-4.5 -67.5q-2 -29 -3 -55.5t-1 -49.5v-37l-6 -43v-159l-4 -21q-6 -199 -44 -304t-112 -105h-18q-14 0 -28.5 2t-14.5 8v6z M215 1483v4v-4z" />
<glyph unicode="&#x41c;" horiz-adv-x="534" d="M53 1376q0 10 1 23.5t1 27.5q0 18 -1 24.5t1 10.5q2 0 5 5.5t8 9.5q4 4 6 7t16 7h12q10 0 19.5 -12.5t17.5 -51.5l27 -133v-2q10 -31 16 -59.5t11 -50.5v-2q0 -2 1 -6.5t3 -16.5t7 -36.5t13 -67.5l62 -273v-2l2 6v2l12 72q25 98 39 176t24 133q2 6 2 23q14 106 43 172 q10 33 16.5 60.5t6.5 50.5q2 20 12 20q8 0 21.5 -3t17.5 -7l8 -277q0 -18 -1 -35.5t-1 -35.5v-72q-2 -35 -3 -72t-1 -73v-39q0 -10 1 -21.5t1 -26.5v-102q0 -29 1 -57.5t1 -63.5v-278q0 -160 6 -258q2 -12 3.5 -25.5t1.5 -21.5q0 -16 -1.5 -22.5t-1.5 -8.5q-2 -2 -7 -5 t-11 -3q-8 0 -17.5 3t-9.5 5l-12 471v401q0 20 -1 42t-1 44v72q0 18 1 38.5t1 43.5l4 231q-18 -76 -36.5 -158.5t-28.5 -148.5q-6 -23 -12.5 -60.5t-12.5 -78.5q-10 -63 -23.5 -121.5t-37.5 -99.5q-20 14 -33.5 53t-24.5 92v2q-27 98 -45 176t-35 164l-16 78q-6 33 -13 81 t-18 89v-4q4 -141 6.5 -271.5t2.5 -226.5v-434q0 -43 -1.5 -79t-3.5 -75v-16q-2 -35 -2 -69.5v-77.5l7 -129v-9q0 -2 1 -4t1 -4q0 -8 -11 -12q8 0 -8 -4q-6 0 -14 3t-10 7q-2 43 -3.5 90t-1.5 105v108t3 90q2 39 2 80v88v328v107.5t-2 97.5q-2 143 -13 282z" />
<glyph unicode="&#x41d;" horiz-adv-x="444" d="M74 1051q0 49 1 105t3 81v244q0 2 18 2q16 0 23 -13v-313v-118.5t-2 -123.5v-10v-41t4 -30v-17q12 0 25.5 1t27.5 1q27 2 59.5 3t57.5 1q14 0 23.5 1t23.5 1v13q4 100 5 187t1 165t-2 142.5t-4 92.5v25q0 10 4 19.5t16 9.5h13q10 -55 14 -113.5t4 -130.5v-143 q0 -45 -1 -91.5t-1 -95.5v-22v-43.5t4 -38.5v-84q0 -23 1 -45.5t1 -50.5q2 -35 2 -86.5v-110.5v-113v-105t2 -75v-10q0 -27 1 -44.5t1 -27.5v-16q-2 -20 -4 -31.5t-14 -11.5q-25 0 -31 6v379q0 98 -3 186t-7 191v32h-92q-4 0 -39 1t-68 -5q-10 -2 -12 -2t-6 -16v-19 q4 -59 6 -105t2 -112v-45q0 -35 -1 -85t-1 -124v-82t2 -94v-33.5t-2 -33.5l-6 -52q-2 -4 -9.5 -5t-11.5 -1q-16 0 -16 49q0 10 1 20.5t1 20.5q2 14 2 32v40v133.5t-2 102.5q0 41 -1 77.5t-1 81.5v50q0 78 -2 139t-6 119q-2 47 -3 103t-1 112z" />
<glyph unicode="&#x41e;" horiz-adv-x="671" d="M29 750q6 184 27.5 332.5t62.5 258.5q43 104 114 140q25 12 53.5 17t53.5 5q39 0 73.5 -17.5t69.5 -35.5q35 -29 68 -77t45 -111q16 -76 25.5 -136.5t13.5 -107.5q4 -59 6 -126t2 -130v-75t4 -79q0 -115 -18.5 -224.5t-55.5 -209.5v-2q-29 -61 -59.5 -105t-87.5 -85 q-45 -23 -86 -23q-61 0 -111.5 41t-81.5 88q-35 61 -58 138t-36.5 162t-18.5 177t-5 185zM70 680q0 -55 6 -119.5t14 -132.5v-2q8 -88 28.5 -160.5t61.5 -142.5q23 -37 41.5 -57.5t38.5 -32.5q23 -12 42.5 -21.5t39.5 -5.5l35 4q68 23 105.5 89.5t72.5 166.5 q10 33 22.5 87.5t20.5 144.5q4 31 4 61.5v67.5v57v98q0 35 1 70t-3 68l-4 131l-8 59q-18 109 -53 195.5t-84 119.5q-27 20 -59 30.5t-60 10.5q-12 0 -28.5 -2t-35.5 -10q-82 -31 -119.5 -135.5t-54.5 -274.5q-6 -49 -12 -108t-8 -109q-2 -33 -1 -57.5t-3 -56.5v-33z" />
<glyph unicode="&#x41f;" horiz-adv-x="514" d="M74 350.5v50.5q0 61 2 110.5t4 102.5q4 57 5 121t1 142v305l6 88v51v40t-4 32q0 10 -1 19t-1 20q0 51 18 51q8 0 9 2v-6h8l41 -9q25 -6 41 -6h19t26 2q12 2 23.5 3t19.5 1h49h31.5t31.5 3l15 2l20 4q0 -8 1 -14.5t1 -18.5q0 -8 1 -15.5t1 -13.5v-14q0 -10 -1 -27.5 t-1 -44.5v-12q-2 -31 -2 -76v-104v-111v-72.5t-2 -60.5v-2q0 -20 -1 -36.5t-1 -31.5v-26.5t2 -22.5q0 -12 1 -20t1 -19q0 -25 -1 -47t-1 -45q-2 -23 -2 -46.5v-51.5q0 -41 1 -81t3 -77q2 -29 2 -62.5v-62.5v-45q0 -31 -3 -72t-8 -77.5t-11 -63t-15 -26.5q-16 0 -21 19t-5 30 q0 18 12 34v9q4 41 5 91t1 101q0 78 -1 166t-7 186l2 82q4 86 5 162t1 154v416h-20h-76t-63 4h-105v-23q2 -14 2 -27.5v-27.5v-57.5t-2 -49.5v-2q0 -14 -1 -25.5t-1 -21.5v-39v-55.5t2 -63.5q0 -29 1 -56.5t1 -45.5v-51q0 -27 -1 -57.5t-3 -61.5v-2q-2 -35 -3 -66.5 t-1 -60.5l-8 -68v-98q0 -16 1 -30.5t1 -28.5v-432q-6 -12 -23 -13q-18 0 -18 2v244q0 12 -1 32.5t-2 47.5t-1 53.5z" />
<glyph unicode="&#x420;" horiz-adv-x="421" d="M57 987q0 51 1 100.5t1 96.5v145q0 18 -1 39t-1 37v55q2 6 16.5 7t26.5 1h19q16 0 42.5 5.5t49.5 5.5q12 0 21.5 -1t19.5 -3q33 -8 60.5 -26.5t46 -55.5t28.5 -96.5t10 -149.5v-23q0 -12 -1 -42.5t-1 -112.5v-60q0 -102 -20.5 -169.5t-51 -108.5t-65.5 -57.5t-65 -16.5 q-25 0 -84 16v-288q2 -23 2 -45.5v-44.5v-95l-2 -96l-9 -8q-10 0 -21 5t-11 17l-5 289q0 29 -2 50.5t-2 43.5q0 10 1 18.5t1 18.5v92q0 84 -2 200t-2 257zM102 911q-2 -55 1 -109t6 -106l2 -67q41 -27 73 -27q55 0 87 33t49.5 84t22.5 114.5t5 122.5v17v33.5t1 38t2 29.5 l1 11v15q0 170 -24.5 253t-108.5 83q-10 0 -23.5 -2t-25.5 -2l-68 -9v-512z" />
<glyph unicode="&#x421;" d="M37 895.5v32.5q0 47 1 96t3 98q2 35 3 66t1 63q6 229 141 252h15q18 0 34.5 -3t30.5 -13q18 -16 37 -47t33 -69t23.5 -79t9.5 -78q0 -16 -3.5 -26.5t-9.5 -26.5h-6q-14 0 -16 8l-17 76q-8 39 -17 78t-22.5 70.5t-33 51t-45.5 19.5q-27 0 -63 -43t-46 -121v-2 q0 -16 -1 -31.5t-1 -31.5q-2 -29 -2 -55.5v-53.5q0 -16 -1 -32.5t-1 -34.5v-178q0 -57 -1 -114.5t-1 -115.5q0 -84 2 -166t6 -159q2 -45 4 -85t10 -83q12 -78 39 -108t56 -30t64.5 29t51.5 88q6 14 8.5 41t4.5 55v3q2 27 4 45t10 20q20 0 24.5 -20.5t4.5 -42.5 q0 -117 -46 -189t-122 -72q-37 0 -67 28t-49 78t-30.5 117.5t-11.5 147.5v110.5t-2 110.5l-4 293v2q-2 16 -2 31.5z" />
<glyph unicode="&#x422;" horiz-adv-x="370" d="M-10 1470q2 12 39 13q16 0 33.5 -1t39.5 -1h113.5t108.5 6q16 0 37.5 -2t23.5 -12l2 -23v-8l-94 4q-23 2 -44.5 0t-43.5 2v-16q-4 -61 -4 -119v-119q0 -166 1 -334t11 -334v-450q0 -68 -25 -92h-2q-2 0 -3 1t-5 1l-10 18q4 49 3 102.5t-1 135.5l-2 125q0 113 -5 236.5 t-3 238.5v215q0 41 1 91t1 87v143v36t-4 32h-58l-71 -4h-19q-10 0 -14 5t-6 23z" />
<glyph unicode="&#x423;" horiz-adv-x="401" d="M-2 -6q0 2 1 1t1 1q4 14 12 28.5t23 6.5q0 -2 2 -2h4q2 -2 6 -2q2 -4 5 -7.5t3 -5.5q23 -8 40.5 -1t30.5 25.5t24.5 43t21.5 49.5v2q4 10 8 18.5t8 18.5q8 20 11.5 53t7.5 80q4 29 7 59.5t5 59.5v6q-4 14 -5 27.5t-3 25.5q0 4 -2 4t-2 2l-2 19v2q-4 39 -9.5 76t-11.5 73 l-10 66q-10 78 -21.5 151.5t-25.5 145.5l-27 166l-12 78q-8 45 -14 88t-11 92v18q0 12 15 17q25 0 26 -9l13 -71l8 -49v-2l8 -54l33 -219q8 -59 17.5 -119.5t19.5 -119.5q12 -59 21 -130t18 -133q6 47 12 107.5t14 110.5v2q12 74 22.5 147.5t16.5 146.5l12 127l15 140 q4 47 9 73.5t15 57.5q0 -8 11 -8q29 0 28 -7q0 -2 -1 -2t-1 -2l-80 -663v-12q-4 -39 -9 -89.5t-13 -107.5l-27 -203q-10 -94 -21.5 -167.5t-29.5 -125.5q-31 -86 -77 -123.5t-95 -15.5v2q-2 0 -6 3t-6 3q-12 4 -22.5 11.5t-10.5 13.5v2z" />
<glyph unicode="&#x424;" horiz-adv-x="608" d="M53 815q2 74 8.5 129t17.5 101.5t24.5 86t31.5 87.5q16 41 42 71.5t52 46.5q29 16 64 19v35q-2 23 -3 44t-1 42v31.5t2 29.5q2 12 14 12q6 0 15.5 -3t13.5 -9v6q4 -45 6 -86t2 -82v-22q25 -6 49.5 -15.5t48.5 -25.5q59 -45 82 -154q12 -70 20.5 -120t12.5 -89l6 -59v-2 q4 -47 6 -85t6 -110q0 -94 -15 -186t-46 -178v-2q-10 -25 -26.5 -51.5t-57.5 -73.5l-49 -41q-8 -4 -16.5 -7t-16.5 -8v-18q0 -29 -1 -52.5t-3 -49.5v-19q0 -8 -8 -16v-4h-31v4q-6 8 -6 16v144q-18 0 -23 2q-41 14 -70.5 41.5t-51.5 58.5q-29 53 -48.5 118.5t-31 137.5 t-15.5 149.5t-4 155.5zM94 756q0 -43 4 -89t11 -100q0 -6 1 -12t1 -12v-2q10 -72 25.5 -125.5t45.5 -110.5q20 -31 34.5 -53.5t31.5 -28.5q16 -8 28.5 -11t22.5 -5v770q0 25 -1 47.5t-1 46.5v2q-2 25 -2 49.5v53.5v30.5t2 34.5v66l-23 -9q-61 -27 -102 -111.5t-57 -221.5 l-11 -78q-4 -23 -5 -43.5t-5 -61.5v-26zM336 692q0 -68 1 -133t5 -131q0 -27 1 -51.5t1 -48.5v-49.5t2 -49.5v-18q31 4 50.5 27.5t47.5 74.5l21 37v2l29 68v2q8 25 15 67.5t15 114.5q4 29 4 56.5v58.5v38t-2 29.5t-4 32t-4 43.5q0 4 -1 5t-1 5v2l-8 76l-6 51 q-16 102 -37 180.5t-64 106.5v6q-27 0 -47 9v2q-2 0 -5 2t-5 2v-125q0 -12 -1 -24.5t-1 -26.5v-152q0 -27 -1 -54.5t-1 -56.5q0 -25 -2 -45t-2 -43v-90z" />
<glyph unicode="&#x425;" horiz-adv-x="385" d="M-10 -20h2h-2zM-8 -20q0 4 1 7t1 9v2q2 16 5 29.5t5 29.5l6 37l13 60q10 59 21 104t24 90l26 113q4 16 11.5 40.5t15.5 55.5q16 47 27.5 95t13.5 71v6l-43 180q-23 104 -47.5 214t-46.5 231q-6 29 -11.5 55.5t-13.5 54.5q2 12 25 13h8t6 -2l41 -179q25 -111 50.5 -226.5 t49.5 -233.5q6 -35 10 -45v4q39 168 64 276.5t39 178t22.5 110.5t12.5 74q4 29 28 41l13 4q10 0 10 -4v-15l-43 -188l-37 -168l-33 -148q-31 -133 -47 -229v-8q10 -49 24.5 -108.5t35.5 -135.5q23 -78 46 -171t50 -200v-2q8 -29 12 -53t8 -47v-2q-4 -4 -18 -4q-10 0 -19 4 l-67 279q-4 14 -17.5 62t-30 104.5t-31.5 107.5t-26 72v-4l-14 -50q-16 -59 -37.5 -130.5t-44.5 -170.5l-63 -290q-2 2 -13.5 2h-13.5q-6 0 -8 -2zM379 1460q2 2 1 3t1 5v-12q-2 2 -2 4zM395 2l2 -2q-2 0 -2 2z" />
<glyph unicode="&#x426;" horiz-adv-x="575" d="M74 1051q0 49 1 105t3 81v244q0 2 16 2q18 0 25 -13v-432q0 -16 -1 -30.5t-1 -30.5v-96l8 -70v-66q2 -39 3 -106.5t1 -163.5v-223q0 -10 1 -20.5t1 -24.5v-2q2 -23 2 -49.5v-59.5v-26.5t-2 -26.5v-25h105q23 2 63.5 3.5t75.5 1.5h18v22l-8 791q6 100 7 188t1 166 q0 51 -1 101t-5 91v9q-10 16 -10 32t6 34t18 18q8 0 15.5 -27t12.5 -63.5t8 -77.5t3 -72v-45v-120.5t-2 -135.5q-2 -72 -3 -156t-1 -149v-111q0 -63 1 -159.5t5 -223.5v-12q0 -23 1 -36t1 -24v-36q-4 -4 13 -4q10 0 15 -1.5t28 -11.5v-2l6 6q2 10 2 -4q0 -8 1 -14t1 -12v-4 q2 -10 2 -19.5v-23.5q0 -25 -1 -39.5t-1 -22.5v-14v-13.5t2 -21.5v-41t4 -29q-2 -23 -22 -43q-16 0 -20.5 24.5t-4.5 53.5q0 16 1 32.5t1 31.5l-6 127q-16 0 -32.5 1t-33.5 1l-276 -9h-8v-6h-4q-2 0 -3.5 1t-3.5 1q-16 0 -16 49q0 10 1 20.5t1 20.5q2 14 2 32v40v49l-4 90 v31z" />
<glyph unicode="&#x427;" horiz-adv-x="417" d="M53 1436q0 31 21 30q8 0 15 -3t11 -7q6 -25 6 -84v-90q0 -51 -1 -90t-1 -78v-168v-99t2 -99q2 -55 7.5 -105.5t16.5 -87.5t29.5 -58.5t45.5 -21.5q29 0 51.5 40t40.5 97q16 61 20.5 118.5t4.5 135.5v191q0 31 -1.5 52t-1.5 42v2q-2 20 -2 39.5v54.5v31q0 8 1 16.5t1 18.5 q0 4 -1 14t-1 25v2q-2 23 -2 48v50q0 16 2 28.5t15 12.5h10q12 -10 15 -23.5t8 -29.5q0 -10 1 -16.5t1 -14.5q4 -125 5 -232.5t1 -234.5v-133v-86t-2 -86q0 -16 -1 -30.5t-1 -31.5v-61v-76.5t2 -44.5q0 -18 1 -40.5t1 -73.5q0 -16 -1 -37t-1 -43v-107v-37.5t-4 -60.5 q-4 -33 -14.5 -30t-14.5 24v2q-4 10 -6 26.5t-4 44.5v82q0 20 1 43t1 52q0 88 -1 156.5t-5 144.5v6q-20 -53 -51 -85t-66 -32q-41 0 -82 48t-53 130q-10 53 -12.5 94t-2.5 97v290q0 82 -1 116t-1 54v127q0 12 -1 25.5t-1 26.5z" />
<glyph unicode="&#x428;" horiz-adv-x="645" d="M61 1235q0 31 3.5 72t7.5 77.5t11 63.5t15 27q16 0 21.5 -20.5t5.5 -31.5q0 -18 -14 -30v-11q-4 -29 -4.5 -62.5t-0.5 -72.5q0 -90 1.5 -191.5t7.5 -219.5l-2 -84v-13q-2 -35 -3 -66.5t-1 -62.5q0 -29 1 -57.5t1 -56.5v-2q2 -29 2 -57.5v-59.5v-354h49q10 0 18 -1.5 t17 -1.5h16q0 -2 6 -2h39q4 0 10 2q2 0 6.5 1.5t6.5 1.5q14 0 10 4v36q0 10 1 23.5t1 36.5v10q2 29 2 75v105v113v34t2 11v10q0 4 1 10.5t1 30.5v26.5t-2 22.5q0 10 -1 19.5t-1 19.5q0 53 1 102.5t1 96.5q2 47 2 96v107v81t-2 76q0 33 -1 64t-1 63v43q0 27 -1 41.5t-1 24.5 v18v11.5t3 19.5t9 19.5t19 9.5q18 0 18 -2v-244q2 -25 3 -81t1 -105q0 -59 -1 -110.5t-3 -104.5q-4 -53 -5 -120t-1 -138v-52q2 -16 2 -39.5v-50.5v-133v-8t-2 -21v-2q0 -23 -1 -45t-1 -45q0 -8 -1 -14t-1 -12v-23q0 -10 1 -19.5t1 -17.5v-24l2 -27v-22h10h34.5t37.5 -3 q10 0 22.5 -1t16.5 -1l63 2v23q0 6 -1 12t-1 15v28q0 33 1 58.5t3 48.5q2 14 2 25.5v21.5v41q0 23 -1 54.5t-3 64.5v2q-2 29 -2 55.5v44.5v51v61.5t2 63.5q0 23 1 55.5t1 51.5v14l8 70v34q0 12 -1 24.5t-1 25.5v505q6 12 23 13q18 0 18 -2v-244q2 -25 3 -81t1 -105 q0 -59 -1 -110.5t-3 -104.5t-3 -120t-1 -138v-52q2 -16 2 -39.5v-50.5v-133v-8t-2 -21v-2q0 -23 -1 -44t-1 -42q0 -10 -2 -16t-2 -12v-23v-40t4 -32q0 -10 1 -20t1 -20q0 -51 -16 -52h-8q0 4 -9 4q-33 0 -47 7v2q-23 6 -36 6h-7.5t-13.5 -4q-4 -2 -7 -2h-20h-39h-253l-37 6 q0 4 -1 5t-1 17v2q-2 29 -2 57.5v51.5v10q2 29 2 75v105v113q0 72 -1 120t-3 85v2q-2 23 -2.5 42t-0.5 42q0 25 1.5 46t1.5 44q2 23 2 46.5v51.5v83t-2 75q0 35 -1.5 65.5t-1.5 61.5zM541 -29v-4q-2 2 0 4z" />
<glyph unicode="&#x429;" horiz-adv-x="647" d="M68 1051v105t2 81v242q4 4 18 4q16 0 21 -10v-592l6 -47v-37q0 -23 1 -50.5t3 -58.5t4 -62.5t2 -60.5v-51v-45t-2 -55v-2q-2 -33 -3 -65t-1 -54v-41v-21.5t2 -25.5q2 -23 3 -49.5t1 -59.5q0 -8 -1 -15t-1 -13v-50h63q6 0 14.5 1t18.5 1q16 2 39 3.5t41 -0.5h8v22 q0 6 1 13.5t1 13.5v24q0 8 1 17.5t1 19.5v23q0 6 -1 12t-1 14l-2 90v2q-2 14 -2 20.5v8.5v133v50.5t2 39.5v52q0 78 -1 139t-5 119q-2 53 -4 104t-2 111v105t2 81v242q4 4 18 4q12 0 18.5 -9.5t9.5 -19.5t3 -19.5v-11.5v-18q0 -10 -1 -24.5t-1 -41.5v-43v-63.5t-2 -63.5 q-2 -35 -3 -76.5t-1 -80.5q0 -57 2 -106.5t4 -96.5t3 -96t1 -103q0 -10 -1 -19t-1 -20q-2 -10 -2 -22v-27q0 -25 1 -31t1 -10v-10q2 -4 2 -11v-34v-113v-105t2 -75v-10q0 -23 1 -36t1 -24v-36q-4 -4 13 -4q2 0 6 -1.5t6 -1.5q4 -2 8 -2h39q6 0 6 2h19q6 0 14 1.5t18 1.5h49 v417q0 78 -1 153t-5 159l-2 84q6 100 7 188t1 166q0 51 -1 101t-5 91v9q-10 16 -10 32q0 10 4 31t21 21q8 0 14 -27t11 -63.5t8 -77.5t3 -72v-45v-61.5t-2 -65.5q-2 -33 -3 -75t-1 -83v-52.5t2 -45.5q0 -23 1 -44.5t1 -45.5q0 -10 -1 -20.5t-1 -20.5q-2 -10 -2 -21.5v-25.5 q0 -16 1 -32.5t1 -37.5v-2q2 -29 2 -61.5v-69.5v-113v-105t2 -75v-10q0 -23 1.5 -36t1.5 -24v-40h16q6 0 14 -2.5t25 -10.5v-2l6 6q2 10 2 -4q0 -8 1 -14t1 -12v-4q2 -10 2 -19.5v-23.5q0 -25 -1 -39.5t-1 -22.5v-14v-22.5t1 -30t2 -30t3 -20.5q-2 -25 -22 -45 q-16 0 -19.5 24.5t-3.5 53.5q0 20 1 37.5t1 32.5v35q0 18 4 26q-6 0 -7 3t-3 16v41q-16 0 -32.5 1t-32.5 1h-254h-39q-23 0 -25 2q-10 4 -14 4h-8q-16 0 -39 -8q-8 -4 -16.5 -5.5t-28.5 -1.5l-9 -2v-2h-8q-14 0 -14 49q0 10 1 20.5t1 20.5q2 14 2 32v40v23q0 6 -1 12t-1 14 l-2 90v2q-2 14 -2 20.5v8.5v133v50.5t2 39.5v52q0 78 -1 139t-5 119q-2 53 -4 104t-2 111zM102 -29v-4v4z" />
<glyph unicode="&#x42a;" horiz-adv-x="536" d="M-35 1468l6 5v2q0 -4 -6 -7zM-29 1462v11l11 6q2 0 6 1t6 1v2q6 2 28.5 3t100.5 -7q4 0 14 -1t15 -1h2l2 -103v-473q55 16 84 17q31 0 65.5 -14.5t65 -54.5t51 -108.5t20.5 -175.5v-59q0 -84 1 -125t1 -64v-30q0 -92 -16 -149.5t-42 -89.5t-59.5 -42t-68.5 -10 q-14 0 -27.5 2t-27.5 4q-10 2 -19.5 3t-19.5 1h-17q-16 0 -28.5 1t-14.5 7v277q0 47 -1 96t-1 100v156t2 135v39t1 46.5t1 45v35.5v172q0 16 1.5 33.5t1.5 36.5v248q-29 0 -31 -2q-4 8 -7 9t-12 1h-17t-19 -2l-50 4q0 10 -1 10t-1 8zM78 1432h2h-2zM147 51l76 -8 q12 -2 22.5 -3t20.5 -1q78 0 104.5 66.5t26.5 220.5q0 16 -1 33.5t-1 35.5v2q-2 25 -2 49.5v55.5v16q0 78 -6 156t-41 123q-27 35 -61.5 51t-53.5 16q-33 0 -73 -26v-19q0 -10 -1 -20.5t-1 -20.5q-4 -51 -5 -104t-1 -111v-31q0 -61 -1.5 -112t-1.5 -92v-277z" />
<glyph unicode="&#x42b;" horiz-adv-x="602" d="M57 14v56q0 16 1 36.5t1 38.5v72q0 23 -1 46.5t-1 45.5v273q4 115 4 203.5v158.5v62v82.5t2 97.5q0 27 1.5 62.5t1.5 71.5t1 70.5t1 63.5q2 25 41 25l2 -2l4 -47v-56q0 -49 -2 -94t-7 -90v-289q29 8 49.5 12.5t37.5 4.5q49 0 82.5 -17.5t68.5 -79.5l12 -26 q37 -92 37 -230v-59q0 -84 1 -125t1 -64v-30q0 -197 -67 -252q-35 -25 -78 -35q-10 -2 -19.5 -3t-19.5 -1t-20.5 1t-20.5 3q-31 6 -51 6h-21q-12 0 -25.5 1t-15.5 7zM100 51l68 -8q4 0 6 -1t6 -1q12 -2 21.5 -2h17.5q25 0 37 4t23 12q74 47 73 271v28.5t-2 28.5 q-2 27 -2 55.5v63.5v16q0 53 -1 96t-11 91q-14 61 -35 92v2l-8 6v4q-10 4 -10 2v6q-23 16 -46.5 28.5t-43.5 16.5q-2 0 -3.5 1t-5.5 1q-29 0 -73 -26v-19q0 -10 -2.5 -21.5t-2.5 -21.5q-6 -102 -6 -213v-512zM489 1401v31.5t3 29.5q0 6 12 6q8 0 17 -3t14 -9v8q4 -92 5 -175 t1 -167v-96q-2 -49 -3 -98t-1 -105q0 -23 -1 -43t-1 -41v-82q0 -66 1 -128t3 -126q2 -41 3 -92t1 -96q0 -25 1 -48.5t1 -45.5q0 -29 -1 -54.5t-5 -58.5v-12q-6 -8 -23 -8h-12v4q-6 8 -6 14v1010q0 23 -1 47t-1 51v86q0 29 -1 57.5t-3 55.5q-2 20 -2.5 44.5t-0.5 43.5z" />
<glyph unicode="&#x42c;" horiz-adv-x="421" d="M57 14v56q0 16 1 36.5t1 38.5v72q0 23 -1 46.5t-1 45.5v273q4 115 4 203.5v158.5v62v82.5t2 97.5q0 27 1.5 62.5t1.5 71.5t1 70.5t1 63.5q2 14 14 19.5t29 5.5l2 -2l2 -47v-56q0 -96 -6 -184v-289q59 16 84 17q51 0 84.5 -17.5t66.5 -79.5l12 -26q20 -47 29.5 -105.5 t9.5 -124.5v-59q0 -84 1 -125t1 -64v-30q0 -197 -67 -252q-16 -12 -38 -21.5t-40 -13.5q-10 -2 -19.5 -3t-21.5 -1q-10 0 -19.5 1t-19.5 3q-31 6 -53 6h-19q-12 0 -26.5 1t-16.5 7zM102 51l68 -8q4 0 6 -1t6 -1q10 -2 19.5 -2h17.5q27 0 38 4t22 12q41 25 57 92.5t16 178.5 v28.5t-2 28.5q-2 27 -2 55.5v63.5v16q0 53 -1 96t-11 91q-12 59 -33 92v2l-10 6v4q-10 4 -10 2v6q-23 16 -46.5 28.5t-43.5 16.5q-2 0 -3.5 1t-3.5 1q-33 0 -73 -26v-19q0 -10 -2 -21.5t-2 -21.5q-6 -102 -7 -213v-512z" />
<glyph unicode="&#x42d;" horiz-adv-x="432" d="M35 1214q0 29 6 59t16 54v2q47 174 152 174q49 0 82 -32.5t51 -93t25.5 -147.5t7.5 -194q0 -29 -1 -57.5t-1 -65.5q-2 -66 -2 -162v-259v-144q0 -80 -11.5 -147.5t-33 -117.5t-52 -78t-67.5 -28q-72 0 -119 69t-47 192q0 23 4 43t27 20q2 0 3 -14.5t3 -30.5 q4 -29 6 -61.5t8 -49.5q6 -25 20.5 -47t32 -39.5t36 -28t32.5 -10.5q70 0 91.5 105.5t21.5 290.5q0 27 -1 53.5t-1 52.5v109v38.5t2 41.5v22q-35 0 -52.5 1t-29.5 1h-23h-13h-14.5t-24.5 -1t-40 -3q-35 0 -55 6v-14q-4 10 -6 18.5t-2 16.5q0 4 1 8t3 10q16 -4 62 -6t106 -2 h88v23q2 35 2 70.5v70.5q0 12 -1 21.5t-1 19.5v88v58.5t-2 76.5l-5 64v2q0 16 -7 50t-20 67.5t-32.5 59t-46.5 25.5q-31 0 -52.5 -22.5t-36.5 -57t-24.5 -75.5t-15.5 -78q-4 -29 -10 -49.5t-21 -20.5q-10 0 -14 19.5t-4 33.5z" />
<glyph unicode="&#x42e;" horiz-adv-x="851" d="M55 1357.5v43.5q0 23 2 45t13 22q8 0 17 -3t13 -9q6 -92 7.5 -171t1.5 -163q0 -43 -1.5 -85t-1.5 -89q-4 -51 -4 -102v-109v-20q23 -2 31 -2h17h15t36 4v31q12 360 98 585q39 98 97.5 133t115.5 35q35 0 70.5 -14t76.5 -39q70 -55 99 -188q18 -90 28.5 -162t15.5 -136.5 t8 -125t5 -127.5v-50.5t2 -54.5q0 -72 -8 -150.5t-25.5 -153.5t-43 -137.5t-60.5 -98.5v-9l-31 -34l-53 -41q-41 -23 -84 -23q-90 0 -147.5 66.5t-93 170t-51 227.5t-17.5 239v20q-8 2 -29.5 2h-32.5l-41 -6v-21q0 -80 3 -153.5t6 -147.5q2 -53 3 -115.5t1 -119.5v-12v-39 t-3.5 -39.5t-9.5 -30.5t-18 -12q-6 0 -12.5 4t-6.5 14v1010q0 23 -1 47t-1 51v86q0 29 -1 57.5t-3 55.5q-2 20 -2 44.5zM244 680q0 -43 4 -109.5t14 -140.5t28.5 -147.5t48.5 -132t72 -95.5t99 -37q59 0 90 35t68 94q4 8 16 25l14 18v7q8 14 20.5 43.5t25 81t20.5 128 t8 185.5q0 59 -4 129t-12 143l-11 115l-8 59q-8 57 -18 111.5t-24.5 100.5t-33 81t-45.5 53v5q-25 0 -49 10v2q-12 4 -24.5 7t-24.5 3q-82 0 -130 -55.5t-75.5 -154.5t-42 -235.5t-26.5 -295.5v-33zM680 35v22l8 11v-27z" />
<glyph unicode="&#x42f;" horiz-adv-x="444" d="M45 2q4 -6 21 -6q12 0 29.5 49t35 111.5t30.5 123t19 85.5l58 231q8 -4 28 -4q31 0 95 12l-6 -354q-2 -55 -1 -101.5t-4 -93.5v-14q0 -41 7 -49q14 0 27.5 1t15.5 5v295q0 31 1 59.5t1 57.5v2q4 47 2 107.5t4 109.5v157q0 43 -1 85t-1 85v166v87t2 85l2 146q-2 41 -23 41 q-20 0 -36.5 -2t-47.5 -2h-14t-43 -4q-49 -12 -73 -29.5t-40 -50.5q-14 -35 -23 -70t-14 -63l-6 -37q-6 -37 -5 -81t-1 -128v-57.5t2 -82.5v-12q0 -33 6.5 -71.5t18.5 -75.5t29.5 -63.5t37.5 -35.5q12 -4 13 -20q0 -14 -11 -55q-18 -78 -33.5 -135.5t-35.5 -133.5v-2 q-18 -66 -32.5 -118t-31.5 -123v-9q0 -4 -1 -5t-1 -5v-8zM127 958v89.5t1 81t2 63.5t3 39q18 150 74 176l43 23q10 0 28.5 4t39.5 4q33 0 47 -15v-26q0 -25 -2 -44.5t0 -41.5q0 -29 1 -58.5t1 -58.5v-107q0 -31 -1 -60.5t-1 -59.5l-4 -181v-133l-33 -8q-10 -4 -33 -6h-27 q-43 0 -70.5 26.5t-43 71.5t-20.5 102.5t-5 118.5z" />
<glyph unicode="&#x430;" horiz-adv-x="344" d="M29 207q0 123 35.5 205t130.5 116q2 0 11 1t19.5 7.5t18.5 22.5t8 47v172q0 2 -1 4t-1 6v11q0 33 -4 73.5t-11.5 75.5t-18.5 58.5t-28 23.5q-8 0 -20 -9t-24.5 -22.5t-25 -31t-18.5 -31.5q-8 -14 -16 -26.5t-21 -12.5q-14 0 -14 27q0 37 16.5 66.5t39 50t45 30.5t36.5 10 q33 0 55.5 -29.5t35 -79.5t17.5 -118t5 -143q0 -47 -1 -103.5t-1 -107.5v-127q0 -47 3 -109.5t3 -116.5q0 -35 -3 -66.5t-17.5 -56t-43 -39t-79.5 -14.5h-10q-29 6 -51.5 29t-38 55.5t-23.5 72.5t-8 79zM76 213q0 -29 3 -59.5t13 -49.5v-2q27 -43 37 -62.5t41 -19.5h12 q6 0 17.5 4.5t29.5 14.5q18 14 23.5 52t5.5 83q0 20 -1 57t-2 76t-2 71t-1 40v67q-41 0 -84 -23.5t-72 -94.5v-2q-10 -31 -15 -70t-5 -82z" />
<glyph unicode="&#x431;" horiz-adv-x="417" d="M47 641v193q0 39 1 99t6 128.5t16.5 138.5t31 125t49 90t74.5 35q29 0 45 -8v4h2q20 -20 37 -21q18 0 30.5 22.5t22.5 47.5q4 10 7.5 16.5t19.5 6.5q6 0 12.5 -1t6.5 -6q0 -37 -9.5 -62.5t-24 -42.5t-28.5 -25.5t-27 -8.5q-37 0 -65 27v4q-10 -2 -27 -2q-33 0 -56.5 -32 t-37.5 -84t-22.5 -119.5t-11.5 -139.5t-4 -142.5t-1 -127.5v-127q27 82 67 106.5t99 24.5q141 -37 141 -332q0 -63 -9 -142t-29.5 -148.5t-50 -121t-70.5 -59.5q-68 8 -106 69.5t-58.5 155.5t-25.5 213t-5 246zM106 326q0 -27 2.5 -50.5t6.5 -48.5q6 -35 15 -70.5 t24.5 -65.5t36 -49t45.5 -19q31 0 54 41.5t38.5 105t23.5 138.5t8 143q0 70 -12 118.5t-29.5 80.5t-36 47.5t-32.5 15.5q-18 0 -43 -12.5t-47.5 -46t-38 -92t-15.5 -150.5v-86z" />
<glyph unicode="&#x432;" horiz-adv-x="399" d="M56 463v123v97t2 87v12q0 6 -1 14.5t-1 18.5l2 268q0 4 9 7.5t17 3.5l17 -2q41 8 73 8q27 0 57.5 -6.5t57.5 -28t44 -60t19 -104.5v-41q2 -31 2.5 -54.5t0.5 -29.5t1 -9t1 -13q0 -63 -18.5 -113.5t-47.5 -69.5v-4l-8 -8v-31l37 -24q16 -31 32.5 -71t18.5 -93l2 -98 q0 -74 -9 -121t-25.5 -75t-42 -40t-56.5 -16q-12 -2 -22.5 -2h-20.5q-14 0 -23.5 1t-19.5 3q-8 2 -15.5 3t-17.5 1h-16q-35 0 -41 19.5t-6 58.5v145q0 74 -1 133.5t-1 110.5zM103 174l2 -108v-21l61 -8q6 -2 13.5 -2h11.5h18q72 0 96.5 44t24.5 146v56q0 41 -5 86 t-21.5 81.5t-45 61.5t-71.5 25h-15q-12 0 -26.5 -2.5t-36.5 -12.5v-20q0 -6 -2 -12.5t-2 -12.5q-2 -35 -2 -68.5v-70.5v-162zM103 774q0 -41 1 -81t1 -81v-20l57 -8q6 0 9 -1t7 -1t8.5 -1t8.5 -1q66 0 91.5 57t25.5 151v3q-2 16 -2.5 34.5t-0.5 38.5q0 47 -8 82t-39 68v4 l-16 8q-29 12 -44 18.5t-30 8.5q-4 -2 -19.5 -3t-23.5 -3l-24 -5v-186v-41t-2 -39v-2z" />
<glyph unicode="&#x433;" horiz-adv-x="348" d="M63 78q0 45 1.5 71.5t3.5 55.5t3 71.5t1 98.5v45v62.5t-2 60.5q-2 47 -4.5 105.5t-2.5 156.5v84t3 49v2q0 10 1 18.5t1 14.5v19t-2 20q0 4 -1.5 7t-1.5 9q0 47 9 57v13q0 2 3 -7.5t3 -7.5q20 4 44.5 6.5t45.5 0.5h39q23 0 39 -1.5t30 -3.5t25.5 -2h26.5h30q2 -6 2 -14 q0 -18 -13 -23.5t-28 -5.5h-35.5t-39.5 2q-23 2 -42.5 3.5t-35.5 1.5h-27.5t-27.5 -3v-20q2 -166 2 -250v-94v-37q0 -31 -1 -58.5t-1 -54.5v-98l2 -371v-32q0 -37 -19 -45l-8 6v2l-14 10v2q0 4 -1 7t-1 7v2q-4 29 -5.5 41.5t-1.5 16.5zM70 4l2 -2q0 -2 -1 -4t-1 -4v10z" />
<glyph unicode="&#x434;" horiz-adv-x="434" d="M4 25q0 12 8 10q4 0 12.5 2t12.5 2q29 6 41 44t22 87q2 6 4 15.5t5 19.5q2 10 4 22v2q12 47 17 114t7 144q2 37 2 74t4 78v2q0 31 1 60.5t1 60.5v33l5 88v51v40t-3 34q0 10 -1 19t-1 20q0 51 17 51q8 0 8 2v-6h8q6 0 13.5 -1t21.5 -1t41 -1t74 -4l14 3l23 4q0 -8 1 -14.5 t1 -18.5q0 -8 1 -15.5t1 -13.5v-14q0 -12 -1 -29.5t-1 -44.5v-12q-2 -31 -2 -76v-104v-158v-118t2 -97q0 -33 1 -59.5t1 -53.5v-45q0 -43 -4.5 -83t-8.5 -77v-22q16 4 27 4q4 0 7 1t7 1l11 2v2h8q14 0 14 -51q0 -8 -1 -20.5t-1 -26.5q-2 -23 -2 -50.5v-58.5v-22 q0 -6 1 -13.5t1 -15.5l-2 -110q-4 -4 -18 -5q-16 0 -20.5 16.5t-4.5 33.5q0 41 1 56t1 21v11q0 4 -1 19t-1 34v82q0 6 1 13t1 18v20h-59q-10 0 -23.5 -1t-30.5 -1h-18t-21 2h-8q-23 -4 -65.5 -4h-83.5h-21v-19l-2 -38v-84q0 -20 1 -42t1 -49q0 -33 -5 -62.5t-21 -29.5 t-18.5 32t-2.5 63q0 25 1 49t1 41v39q-2 53 -3 72.5t-1 27.5q0 6 -1 11t-1 18zM109 35q12 0 25 1t26 1h21.5t33.5 -2q23 -2 49.5 -3t42.5 -1v14q10 43 12.5 87t2.5 120v63.5v59.5t-1.5 66.5t-3.5 88.5v514h-16h-33.5t-23.5 3q-6 0 -14.5 1t-16.5 1h-23v-23q2 -14 2.5 -28.5 t0.5 -26.5v-59.5t-3 -49.5v-2q0 -16 -2 -26.5t-2 -20.5v-41v-64.5t-2 -48.5v-2q0 -12 -1 -21t-1 -20l-6 -98v-51q0 -16 -1 -22.5t-1 -14.5q-2 -10 -2 -43l-6 -68l-19 -106q-8 -41 -12 -71.5t-26 -78.5v-28zM408 49q-4 2 0 4v-4z" />
<glyph unicode="&#x435;" horiz-adv-x="342" d="M31 651q0 127 8 213t25.5 138.5t43 75t62.5 22.5q43 0 69.5 -22.5t42 -78t22.5 -151.5t11 -244q-6 -20 -36 -20h-38t-108 6h-29.5t-23.5 -4v-31q0 -14 -1 -27.5t-1 -25.5q0 -121 4 -210t17.5 -148.5t41 -89t76.5 -29.5q18 0 26.5 7t13.5 23.5t10 45t16 69.5v8q6 31 28 35 v6q12 -12 13 -49q0 -61 -9.5 -97t-26 -56.5t-39 -27.5t-48.5 -12q-39 0 -80 26t-58 101l-2 13q-10 25 -16 88t-9 141t-4 161t-1 144zM78 706.5q0 -28.5 2 -57.5v-18h46t60 -4q16 0 43 2t33 2v20q0 135 -5 215t-16.5 122t-27.5 53.5t-37 11.5h-10q-16 -4 -30.5 -15.5 t-29.5 -46.5v-2q-16 -51 -22 -105.5t-6 -115.5v-61.5z" />
<glyph unicode="&#x436;" horiz-adv-x="649" d="M16 1051v10q0 16 17 22q45 -4 67 -55l39 -94l62 -146q23 -59 46 -111t60 -116v209q0 10 1 24.5t1 49.5q0 131 -6 241q2 2 19 2q18 0 20 -14q2 -53 3 -98t1 -90q2 -63 3 -143t5 -160v-21q35 63 62.5 125t50.5 121q14 39 29.5 81t38.5 89l20 49q25 53 70 55q12 -10 12 -20 v-10q-18 -14 -35.5 -45t-38.5 -68q-20 -43 -32.5 -82t-22.5 -78q-10 -35 -20.5 -70.5t-38.5 -86.5v-15q12 -55 20 -82.5t14 -46.5q6 -23 13.5 -42t11.5 -46v-4q14 -37 24.5 -62.5t17.5 -44t13 -34t12 -35.5l23 -72q12 -39 15 -74.5t3 -52.5q0 -4 -1 0t-1 0h-4q-2 0 -5 1 t-5 1h-6t-6 -8v2l-56 182q-12 43 -20 70t-19.5 60.5t-30 84t-48.5 140.5v8q-16 -16 -28.5 -32.5t-31.5 -53.5v-10q-2 -29 -2 -61v-91v-112.5t2 -170.5v-12l-12 -8q-8 0 -20 4l-13 4v223q0 31 -1 67t-1 91v76q-14 23 -21 33t-12 14q-6 8 -11 14t-9 11v-7q-8 -27 -18.5 -59.5 t-21.5 -66t-22.5 -66.5t-21.5 -59l-14 -43q-10 -37 -24.5 -73t-25.5 -73l-32 -96q0 10 -6 10v-4q-2 2 -7 2q-10 0 -14 -4v4q0 12 5 44t16 81q6 27 17 55.5t21 53.5q10 23 21.5 49t22.5 61l30 107q4 10 4 13v9q2 4 6 19q4 12 10.5 35.5t18.5 66.5v14q-23 47 -34 79t-19 61 q-10 35 -22.5 67.5t-34.5 79.5q-8 16 -19.5 40t-25 46.5t-26.5 40.5t-22 27zM68 0v-2q2 2 0 2z" />
<glyph unicode="&#x437;" horiz-adv-x="382" d="M14 111q0 8 9.5 20t21.5 12q29 -51 61.5 -89t79.5 -38q33 0 58.5 22.5t42 58.5t24.5 81t11 88q0 39 -4.5 82t-16.5 80t-33.5 61.5t-58.5 24.5h-19q-51 4 -63 8t-12 8q0 2 -1 7.5t1 10.5t9 10t23 9h16.5t18.5 -2h17q37 0 60.5 29t36.5 70t19.5 84t6.5 71v2q-2 45 -11.5 86 t-25 73t-39 50.5t-53.5 18.5q-18 0 -41 -3.5t-46 -19.5q-10 -6 -19 -31.5t-17 -48.5q-4 -12 -25 -18q-18 0 -18 -2q-4 37 4 60.5t24 47.5q29 41 57.5 48.5t71.5 7.5t76 -20.5t56.5 -54.5t34.5 -76t11 -85v-39q0 -53 -6 -98t-22 -96q-10 -23 -16.5 -35.5t-26.5 -32.5v-29 q41 -43 56 -105.5t15 -133.5v-37q0 -41 -9 -89t-29.5 -88t-52 -67t-76.5 -27q-47 0 -84 9.5t-66 52.5v4l-12 14q-8 12 -13.5 24.5t-5.5 29.5z" />
<glyph unicode="&#x438;" horiz-adv-x="436" d="M47 100q0 43 1 81t3 81q0 37 1 84t2 109.5t2 147.5t1 200q0 66 -1 95.5t-1 47.5v78q0 16 2 35.5t13 25.5q23 0 27.5 -8t6.5 -30l-10 -691v-10q31 70 57.5 159t55.5 181q14 49 30.5 102.5t32.5 100.5l21 67q16 51 33.5 93.5t46.5 42.5h14q-4 -90 -4 -171v-178v-149t-1 -90 t-2 -47.5t-1 -20.5v-125q0 -59 1 -132t1 -150q0 -12 -3 -21.5t-14 -9.5q-33 0 -32 59q0 45 1 75t1 48v76q0 14 -1 32.5t-1 47.5q0 35 1 69.5t3 69.5t3 76t1 76v148.5t-4 156.5v6l-217 -682v-2q-4 -18 -6 -22.5t-5 -6.5q-8 -8 -9 -17t-1 -58v-56q0 -16 1 -28.5t1 -24.5l2 -39 q-2 -8 -39 -8q-10 8 -12 37.5t-2 68.5z" />
<glyph unicode="&#x439;" horiz-adv-x="436" d="M47 100q0 43 1 81t3 81q0 37 1 84t2 109.5t2 147.5t1 200q0 66 -1 95.5t-1 47.5v78q0 16 2 35.5t13 25.5q23 0 27.5 -8t6.5 -30l-10 -691v-10q31 70 57.5 159t55.5 181q14 49 30.5 102.5t32.5 100.5l21 67q16 51 33.5 93.5t46.5 42.5h14q-4 -90 -4 -171v-178v-149t-1 -90 t-2 -47.5t-1 -20.5v-125q0 -59 1 -132t1 -150q0 -12 -3 -21.5t-14 -9.5q-33 0 -32 59q0 45 1 75t1 48v76q0 14 -1 32.5t-1 47.5q0 35 1 69.5t3 69.5t3 76t1 76v148.5t-4 156.5v6l-217 -682v-2q-4 -18 -6 -22.5t-5 -6.5q-8 -8 -9 -17t-1 -58v-56q0 -16 1 -28.5t1 -24.5l2 -39 q-2 -8 -39 -8q-10 8 -12 37.5t-2 68.5zM88 1296q0 16 17 17q8 0 13 -8.5t9 -20.5t12.5 -24.5t24.5 -20.5t25.5 -10t25.5 -2q2 0 15.5 -1t31 4t31.5 19.5t20 44.5q2 25 21 25q12 0 12 -19q0 -47 -33.5 -83.5t-105.5 -36.5q-23 0 -44.5 11t-37.5 28.5t-26.5 38t-10.5 38.5z " />
<glyph unicode="&#x43a;" d="M59 102q0 135 1 238.5t1 183.5v162v89t-1 60.5t-1 40v27.5v72q0 49 3.5 80.5t21.5 31.5q10 0 16 -19t6 -46v-24.5t-2 -24.5v-2q0 -12 -1 -25.5t-1 -23.5q0 -78 -1 -124t-1 -75v-39v-58.5t4 -84.5v-9q31 53 61 130t58 151v2l7 17.5t8 19.5l28 84q16 55 37 103t41 48 q27 0 27 -22q0 -10 -11.5 -33.5t-21.5 -46.5l-21 -49l-47 -123l-55 -143l-18 -43v-19l18 -55q10 -31 25.5 -76t34 -98t37 -111.5t36.5 -115.5q4 -18 10.5 -33t12.5 -27q4 -10 10 -29.5t12 -33.5q-4 -31 -28 -31q-10 0 -19.5 14.5t-19 36t-16.5 49t-15 56.5l-19 71 q-16 43 -31.5 90t-30.5 91.5t-28.5 82t-23.5 62.5q-4 0 -13.5 -24.5t-19.5 -47.5l-18 -43v-8q-2 -41 -2 -100.5v-116.5v-74t2 -63v-19q0 -16 -4.5 -42.5t-16.5 -26.5q-20 0 -25.5 40t-5.5 76zM393 29v2v6q6 -23 5 -22t-5 14z" />
<glyph unicode="&#x43b;" horiz-adv-x="524" d="M10 2q2 12 8.5 28.5t18.5 16.5q6 0 8 -1t4 -1q8 -6 14 -6q20 0 33 21.5t20 58.5t10 86t5 104q2 31 2 62.5t4 64.5v2q0 74 -1 150t-1 149v8.5t2 20.5v256q0 23 4 37t13 14h8q0 -4 8 -4l41 -8q18 -8 45 -8q10 0 18 2q14 2 51 6t126 8q2 -23 2 -32v-29v-31t-2 -57v-13 q0 -23 -1 -75t-1 -105v-125q0 -45 1 -104.5t3 -112.5q2 -35 3 -69.5t1 -49.5v-61v-71t-3 -73.5t-8.5 -57t-13.5 -23.5q-33 0 -33 51v19t2 20q2 14 4.5 34.5t4.5 56.5t4 90t2 134q0 53 -1 113.5t-9 124.5v397h-21h-76t-63 4h-64v-51q0 -8 1 -14.5t1 -14.5q0 -31 -1 -58.5 t-3 -49.5q-2 -14 -2 -25.5v-22.5l-2 -389q-8 -197 -29.5 -305t-78.5 -108h-23q-12 0 -22.5 2t-10.5 8zM162 1073v4v-4z" />
<glyph unicode="&#x43c;" horiz-adv-x="487" d="M49 813q0 127 6 260v-12q4 4 15.5 7t21.5 3q8 0 9 -4t3 -14q4 -18 9.5 -49t15.5 -64q14 -41 23.5 -86t19.5 -106t25.5 -142.5t38.5 -187.5l14 -60l2 2l70 388q4 23 10 61.5t12 83.5q4 35 10 67.5t11 59.5q6 31 10 59q4 0 20.5 -3t20.5 -9l10 -10v-4q12 -20 15 -32.5 t8 -49.5q-4 -82 -7.5 -169t-3.5 -179q0 -55 1 -105.5t3 -103.5q2 -63 4.5 -135t2.5 -166q0 -41 -3.5 -74t-17.5 -33q-25 0 -25 17q0 8 1.5 17t1.5 19q0 6 1 20.5t1 32v34v24.5q0 18 -2.5 72.5t-3.5 131.5t-2 170t-1 191v74q0 31 -1 59.5t1 65.5v4q-14 -84 -31.5 -180 t-36 -191.5t-38 -182.5t-39.5 -148q-27 43 -43 107.5t-31 131.5q-4 25 -10 52.5t-12 52.5q-12 80 -27.5 164.5t-32.5 144.5v-6q0 -51 1 -101.5t1 -101.5v-68.5t2 -64.5q2 -51 3 -98.5t1 -98.5l-8 -356q0 -2 -12 -3t-18 -1q-16 0 -17 33v28.5t2 36.5v2q2 31 3 70t1 90 q2 10 2 31.5v52.5q0 66 -2 153.5t-4 165.5q-2 53 -3 95.5t-1 64.5z" />
<glyph unicode="&#x43d;" d="M57 8q0 25 3 58.5t3 72.5q0 37 -1 65.5t-1 55.5v133q0 45 -1 91t-1 94v182q0 18 1 40.5l2 45t2.5 42t1.5 30.5v2q0 16 -1.5 45.5t0 59.5t5.5 51.5t16 21.5q16 0 23 -8l-5 -234q-2 -43 -1 -89t-1 -93v-21v-15t4 -15v-15q41 0 75 3t75 3q23 0 47 -6v21q2 47 4 81.5t3 62.5 t1 51.5v45.5q0 61 -1 110.5t-3 74.5v20q0 16 23 17h12v10q8 -39 12 -80t4 -88v-54.5t-2 -58.5v-2q-2 -35 -3 -73.5t-1 -79.5v-15v-25.5t4 -31.5q-2 -10 -2 -21.5v-21.5q0 -59 3 -103.5t3 -105.5v-55v-76q0 -6 -1 -12t-1 -15v-18q0 -14 1 -27.5t1 -23.5v-39q0 -25 2.5 -39 t-0.5 -21q-2 -10 -4 -16t-16 -6q-10 0 -18.5 1t-10.5 3l2 256q0 45 -2 83t-4 85l-6 139q-18 10 -32.5 12t-26.5 2h-23q-12 0 -29.5 1.5t-39.5 -5.5q-6 0 -21.5 -5t-19.5 -27v-4q0 -10 1 -19.5t1 -17.5v-27q0 -35 -1 -52.5t-2 -44t-2.5 -71.5t-1.5 -133v-51.5t3 -59.5 q0 -10 -1.5 -21t-3.5 -24l-8 -34q-6 0 -22.5 1t-16.5 27z" />
<glyph unicode="&#x43e;" horiz-adv-x="501" d="M20 510v65q0 41 4.5 75t14.5 77q16 78 40.5 154.5t61.5 134.5q16 23 56 53q33 20 69 21q55 0 96 -50q23 -23 36.5 -48t23.5 -54q52 -116 70 -268q4 -39 7 -83t3 -95q0 -27 -1 -53.5t-3 -61.5q-4 -57 -13.5 -118.5t-25.5 -125.5q-20 -78 -65.5 -122t-110.5 -44h-23 q-115 37 -173 168t-67 375zM63 502q0 -66 8.5 -129.5t24.5 -122.5q49 -184 160 -219q4 -2 12 -2h13q31 0 57.5 14t48.5 51q33 61 48.5 161.5t19.5 225.5v29q0 55 -5.5 114.5t-13.5 112.5q-10 41 -19 78t-20 66q-6 16 -17 36.5t-18 36.5v2q-53 90 -96 91q-14 0 -30.5 -8.5 t-36.5 -22.5q-16 -14 -56 -88v-2l-20 -56q-10 -25 -18.5 -49t-16.5 -53v-2q-16 -63 -20.5 -130t-4.5 -134z" />
<glyph unicode="&#x43f;" horiz-adv-x="444" d="M70 162v106v117q0 41 1 92t1 141v52q-2 18 -2 40.5v51.5v135q0 53 2 73.5t2 30.5t-1 17.5t-1 17.5v31q0 23 3 37t13 14h10v-4l90 -16q23 0 33 2q20 4 37 4h47h20.5t20.5 2l19 2l20 6q2 -23 2 -32v-31q0 -39 -1 -49.5t-3 -8.5v-45l-4 -409q0 -57 1 -82t1 -41v-146v-77 t-3 -88t-8 -71.5t-16 -29.5q-10 0 -17 13.5t-7 41.5q0 25 1 46.5t3 46.5q2 18 3 40.5t1 47.5q0 6 -1 11t-1 11v23l4 26v754h-21q-27 0 -62.5 1t-53.5 3h-86v-281v-4q2 -29 2 -55.5v-44.5v-51q0 -119 -6 -322v-157l6 -146q-6 -12 -23 -12q-14 0 -18 4l-6 80q-2 25 -2 82z" />
<glyph unicode="&#x440;" d="M53 784q0 53 3 101.5t16 95.5v2q16 66 60 95.5t89 29.5t62 -14q33 -25 52 -68t28.5 -96t12.5 -114.5t3 -125.5v-119q2 -43 2 -90v-96v-68q0 -74 -8 -142.5t-31 -121.5q-18 -43 -48 -60.5t-65 -17.5q-29 0 -58.5 11.5t-49.5 33.5v-14v-117.5t2 -115.5q0 -59 1 -116.5 t1 -115.5v-98t-2 -96q0 -6 -1 -15.5t-1 -17.5v-32.5t-2 -22.5l-6 -7q-20 0 -28.5 17.5t-8.5 44.5v29q0 23 1 65.5t1 136.5q4 41 4 83v83q0 55 -1 106.5t-5 108.5l-4 275l-6 278l-5 80v2q-4 55 -6 111.5t-2 111.5zM98 756q0 -47 2 -92.5t4 -88.5v-2q2 -31 3.5 -59.5 t1.5 -56.5q0 -18 1 -38t1 -38q2 -66 5 -130.5t15 -119.5v-2q18 -51 43 -75.5t49 -24.5q20 0 43 12v2q23 14 36 49t20.5 82t9.5 102.5t2 112.5v70q0 33 1 62.5t-1 53.5q-2 12 -2 36v51q0 31 -1 65.5t-3 68t-4 64.5t-5 51q-10 72 -37.5 116t-56.5 44h-14t-14 -2v-2 q-16 -8 -35 -32.5t-39 -55.5q-8 -18 -13.5 -45t-7.5 -57.5t-3 -62.5t-1 -58z" />
<glyph unicode="&#x441;" horiz-adv-x="344" d="M45 578.5v113.5v113q2 59 8 123.5t31 111.5v2q12 27 36.5 39.5t53.5 12.5q14 0 43 -4.5t39 -8.5q23 -18 40 -66t17 -102q0 -12 -2 -20v-6q0 -12 -12 -13h-10v3q-14 10 -17.5 24t-5.5 31q0 4 -1 4t-1 4v4q-8 51 -29.5 75.5t-41.5 24.5h-21q-53 -29 -67.5 -98t-14.5 -153 v-47.5t2 -45.5v-41q2 -51 3 -111.5t1 -111.5v-46t-2 -46v-84q0 -39 2 -77t13 -72q12 -49 36.5 -65.5t47.5 -16.5h8q25 4 39 36.5t24 88.5v4q0 4 1 7t1 7q2 12 6.5 26.5t16.5 14.5q29 -8 28 -41q0 -35 -10 -78t-20 -65q-14 -31 -37 -45.5t-51 -14.5q-39 0 -73 27t-50 74v2 q-18 43 -22.5 96t-4.5 106v195q-4 55 -4 109.5z" />
<glyph unicode="&#x442;" horiz-adv-x="401" d="M8 1087q2 12 37 13h10t11 -2q14 -2 32.5 -4t36.5 -2h43h53.5t85.5 6q16 0 37 -2t23 -13l4 -20v-6t-2 -4q-23 4 -42.5 4h-37.5t-37.5 2t-42.5 4v-23q0 -10 -2 -16v-6q0 -4 -1 -6t-1 -6v-35q0 -10 1 -22.5t1 -41.5q0 -59 -1 -93t-1 -56v-47q0 -23 1 -60t5 -110v-453 q0 -35 -8 -63.5t-25 -28.5q-16 0 -16 -2q4 53 5 139t1 162v98t-4 88q-2 47 -3 95.5t-1 109.5q0 41 1 81t1 79v149q0 27 -2 48.5t-16 21.5q-4 0 -11.5 -1t-17.5 -3q-20 -4 -48 -7t-46 -1q-18 0 -23 34z" />
<glyph unicode="&#x443;" horiz-adv-x="372" d="M-45 -387q0 2 1 1t1 1q4 14 12 28.5t23 8.5l8 -4q4 -2 6 -2q2 -4 5 -7.5t3 -5.5q23 -8 39.5 -0.5t30.5 25.5t25.5 43t21.5 49v2q4 10 8 19.5t8 19.5q10 20 13.5 53t7.5 82q2 27 5 58.5t5 60.5v6q-4 14 -5 28.5t-3 24.5q0 4 -1 4.5t-1 2.5l-2 18v2q-4 39 -10 78t-13 76 l-10 63q-10 80 -22.5 153.5t-24.5 147.5l-27 168l-14 80q-8 45 -14 88t-11 92v19q0 10 15 18q27 0 28 -10l13 -72l8 -49v-2l8 -55l33 -221q8 -59 18.5 -120t20.5 -120q10 -61 19.5 -121.5t17.5 -124.5q6 47 13 97.5t15 101.5v2q10 76 20.5 149.5t18.5 147.5l13 131l14 139 q4 47 8 73.5t14 59.5q0 -10 13 -10q29 0 28 -6q0 -2 -1 -2t-1 -2l-80 -670v-12q-4 -39 -10 -90.5t-14 -108.5l-25 -205q-12 -96 -23 -169.5t-30 -125.5q-31 -88 -77 -125.5t-95 -15.5v2q-2 0 -7 2t-7 2q-12 4 -22.5 12.5t-10.5 14.5v2z" />
<glyph unicode="&#x444;" horiz-adv-x="524" d="M25 748q0 63 7 122.5t21.5 105.5t36 73.5t49.5 27.5q29 0 49.5 -10t38.5 -33v13v134t-2 132q0 66 -1 130t-1 130v31q0 47 1 95t5 75l4 4q18 0 26.5 -17.5t8.5 -42.5v-26q0 -16 -2 -41t-3 -67t-2 -102.5t-1 -146.5v-76.5t4 -76.5q2 -39 3 -78t1 -80v-10q35 72 94 71 q45 0 71 -38.5t38 -98t14 -131.5t2 -135q0 -66 1 -110t4 -85q2 -35 3 -77.5t1 -90.5q0 -68 -8.5 -128t-23.5 -104t-39 -70.5t-56 -26.5q-29 0 -44.5 11t-31.5 34v-17q2 -137 3 -271t1 -273v-23q0 -41 -1 -89t-9 -77v-6q0 -2 -2 6t-2 6q-18 0 -23.5 15.5t-5.5 44.5v26v40 t1 67t1 102.5v147.5v103t-2 104l-2 102v8q-16 -35 -44 -52t-63 -17q-16 0 -19 1t-5 3l-8 8v2q-29 25 -45.5 63.5t-24.5 89t-9 106.5t-1 116v66.5t-2 64.5q0 16 -1 31.5t-1 31.5q-2 39 -3 89.5t-1 93.5zM68 676q0 -51 1 -97.5t5 -80.5v-56q0 -49 1 -121.5t8 -140t21.5 -116 t42.5 -48.5q23 0 37.5 20.5t32.5 53.5v2l8 14q8 14 12.5 41t6.5 56.5t2 60.5v58q0 66 -2 125t-6 116q-4 51 -5.5 105.5t-1.5 103.5v25q-6 111 -26.5 171t-59.5 60l-16 -16v2q-20 -14 -32.5 -48t-18.5 -80t-8 -100.5t-2 -109.5zM274 745q0 -47 1 -93t4 -91v-2q2 -27 3 -52.5 t1 -51.5v-13q4 -39 4 -75.5v-73.5v-23q4 -98 24.5 -163.5t50.5 -65.5q23 0 39 10v2q18 14 29.5 44t17 72t6.5 91t1 100q0 57 -2 110.5t-7 96.5v99q0 55 -2 121.5t-11 125t-26.5 97.5t-46.5 39q-23 0 -32 -16.5t-19 -41.5l-14 -28q-8 -16 -12 -40t-6.5 -51.5t-2.5 -56.5v-55 v-15z" />
<glyph unicode="&#x445;" horiz-adv-x="329" d="M0 -23q12 72 29.5 144t36.5 143q16 68 31.5 138.5t31.5 150.5v8q-27 135 -54.5 261t-62.5 249l2 -2q6 14 37 14l15 -4q18 -80 33.5 -153.5t33.5 -153.5l23 -104l30 127l68 280q2 6 31 6q2 -2 2 -4q4 -2 12 -2q2 0 4 -2v-2q-35 -135 -65.5 -255t-53.5 -243v-12 q12 -45 21.5 -85t19.5 -77q16 -72 33.5 -135t42.5 -135l39 -123q0 -16 -8 -18v-4q-2 -2 -21 -2q-10 0 -12 2l-2 4v8q-29 76 -50.5 148.5t-41.5 150.5v2l-47 178v-2l-37 -172q-16 -70 -31.5 -138.5t-30.5 -133.5v-4q-2 -10 -6 -19.5t-6 -19.5q-4 -10 -27 -11l-10 7 q-2 0 -6 -1t-4 -6v2z" />
<glyph unicode="&#x446;" horiz-adv-x="524" d="M82 818.5v139.5q0 43 4 56v76q4 4 18 4q18 0 23 -11l-2 -59v-30.5t2 -53.5q2 -72 4 -175t2 -194v-51q0 -20 -1 -48t-1 -56q-2 -33 -2 -65v-56v-39q0 -10 1 -21.5t1 -25.5v-2q2 -23 2 -49.5v-59.5v-28.5t-2 -26.5v-25h107q23 2 63.5 3.5t75.5 1.5h10v22q0 180 1 360.5 t1 360.5q0 18 -1 37.5t-1 42.5v83t-4 70v11q-10 16 -10 32q0 10 5 31t21 21q14 0 21.5 -43t10.5 -97.5t4 -103.5t1 -62v-103.5t2 -70.5q0 -29 2 -66.5t3 -100t2 -160t1 -244.5v-20h15q6 0 14 -2.5t27 -10.5v-2q6 0 9 -15.5t3 -55.5q0 -27 -1 -40.5t-1 -21.5v-16v-13.5 t2 -21.5v-41.5t4 -30.5q-4 -23 -24 -41q-16 0 -19.5 19.5t-3.5 48.5v71v40t-2 36q0 10 -1 18.5t-1 14.5v23q-43 0 -87 1t-87 1h-21.5t-23.5 2t-24.5 3t-20.5 1q-6 0 -12.5 -1t-14.5 -3v-2q2 0 -13.5 -2t-39.5 -7l-14 -6q-23 0 -23 51q0 10 1 20.5t1 20.5q2 14 2 32v40v51 l-4 90v310q0 47 -1 79.5t-1 61.5q-2 35 -2 93.5z" />
<glyph unicode="&#x447;" horiz-adv-x="407" d="M53 1069q0 29 19 29q23 0 28.5 -21.5t5.5 -54.5v-21l-2 -131q0 -76 2.5 -146.5t11.5 -123.5t28.5 -86t54.5 -33q31 0 51 39t33.5 92.5t18.5 111.5t5 95v49v43t-2 56q-2 31 -3 60.5t-1 55.5q0 16 2 29.5t14 13.5q29 0 35 -43t6 -92v-71.5v-88t-1 -96.5t-3 -92 q0 -16 -1 -30.5t-1 -30.5v-62v-77.5t2 -45.5q0 -18 1 -41.5t1 -74.5q0 -16 -1 -37t-1 -43v-138q0 -4 -1 -17t-2 -27.5t-5 -25.5t-10 -11t-15.5 18t-9.5 90v55q0 20 1 43t1 52q0 90 -1 158.5t-5 146.5v6q-23 -53 -47 -86t-59 -33q-72 0 -109 100.5t-37 272.5v51v100.5 t-2 51.5q0 12 -1 24t-1 37z" />
<glyph unicode="&#x448;" horiz-adv-x="604" d="M49 844v76t2 87t7 72.5t14 30.5q16 0 20 -19.5t4 -29.5v-262l4 -125q-2 -33 -2 -59.5v-49.5v-71q0 -23 1 -49.5t1 -63.5v-358h23h22.5t26.5 -3q10 0 23.5 -1t19.5 -1q27 0 37 2q4 0 9 1.5t9 1.5h11v22q-2 10 -2 32.5v47.5q0 23 1 47.5t1 50.5v217v60t-1 100.5t-1 168.5 v267q0 2 1 12.5t4 19.5t9 17.5t18 8.5q14 0 19 -4v-242q0 -35 -1 -84t-2 -105.5t-1 -119v-123.5v-131v-49t-2 -103v-32.5t2 -30.5v-2l8 -27v-18h16h25.5t27.5 -3q8 0 19.5 -1t17.5 -1h11l63 7v24q-2 14 -2 26.5v24.5v58.5t2 48.5v2q0 14 1 25.5t1 21.5v39v56.5t-2 64.5 q0 29 -1 56.5t-1 47.5v51v75t-1 90t-2 76l-1 32l8 239q4 10 21 11q12 0 20 -4v-93q-4 -23 -4 -43v-39q0 -23 2 -44t2 -50q2 -41 2 -101.5v-135.5v-310l-6 -88v-49v-40t4 -34q0 -10 1 -20t1 -20q0 -23 -5 -38.5t-13 -15.5h-9v6h-8q-18 2 -31.5 4.5t-15.5 2.5q-23 8 -37 8 q-4 0 -10 -2l-12 -4h-51q-2 0 -3.5 -1t-3.5 -1q-6 0 -18 1t-20 3l-224 -2l-41 6v16q0 29 -1 66t-1 65v47q0 35 1 90.5t1 155.5q0 39 -1 72t-1 61v72zM530 -32q0 1 2 1v-2q-2 0 -2 1z" />
<glyph unicode="&#x449;" horiz-adv-x="636" d="M49 792.5v65.5v242q4 4 19 4q18 0 22 -10v-293q2 -12 3 -54t1 -108v-155t4 -189v-24.5t2 -34.5q2 -29 3 -61t1 -64q0 -8 -1 -15.5t-1 -15.5v-47h64q4 0 12 1t19 1q12 2 30.5 2h34.5h25v20q0 6 1 13.5t1 15.5v25q0 8 1 17t1 19v17q0 10 -1 32.5t-2 64.5t-2 110.5t-3 171.5 v166q0 31 -1 80t-3 104q0 29 -1.5 58.5t-1.5 58.5v71l7 15l5 5t7 3q12 0 18 -8.5t9.5 -17.5t4.5 -19t1 -12v-82v-62t-1 -63.5t-1 -55v-36.5v-48q2 -23 3 -54.5t1 -65v-65.5v-56v-129q0 -70 1 -128.5t3 -97.5v-63q-4 -4 10 -4q2 0 6 -1t8 -1q4 -2 9 -2h55q14 2 36.5 3t35.5 1 h18v356v63.5t2 22.5v4q0 4 1 6.5t1 8.5v14q0 10 -1 22.5t-1 28.5l-2 248q0 35 -1 68.5t-1 62.5v105q0 10 5 30.5t22 20.5q8 0 12 -27t6 -64.5t3 -78.5t1 -72v-45q-2 -18 -3 -51t-2 -70t0 -73.5t1 -63.5q0 -35 1 -66.5t1 -64.5v-92q0 -70 1 -128.5t3 -97.5v-67h17q6 0 14 -2 t24 -12v-3l11 -24v-4q4 -10 4 -19.5v-23.5q0 -27 -2 -40t-2 -22v-14q0 -8 1 -23.5l2 -31t2 -29.5t3 -20q-2 -23 -25 -45q-16 0 -19 24.5t-3 52.5q0 20 1 38t1 34v33q0 2 -1 3t-1 5v6q-2 8 -3 20.5t-1 30.5v23h-68q-12 2 -30.5 2h-28.5l-166 2q-6 0 -14.5 -1t-14.5 -1h-41 q-23 0 -24 2q-10 4 -14.5 4h-8.5h-30.5t-32.5 -2q-4 0 -10.5 -1t-10.5 -1l-10 -2v-4q-2 2 -8 2q-14 0 -15 41q0 10 1 19t1 20q2 16 2 33.5v39.5v23q0 6 -1 12t-1 17l-4 120l2 277q0 37 -1 57.5t-3 38.5q0 12 -1 24.5t-2 31t-1 45zM80 -8v-2v2z" />
<glyph unicode="&#x44a;" horiz-adv-x="415" d="M61 233v113q0 23 1 41.5t1 36.5v61q0 39 -1 70t-1 57v158l2 297q2 6 10.5 9t16.5 3l16 -2l-2 -92v-420q49 14 76 15q31 0 62.5 -10.5t58.5 -37t44 -73.5t17 -119l3 -158q0 -53 -11.5 -88t-29 -55.5t-40.5 -29.5t-48 -11q-10 -2 -18.5 -2h-16.5h-25.5t-23.5 2 q-6 0 -17.5 1t-15.5 1h-17h-25t-14 4v84q0 33 -1 71t-1 74zM100 172l2 -104v-25l105 -6q66 4 91.5 49t25.5 143q0 61 -1 116.5t-14.5 97.5t-44.5 68t-90 26q-27 0 -65 -19v-20q0 -6 -1.5 -12.5t-1.5 -12.5t-1 -13t-1 -14q-2 -23 -3 -63.5t-1 -122.5v-88z" />
<glyph unicode="&#x44b;" horiz-adv-x="550" d="M61 233v113q0 23 1 41.5t1 36.5v61q0 39 -1 70t-1 57v158l2 297q2 6 10.5 9t16.5 3l16 -2l-2 -92v-420q49 14 76 15q31 0 62.5 -10.5t58.5 -37t44 -73.5t17 -119l3 -158q0 -53 -11.5 -88t-29 -55.5t-40.5 -29.5t-48 -11q-10 -2 -18.5 -2h-16.5h-25.5t-23.5 2 q-6 0 -17.5 1t-15.5 1h-17h-25t-14 4v84q0 33 -1 71t-1 74zM100 172l2 -104v-25l105 -6q66 4 91.5 49t25.5 143q0 61 -1 116.5t-14.5 97.5t-44.5 68t-90 26q-27 0 -65 -19v-20q0 -6 -1.5 -12.5t-1.5 -12.5t-1 -13t-1 -14q-2 -23 -3 -63.5t-1 -122.5v-88zM428 1051 q0 37 14 47q-4 0 8 4q8 0 16.5 -4t8.5 -19v-792q0 -39 1 -70t1 -59v-117q0 -35 -10 -45q-10 -6 -17 -6q-4 0 -10 4t-8 18v793v127t-4 119z" />
<glyph unicode="&#x44c;" horiz-adv-x="415" d="M-6 1067q0 14 2 20h20l37 -8q10 -2 17.5 -2h13.5h45q4 -20 4 -39q-23 0 -29 -9t-8 -19v30h-39h-28.5t-30.5 2zM88 213v113q0 23 1 41t1 36v62q0 39 -1 69.5t-1 57.5v158l2 297q2 6 10.5 9t16.5 3l16 -2l-2 -92v-420q49 14 76 14q31 0 62.5 -10t58 -37t44 -74t17.5 -119 l2 -157q0 -53 -11 -88t-28.5 -55.5t-41 -30t-48.5 -11.5q-10 -2 -18 -2h-17h-25.5t-23.5 2q-6 0 -17 1.5t-16 1.5h-16h-25.5t-13.5 4v84q0 33 -1 70.5t-1 74.5zM127 152l2 -105v-24l104 -7q66 4 91.5 49.5t25.5 143.5q0 61 -1 116.5t-14 97.5t-44 67.5t-90 25.5 q-27 0 -66 -18v-21q0 -6 -1 -12t-1 -12t-1 -13.5t-1 -13.5q-2 -23 -3 -63.5t-1 -122.5v-88z" />
<glyph unicode="&#x44d;" horiz-adv-x="382" d="M41 246q0 18 3 34.5t19 24.5q8 2 10.5 -16.5t4.5 -32.5q2 -23 4 -51.5t6 -46.5v-2q20 -63 53 -90t60 -27q29 0 49 30.5t41 96.5v2q6 33 9 78t4 92l2 94t1 86v21h-41q-53 0 -99 -3.5t-67 -9.5q-2 4 -5 10.5t1 2.5q0 -2 2 -4q0 35 16.5 40t47.5 5l57 -7q12 -2 18.5 -2h14.5 h10q2 0 9.5 1t35.5 3v60q0 66 -1 141.5t-9 141.5q-10 49 -30.5 89t-57.5 50h-10q-27 0 -44.5 -18.5t-29.5 -46t-18.5 -60.5t-12.5 -62v-2q-4 -25 -12 -41t-27 -16l4 -4v-6q-12 27 -12 61q0 27 7 53.5t18 51.5v4q16 76 54 99.5t83 23.5q88 -16 115.5 -114.5t27.5 -264.5 q0 -27 -1 -54.5t-1 -58.5q2 -29 1 -75t-3 -83q0 -16 -1 -45.5t-1 -42.5q0 -74 -10 -139t-28.5 -113.5t-46.5 -76t-64 -27.5q-70 0 -113 66.5t-43 179.5z" />
<glyph unicode="&#x44e;" horiz-adv-x="694" d="M53 1051q0 37 13 47q-4 0 8 4q8 0 17 -4t9 -19v-530h39h17.5t42.5 4v39q0 41 4 74.5t14 78.5q16 78 45 147t66 126q6 10 21.5 23.5t31.5 27.5q29 20 68 21q57 0 98 -50q18 -25 33.5 -50t25.5 -50v-2q49 -119 68 -268v-2q6 -39 8 -82t2 -94v-55.5t-2 -57.5 q-6 -117 -37 -246q-47 -166 -178 -166h-14q-229 74 -254 531v20q-12 2 -28.5 2h-39.5h-31v-233q0 -39 1 -70t1 -59v-117q0 -33 -12 -45q-10 -6 -16 -6q-4 0 -10.5 4t-8.5 18v793v127t-2 119zM248 502q0 -66 8 -130.5t25 -121.5q57 -186 159 -219q4 -2 11.5 -2h11.5 q35 0 61.5 13t44.5 52q35 59 50.5 158.5t19.5 228.5v29q0 59 -5 115.5t-16 111.5q-12 80 -36 142v2l-35 73v2q-53 90 -98 91q-27 0 -64 -31q-23 -18 -55 -88v-2l-21 -54q-10 -23 -17 -42t-18 -64q-16 -63 -21 -130t-5 -134z" />
<glyph unicode="&#x44f;" horiz-adv-x="362" d="M29 825q0 -2 1 -8t1 -21.5t1 -43t1 -76.5q0 -129 32 -191.5t58 -78.5v-23l-24 -117q-16 -72 -29.5 -141.5t-17.5 -120.5q0 -12 18 -12q20 0 25 4q14 66 20 98.5t10 63.5q4 20 8.5 40.5t9.5 45t12 56.5t17 77v16h11q12 0 38.5 4t49.5 13v-23q0 -18 -1 -62t-2 -95.5 t-1 -96.5v-65q0 -23 1 -40.5t1 -39.5h20q8 0 16.5 3t8.5 11l4 203v90q0 29 1 61.5t1 73.5q2 57 2 140v169v281q2 31 -2 51.5t-33 20.5l-111 8h-18t-12 -2v-2q-29 -6 -50.5 -20.5t-37 -44.5t-22.5 -77t-7 -118v-11zM70 799q0 131 16.5 194.5t79.5 63.5h26.5t28.5 -2l56 -6 v-408v-62.5t-2 -60.5l-2 -31v-18q-16 -12 -41 -17.5t-35 -5.5q-43 0 -67.5 25t-37 63.5t-16.5 87t-4 95.5z" />
<glyph unicode="&#x451;" horiz-adv-x="354" d="M31 651q0 127 8 213t25.5 138.5t43 75t62.5 22.5q43 0 69.5 -22.5t42 -78t22.5 -151.5t11 -244q-6 -20 -36 -20h-38t-108 6h-29.5t-23.5 -4v-31q0 -14 -1 -27.5t-1 -25.5q0 -121 4 -210t17.5 -148.5t41 -89t76.5 -29.5q18 0 26.5 7t13.5 23.5t10 45t16 69.5v8q6 31 28 35 v6q12 -12 13 -49q0 -61 -9.5 -97t-26 -56.5t-39 -27.5t-48.5 -12q-39 0 -80 26t-58 101l-2 13q-10 25 -16 88t-9 141t-4 161t-1 144zM49 1235q0 10 4 18q9 21 23 21q29 0 38 -11.5t9 -35.5q0 -8 -6 -19.5t-23 -11.5q-45 0 -45 39zM78 706.5q0 -28.5 2 -57.5v-18h46t60 -4 q16 0 43 2t33 2v20q0 135 -5 215t-16.5 122t-27.5 53.5t-37 11.5h-10q-16 -4 -30.5 -15.5t-29.5 -46.5v-2q-16 -51 -22 -105.5t-6 -115.5v-61.5zM233 1239v8q12 20 33 21h9.5t15.5 -4q10 -6 10 -19q0 -37 -39 -37q-10 0 -19.5 9.5t-9.5 21.5z" />
<glyph unicode="&#x452;" horiz-adv-x="372" d="M-18 1053v16q0 4 1 8t1 8q29 0 43 -1t24 -1v203q0 12 5 15.5t14 3.5q2 0 5 -1t5 -1q4 -2 14 -3v-75.5t-1 -34.5l-1 -10v-2v-97l72 9q20 0 33.5 -2.5t23.5 -6.5v11q10 -27 10 -52v-2l-6 -8q-18 4 -53 7t-76 5v-75v-67t-2 -52v-2q0 -23 -1 -42.5t-1 -43.5v-25q0 -8 1 -14 t1 -12v-7l6 17q16 43 46 62.5t65 21.5q29 -4 59.5 -14.5t42.5 -20.5q23 -43 29 -130t6 -192l-2 -184q-2 -127 -11 -214t-26.5 -140t-43 -77t-60.5 -24q-12 0 -24.5 1.5t-12.5 9.5v6q2 14 9 30.5t18 16.5h10v2l8 -12q25 0 40 20.5t23.5 53t12.5 74.5t6 83l6 76v182 q0 123 -1 203t-8 126t-23.5 63.5t-45.5 17.5q-37 0 -60.5 -32t-36.5 -73t-19.5 -80.5t-8.5 -54.5v-2q0 -39 1 -78t1 -78v-286q0 -35 -8 -62.5t-24 -27.5h-17q4 53 6 137t2 162v80.5t-1 53t-2 37t-1 29.5q-2 18 -3 39t-2 56.5t-1 90v140.5l-2 166q2 10 2 21.5v23.5v20h-45 q-16 0 -19 3.5t-3 7.5z" />
<glyph unicode="&#x453;" horiz-adv-x="417" d="M63 78q0 45 1.5 71.5t3.5 55.5t3 71.5t1 98.5v45v62.5t-2 60.5q-2 47 -4.5 105.5t-2.5 156.5v84t3 49v2q0 10 1 18.5t1 14.5v19t-2 20q0 4 -1.5 7t-1.5 9q0 47 9 57v13q0 2 3 -7.5t3 -7.5q20 4 44.5 6.5t45.5 0.5h39q23 0 39 -1.5t30 -3.5t25.5 -2h26.5h30q2 -6 2 -14 q0 -18 -13 -23.5t-28 -5.5h-35.5t-39.5 2q-23 2 -42.5 3.5t-35.5 1.5h-27.5t-27.5 -3v-20q2 -166 2 -250v-94v-37q0 -31 -1 -58.5t-1 -54.5v-98l2 -371v-32q0 -37 -19 -45l-8 6v2l-14 10v2q0 4 -1 7t-1 7v2q-4 29 -5.5 41.5t-1.5 16.5zM70 4l2 -2q0 -2 -1 -4t-1 -4v10z M150.5 1197q-3.5 9 1.5 15l9 18q9 17 22.5 39.5t27.5 43t27 28.5q16 12 32 13q6 0 13.5 -4.5t7.5 -8.5q0 -12 -12.5 -26.5t-28.5 -31.5t-34.5 -38.5t-33.5 -48.5q-4 -6 -10 -7t-10 -1q-8 0 -11.5 9z" />
<glyph unicode="&#x454;" horiz-adv-x="382" d="M35 715q0 166 26.5 264t116.5 115q45 0 83 -23.5t54 -99.5v-4q10 -25 17.5 -51.5t7.5 -53.5q0 -33 -14 -61l-4 10q-12 0 -18.5 16.5t-10.5 40.5v2q-6 29 -13.5 62t-18.5 60.5t-28.5 46t-44.5 18.5h-10q-37 -10 -58.5 -50t-29.5 -89q-8 -66 -9 -142t-1 -141v-60 q29 -2 36 -3t9 -1h10h14.5t16.5 2l65 7q25 0 41.5 -5.5t16.5 -39.5q0 2 2 4q4 4 1 -2.5t-5 -10.5q-20 6 -66.5 9.5t-101.5 3.5h-39v-21q0 -39 1 -86l2 -94t4 -92t9 -78v-2q20 -66 41 -96.5t49 -30.5q25 0 57.5 26.5t55.5 90.5v2q4 20 6 46.5t4 51.5q2 18 4 32.5t9 16.5 q14 -10 19 -26.5t5 -32.5q0 -113 -44 -179.5t-112 -66.5q-37 0 -64.5 27.5t-46 76t-28.5 114t-10 138.5q0 16 -1 40t-1 48q-2 37 -3 83t1 75q0 31 -1 58.5t-1 54.5z" />
<glyph unicode="&#x455;" horiz-adv-x="296" d="M20 893q0 29 6.5 73t26.5 74q16 27 44 42.5t57 15.5q35 0 61.5 -18.5t38.5 -65.5q10 -29 17.5 -62.5t7.5 -68.5q0 -16 -4.5 -39t-18.5 -23q-8 0 -9 1l-3 3v2l-4 4v-6q-6 14 -7 33v21q0 6 1.5 11t1.5 15q0 43 -11.5 79t-29.5 52q-12 20 -29 21q-12 0 -20.5 -2t-16.5 -6 q-12 -2 -22.5 -17.5t-19.5 -37t-14 -46t-5 -49.5q0 -49 8 -82t18 -63q10 -29 23.5 -65t23.5 -58h2v-10q12 -29 24.5 -51.5t25.5 -45.5q33 -59 62.5 -124.5t29.5 -161.5q0 -47 -4.5 -91.5t-14.5 -80t-28.5 -61t-44.5 -34.5v-2q-4 -2 -21 -2q-61 0 -104 75t-43 185 q0 23 4 51.5t20 28.5q12 0 14 -2q8 -16 9 -33v-45q0 -35 2 -54t4 -32q0 -4 1 -6t1 -6v-4q10 -47 34.5 -82t49.5 -35q29 0 52.5 55.5t27.5 129.5v2q0 106 -31 181t-68 142q-23 37 -42 76t-29 74l-17 51q-16 47 -26.5 83t-10.5 91z" />
<glyph unicode="&#x456;" horiz-adv-x="192" d="M66 1434q0 23 1 43t3 49v2q0 10 2 20l10 2q16 0 27 -18q2 -8 6 -41v-78t-4 -117v11h-5q-10 0 -23 17t-15 77v14q0 4 -1 8t-1 11zM72 1051q0 37 14 47q-4 0 8 4q8 0 16.5 -4t8.5 -19v-792q0 -39 1 -70t1 -59v-117q0 -35 -10 -45q-10 -6 -17 -6q-4 0 -10 4t-8 18v793v127 t-4 119z" />
<glyph unicode="&#x457;" horiz-adv-x="192" d="M-33 1214q0 10 4 19q9 20 23 20q29 0 38 -11t9 -36q0 -8 -6 -19t-23 -11q-45 0 -45 38zM72 1051q0 37 14 47q-4 0 8 4q8 0 16.5 -4t8.5 -19v-792q0 -39 1 -70t1 -59v-117q0 -35 -10 -45q-10 -6 -17 -6q-4 0 -10 4t-8 18v793v127t-4 119zM152 1219v8q12 20 32 20h9.5 t15.5 -4q10 -6 10 -18q0 -37 -39 -37q-10 0 -19 9t-9 22z" />
<glyph unicode="&#x458;" horiz-adv-x="221" d="M-66 -621q0 4 7.5 5.5t15.5 1.5q12 0 19.5 -4.5t15.5 -10.5q14 -8 23.5 -13t11.5 -5q23 0 40 26.5t29.5 71.5t18.5 101.5t6 117.5v105q2 51 2 101v104v166.5t-2 166.5t-3 167t-1 169v412q10 0 20 -5t13 -12q6 -137 11 -280t5 -285q0 -20 -1 -38.5t-1 -37.5v-178 q0 -66 1 -131t1 -131q2 -59 2 -138v-144q0 -72 -7 -141.5t-24.5 -125t-46.5 -89.5t-70 -34q-18 0 -33.5 9.5t-26.5 23.5t-18.5 28.5t-7.5 26.5zM90 1436v38.5t3 43t9.5 35t16.5 14.5q16 0 21 -16.5t5 -37.5v-36q0 -16 -1 -40t-1 -59q0 -53 -6 -85.5t-24 -32.5 q-16 29 -19.5 74.5t-3.5 101.5z" />
<glyph unicode="&#x459;" horiz-adv-x="665" d="M-8 2q2 12 7 28.5t15 16.5q8 0 10.5 -1t4.5 -1q8 -6 16 -6q29 0 38 40t17 95q2 14 3 27.5t6 27.5q4 20 4 47v56q0 25 1 50.5t3 53.5v332l4 90v51v40.5t-2 31.5q0 10 -1 20.5t-1 20.5q0 23 4 37t14 14q8 0 8 2v-6h9q10 -2 18 -3t16 -1q6 -2 17 -2h8t14 4q2 0 6.5 1t18.5 1 l86 -2q2 2 9 3t13 1l17 -2v-205v-42t-2 -42v-207q51 12 76 13q31 0 62.5 -10.5t58 -37t44 -73.5t17.5 -119v-41q0 -59 1 -74.5t1 -21.5v-21q0 -53 -11.5 -87.5t-29 -55t-40.5 -30t-48 -11.5q-12 -4 -25.5 -3t-25.5 1h-19h-14t-12 2q-4 0 -10.5 1t-10.5 1h-16h-24.5t-18.5 2 v31v18.5t2 18.5v2q0 6 1 10t1 10q0 35 -1 72t-1 72v112q0 20 1 39t1 37q0 27 1 48.5t-1 43.5q0 29 -1 55.5t-1 49.5v104q0 10 1 21.5t1 23.5v252h-19q-31 0 -51 -4q-16 -4 -37 0h-63v-25q2 -14 2 -27.5v-27.5v-58.5t-2 -49.5v-2q0 -14 -1 -24.5t-1 -21.5v-313q0 -16 1 -29.5 t1 -25.5l-4 -21q-10 -197 -29.5 -305t-79.5 -108h-24q-33 0 -33 10v6zM369 178l2 -104v-25l61 -6h43q72 0 94.5 46t22.5 147q0 31 -2 40q0 8 -1 14.5t-1 16.5v12q0 47 -5 88.5t-20.5 71t-43 47t-77.5 17.5q-27 0 -65 -19v-20q0 -6 -1 -11.5t-1 -11.5q-6 -68 -6 -141l2 -16 q0 -41 -1 -64.5t-1 -40.5v-41z" />
<glyph unicode="&#x45a;" horiz-adv-x="624" d="M53 365q0 66 1 122t5 115v2q0 94 1 135t1 53.5t2.5 12.5t2.5 13t1 53t1 137q0 10 -1 17t-1 15v27q0 23 4 37t14 14q4 0 11 -2t9 -6l7 -53q2 -16 2 -32.5v-35.5v-64.5t-1 -33.5t-2 -13l-1 -4v-36v-7q0 -4 1 -7t1 -7q0 -8 2 -20q0 -43 -3.5 -71t-3.5 -73v-4q6 -29 30 -36 t30 -7v2h4q4 -2 8 -2q12 0 24.5 3t24.5 3h35h19.5t19.5 2v80v33.5t2 40.5v324q0 4 8 7t17 3l16 -2v-219v-51t-4 -54v-4q0 -47 1 -92t1 -92v-23q49 14 76 15q31 0 62.5 -10.5t57 -37t43 -73.5t17.5 -119l2 -43q0 -57 1 -72.5t1 -21.5v-21q0 -53 -11 -88t-29.5 -55.5 t-41 -29.5t-47.5 -11q-8 -2 -17.5 -2h-19.5q-23 0 -43 2t-37 2h-18h-22.5t-14.5 4v31q0 12 1 25.5t1 27.5q0 31 -1 65.5t-1 69.5t-1 67t-1 56q0 23 1 41.5t1 36.5v151q-8 -2 -15 -2h-14q-41 0 -81.5 3.5t-84.5 3.5v-15q-4 -12 -7 -29.5t-3 -46.5v-10q0 -35 1 -80t1 -91v-88 v-68v-168q-8 -14 -24 -15q-16 0 -17 2v254q0 18 -2 61.5t-2 78.5zM338 43l106 -6q66 4 91.5 49t25.5 143q0 27 -2 38.5t-2 33.5v12q-2 47 -6 88t-19.5 71t-43 47.5t-76.5 17.5q-27 0 -66 -19v-20q0 -41 -4 -81t-4 -83v-291z" />
<glyph unicode="&#x45b;" horiz-adv-x="372" d="M-18 1069v14q0 4 1 8.5t1 8.5q45 0 55 -2v22q0 23 1 39.5t1 30.5v129q37 0 41 -6q2 -18 3 -43t1 -70v-104h9t16 2l53 6q20 0 33.5 -2t23.5 -6v10q10 -27 10 -51v-2l-6 -9q-20 4 -58 7.5t-83 5.5v-21q0 -47 1 -94t5 -106v-95q2 6 4 10.5t4 10.5q16 43 51 63.5t70 22.5 q31 -6 50.5 -13.5t29.5 -21.5q12 -23 19.5 -70t10.5 -105t4 -119.5t1 -115.5v-16v-143.5v-97.5t1 -65.5t1 -47.5v-45q0 -2 -11.5 -2h-15.5q-10 0 -15 20.5t-8 49t-3 57v45.5q0 23 1 37t1 28q2 18 2 42v75v87t-1 53.5t-1 29.5v16v31q0 72 -4.5 117t-14.5 78v2q-16 51 -37 51 q-23 0 -49 -25.5t-41 -60.5q-18 -51 -26.5 -82t-14.5 -74q-4 -16 -4 -37.5v-38.5q0 -41 -1 -60t-1 -36v-78v-57t2 -33q0 -10 1 -19t1 -32v-2q4 -31 4 -60.5v-76.5q-2 -25 -26 -35q-10 8 -13.5 25.5l-7.5 37.5v175v32.5v22.5t-1 23.5t-3 35.5v31q-2 31 -2 58.5v56.5 q0 98 -1 170.5t-2 127t-2 93.5t-1 71q0 20 -1 40t-1 38v21h-35q-4 0 -9 -5t-7 -10v7q-6 12 -6 20z" />
<glyph unicode="&#x45c;" d="M59 102q0 135 1 238.5t1 183.5v162v89t-1 60.5t-1 40v27.5v72q0 49 3.5 80.5t21.5 31.5q10 0 16 -19t6 -46v-24.5t-2 -24.5v-2q0 -12 -1 -25.5t-1 -23.5q0 -78 -1 -124t-1 -75v-39v-58.5t4 -84.5v-9q31 53 61 130t58 151v2l7 17.5t8 19.5l28 84q16 55 37 103t41 48 q27 0 27 -22q0 -10 -11.5 -33.5t-21.5 -46.5l-21 -49l-47 -123l-55 -143l-18 -43v-19l18 -55q10 -31 25.5 -76t34 -98t37 -111.5t36.5 -115.5q4 -18 10.5 -33t12.5 -27q4 -10 10 -29.5t12 -33.5q-4 -31 -28 -31q-10 0 -19.5 14.5t-19 36t-16.5 49t-15 56.5l-19 71 q-16 43 -31.5 90t-30.5 91.5t-28.5 82t-23.5 62.5q-4 0 -13.5 -24.5t-19.5 -47.5l-18 -43v-8q-2 -41 -2 -100.5v-116.5v-74t2 -63v-19q0 -16 -4.5 -42.5t-16.5 -26.5q-20 0 -25.5 40t-5.5 76zM134.5 1197q-3.5 9 1.5 15l9 18q9 17 22.5 39.5t27.5 43t27 28.5q16 12 32 13 q6 0 13.5 -4.5t7.5 -8.5q0 -12 -12.5 -26.5t-28.5 -31.5t-34.5 -38.5t-33.5 -48.5q-4 -6 -10 -7t-10 -1q-8 0 -11.5 9zM393 29v2v6q6 -23 5 -22t-5 14z" />
<glyph unicode="&#x45e;" horiz-adv-x="372" d="M-45 -387q0 2 1 1t1 1q4 14 12 28.5t23 8.5l8 -4q4 -2 6 -2q2 -4 5 -7.5t3 -5.5q23 -8 39.5 -0.5t30.5 25.5t25.5 43t21.5 49v2q4 10 8 19.5t8 19.5q10 20 13.5 53t7.5 82q2 27 5 58.5t5 60.5v6q-4 14 -5 28.5t-3 24.5q0 4 -1 4.5t-1 2.5l-2 18v2q-4 39 -10 78t-13 76 l-10 63q-10 80 -22.5 153.5t-24.5 147.5l-27 168l-14 80q-8 45 -14 88t-11 92v19q0 10 15 18q27 0 28 -10l13 -72l8 -49v-2l8 -55l33 -221q8 -59 18.5 -120t20.5 -120q10 -61 19.5 -121.5t17.5 -124.5q6 47 13 97.5t15 101.5v2q10 76 20.5 149.5t18.5 147.5l13 131l14 139 q4 47 8 73.5t14 59.5q0 -10 13 -10q29 0 28 -6q0 -2 -1 -2t-1 -2l-80 -670v-12q-4 -39 -10 -90.5t-14 -108.5l-25 -205q-12 -96 -23 -169.5t-30 -125.5q-31 -88 -77 -125.5t-95 -15.5v2q-2 0 -7 2t-7 2q-12 4 -22.5 12.5t-10.5 14.5v2zM55 1296q0 16 17 17q8 0 13 -8.5 t9 -20.5t12.5 -24.5t24.5 -20.5t25.5 -10t25.5 -2q2 0 15.5 -1t31 4t31.5 19.5t20 44.5q2 25 21 25q12 0 12 -19q0 -47 -33.5 -83.5t-105.5 -36.5q-23 0 -44.5 11t-37.5 28.5t-26.5 38t-10.5 38.5z" />
<glyph unicode="&#x45f;" horiz-adv-x="454" d="M53 1094q0 2 17 2q18 0 24 -13v-92t1 -94t4 -129t7 -195v-51v-46.5t-2 -55.5v-2q-2 -33 -3 -64.5t-1 -56.5l6 -197q0 -8 -1 -16t-1 -14v-50h107q23 2 62.5 3.5t74.5 1.5h23v358q0 98 -1 187t-5 192l-3 145q-2 35 -4 50.5t-2 23.5v2q-2 10 -2 17.5v35.5q0 16 7.5 33.5 t19.5 17.5q8 0 14 -17t9.5 -40.5t4.5 -48.5t1 -41v-31q0 -10 -1 -21t-1 -26q0 -16 1 -34.5t1 -36.5v-86q0 -10 -1 -22.5t-1 -23.5q0 -16 1 -34.5t1 -38.5v-2q2 -31 2 -68v-84v-113q0 -35 2 -64.5t2 -53.5v-76q2 -29 2 -54.5v-31.5q0 -23 -1 -40t-5 -40v-2l-2 6v23h-148v-19 q-2 -10 -2 -21.5v-21.5v-47t2 -47q2 -25 3 -46.5t1 -47.5q-4 -16 -8 -23.5t-18 -7.5q-16 0 -19.5 34t-3.5 68v35v67t4 54v25q-12 2 -24.5 3t-20.5 1q-16 0 -41 -8q-8 -4 -15 -5.5t-28 -1.5l-10 -2v-4h-8q-14 0 -15 52q0 10 1 20t1 20q2 16 2 34v40v23q0 6 -1 12t-1 14 l-4 123v133v51.5t2 41.5v51q0 55 -1 98t-3 82zM82 -29v-4v4z" />
<glyph unicode="&#x462;" horiz-adv-x="518" d="M-2 1456q2 12 37 12h11t13 -2q10 -2 23.5 -4t30.5 -2h37q47 0 90 1t94 5q16 0 37.5 -2t23.5 -12l2 -22v-9l-96 4q-43 0 -88 7v-21q-2 -102 -2 -202.5v-200.5v-105q25 6 43 10.5t31 4.5q35 0 70.5 -17.5t65.5 -57.5t48 -108.5t18 -169.5v-59q0 -84 1 -125t1 -64v-30 q0 -104 -19 -162.5t-48 -87.5t-60.5 -35t-58.5 -6q-12 0 -24.5 2t-22.5 4t-19.5 3t-17.5 1h-10v-14q-4 -6 -21 -6h-14q4 53 5 136t1 161q0 98 -1 189t-3 185q-2 98 -4 194.5t-2 205.5q0 41 1 81t1 76v144q0 29 -2 51.5t-18 22.5h-6.5t-12.5 -5q-4 -2 -22 -2h-33v2 q-4 0 -5 1.5t-5 1.5v-5q-4 -4 -12.5 -4h-16.5h-19q-20 0 -22 35zM213 823q0 -74 2 -148.5t6 -148.5v-479q10 0 20.5 -2t20.5 -2q4 0 6 -1t6 -1q10 -2 19.5 -2h19.5q76 0 103.5 66.5t27.5 220.5q0 16 -1 33.5t-1 35.5v2q-2 25 -2 49.5v55.5v59q0 37 -2 72t-10 72 q-8 45 -26.5 75.5t-40 49t-43 26.5t-39.5 8q-25 0 -66 -22v-19z" />
<glyph unicode="&#x463;" horiz-adv-x="403" d="M-18 940v16q0 4 1 8.5t1 8.5h71v-4h11v331q2 6 9 9.5t15 3.5l16 -2v-340l56 6q23 0 36 -2t21 -6v10q12 -25 12 -51v-2l-6 -8q-16 4 -49 7t-72 5v-365q49 14 78 15q29 0 60.5 -10.5t58.5 -37t44 -73.5t17 -119v-43q0 -57 1.5 -72.5t1.5 -21.5v-21q0 -66 -15.5 -102.5 t-40 -55t-53.5 -23.5t-55 -5h-24.5t-24.5 2q-6 0 -16.5 1t-14.5 1h-19h-24t-12 4v84q0 33 -1.5 71t-1.5 74v113q0 23 1.5 41.5t1.5 36.5v61q0 39 -1.5 70t-1.5 57v318h-61q-14 0 -17 3t-3 7zM100 172l2 -104v-25l105 -6q66 4 91.5 49t25.5 143q0 31 -2 41q0 8 -1.5 14.5 t-1.5 16.5v12q0 47 -5 88t-19 71t-43 47.5t-76 17.5q-29 0 -67 -19v-20q0 -6 -1.5 -11.5t-1.5 -11.5q-6 -68 -6 -141l2 -17q0 -41 -1 -64.5t-1 -39.5v-41z" />
<glyph unicode="&#x472;" horiz-adv-x="405" d="M49 442v82q0 23 1 46.5t1 47.5v58q0 14 -1 28.5t-1 30.5v271v82.5t1 60.5t2 51.5t3 59.5q10 113 50 165t98 52h16q49 0 78 -31l27 -45q8 -37 12 -73t6 -85t2 -119.5v-177.5v-37l8 -280v-144q0 -80 -3 -168t-14 -162.5t-33.5 -122.5t-61.5 -48h-19q-59 0 -94 32.5 t-52.5 93t-21.5 144.5t-4 188zM94 377q4 -25 5 -52.5t3 -56.5q2 -41 4.5 -76.5t6.5 -52.5q16 -47 45.5 -84t56.5 -37q35 0 53.5 65t30.5 171q2 20 4 63t3 92.5t1 93.5v66q0 16 -1 35t-1 39v2q-2 18 -2 35.5v38.5v20q-25 4 -59.5 5t-75.5 1h-74v-368zM94 813h12q31 0 59 -1 t28 -3q4 0 15 1t21 3q0 -2 17.5 0t32.5 4h22v19q0 49 -1 98t-1 91v75v49v49q0 8 2 16v7q-6 123 -27.5 171t-56.5 48q-6 0 -20.5 -4t-30.5 -14.5t-31.5 -31t-23.5 -51.5q-6 -23 -9.5 -55.5t-5.5 -71t-2 -77.5v-70v-252z" />
<glyph unicode="&#x473;" horiz-adv-x="407" d="M49 555q2 70 2 117v82v78.5t4 78.5v2q2 45 16.5 78t36 54.5t47 33t50.5 11.5h14q53 0 80 -33l25 -39q14 -27 19 -55.5t5 -73.5v-162l8 -285v-72.5t-3 -94t-9 -101.5t-19.5 -93t-34 -68.5t-48.5 -28.5h-21q-59 0 -82 20q-31 27 -47 54.5t-24.5 73.5t-11.5 120t-5 192z M94 319q0 -66 5 -108.5t14 -69.5q18 -49 47.5 -86t54.5 -37q47 0 70.5 96.5t23.5 268.5v47.5t-2 48.5v19q-4 0 -8 1t-8 1q-31 4 -63.5 6t-59.5 2h-74v-189zM94 555h12q49 0 80 25v-29h14.5t16.5 2l64 6h22v21q-2 66 -2 125v94v51q0 8 2 16v4q-4 53 -12 88t-20.5 55.5t-26 29 t-27.5 8.5q-29 0 -59.5 -25t-46.5 -78q-10 -51 -13.5 -122.5t-3.5 -131.5v-139z" />
<glyph unicode="&#x474;" horiz-adv-x="448" d="M-12 1470h18q14 0 23 -16q4 -37 10 -77t16 -85q10 -49 21.5 -106.5t17.5 -128.5q4 -29 8 -62.5t11 -70.5q10 -66 22 -144t23 -174l6 -51q6 -47 11 -96t15 -92q6 -31 9.5 -57.5t7.5 -55.5t8 -59.5t12 -57.5q8 49 18.5 117t20.5 138.5t20.5 137t18.5 117.5 q10 66 19.5 134.5t19.5 133.5v3l82 552h16q25 0 25 -4q-4 -41 -8 -73.5t-8 -67.5v-2q0 -6 -2.5 -12t-2.5 -13l-36 -231l-33 -227q-18 -113 -33.5 -223.5t-32.5 -221.5q-12 -82 -24.5 -166t-24.5 -168q-6 -47 -22 -73q-25 0 -27 6l-4 -4v2l-12 88v2l-54 317q-12 72 -22 150 t-19 149q-10 66 -21 131.5t-22 131.5v2q-12 84 -24 165.5t-27 159.5q-10 61 -13 96t-5 64q0 8 -1 11t-1 11z" />
<glyph unicode="&#x475;" horiz-adv-x="309" d="M0 1038v19q0 14 14 18q25 0 27 -8l14 -74l8 -49v-2l9 -55l30 -221q10 -57 17.5 -118t17.5 -120q10 -63 19.5 -123.5t17.5 -124.5l19 150q10 88 21 176t17 174l13 129l14 139q4 47 9.5 73.5t15.5 59.5q0 -8 10 -8q29 0 29 -6q0 -2 -1.5 -2t-1.5 -2l-83 -703l-9 -90 q-4 -43 -9 -85t-9 -85v-2q0 -6 -1 -11t-1 -15q-4 -29 -8 -60.5t-27 -29.5q-16 8 -22.5 38.5t-10.5 53.5l-2 18v2q-8 109 -24 217q-10 80 -22.5 153t-24.5 146l-29 168l-12 80q-8 45 -14.5 88t-10.5 92z" />
<glyph unicode="&#x490;" horiz-adv-x="401" d="M57 14v56q0 16 1 36.5t1 38.5v146q0 47 -1 96t-1 100v156t2 135v39t1 46.5t1 45v35.5v92v70t2 80q0 29 1.5 63.5t1.5 71.5t1 71.5t1 63.5q0 10 12 27v8q0 2 1 -7t1 -7q10 4 23.5 4h23.5h51q8 0 17.5 1t19.5 1q18 0 29.5 -1t21.5 -3t35 -2h47v20q0 14 -1 29.5t-1 32.5v2 q-2 23 -2 44v48v18q0 23 1 35t-1 35l23 12q0 -8 4 -10t8 -2q10 0 10 10l2 -94q0 -82 1 -123t1 -64v-20h-8v-8q-2 -8 -35 -8h-15t-22 2q-37 6 -77 6h-41h-41.5t-40.5 -2v-66q0 -96 -6 -184v-266l4 -105l-4 -43q-6 -102 -7 -213v-491l-2 -66q-12 0 -26.5 1t-16.5 7z" />
<glyph unicode="&#x491;" horiz-adv-x="417" d="M59 6v55q0 18 1 38t1 40v117q0 35 -1 66.5t-1 60.5v135v94t1 81t3 98q0 57 2.5 136t2.5 136q0 4 4 11t8 9q31 8 63 9q27 0 56.5 -1t58.5 -4q25 -2 49.5 -3t44.5 -1v21q0 14 -1 29.5t-1 31.5v4q-2 20 -2 43v50v18q0 23 1 35t-1 35q18 2 24.5 1t10.5 -1q10 0 10 10l2 -94 q0 -84 1 -125t1 -64l-8 -22v-8q-4 -6 -35 -7h-31.5t-46.5 2q-29 2 -57.5 3.5t-48.5 1.5h-26.5t-28.5 -3v-65q0 -96 -6 -184v-271l-5 -350v-111l-2 -65q-12 0 -26.5 1t-16.5 7z" />
<glyph unicode="&#x4d9;" horiz-adv-x="354" d="M51 907q0 61 9.5 97t25.5 55.5t38.5 28t49.5 12.5q18 0 40 -6.5t41 -20.5t34.5 -38.5t23.5 -61.5l2 -4v-8q10 -25 16.5 -88.5t9.5 -142.5t4 -161t1 -143q0 -129 -8 -215t-25.5 -138.5t-43 -74t-62.5 -21.5q-43 0 -69.5 21.5t-42 78t-22.5 153t-14 245.5q2 10 12.5 15.5 t26.5 5.5q8 0 17.5 -2t19.5 -5q2 -2 4 -2t-2 0l8 -2h13q53 0 81.5 3.5t53.5 13.5v20q2 70 2 117v109q0 154 -31 228.5t-106 74.5q-16 0 -30.5 -14.5t-25.5 -53.5v-2q-6 -25 -6 -51q0 -14 -2 -23v-8q-6 -31 -31 -35v-6q-12 12 -12 49zM113 426q0 -125 3 -204t12 -123 t25.5 -60t47.5 -16h8q16 4 31.5 16t27.5 47v2q18 51 24.5 105.5t6.5 115.5v60.5t-2 58.5v18h-44t-48 5h-15h-30.5t-30.5 -2q-4 0 -8 -1.5t-8 -1.5v-20z" />
<glyph unicode="&#x2000;" horiz-adv-x="889" />
<glyph unicode="&#x2001;" horiz-adv-x="1778" />
<glyph unicode="&#x2002;" horiz-adv-x="889" />
<glyph unicode="&#x2003;" horiz-adv-x="1778" />
<glyph unicode="&#x2004;" horiz-adv-x="592" />
<glyph unicode="&#x2005;" horiz-adv-x="444" />
<glyph unicode="&#x2006;" horiz-adv-x="296" />
<glyph unicode="&#x2007;" horiz-adv-x="296" />
<glyph unicode="&#x2008;" horiz-adv-x="222" />
<glyph unicode="&#x2009;" horiz-adv-x="355" />
<glyph unicode="&#x200a;" horiz-adv-x="98" />
<glyph unicode="&#x2010;" horiz-adv-x="378" d="M39 598h68.5t42.5 -2q4 0 12 -1t14 -1h14.5t16.5 2l63 6q23 0 36 -2t22 -6v12l6 -18q0 -8 6 -2q0 -25 -8 -35q-18 6 -66.5 9t-107.5 3h-27q-4 0 -11 -1t-11 -1q-23 -4 -44.5 1t-25.5 36z" />
<glyph unicode="&#x2011;" horiz-adv-x="378" d="M39 598h68.5t42.5 -2q4 0 12 -1t14 -1h14.5t16.5 2l63 6q23 0 36 -2t22 -6v12l6 -18q0 -8 6 -2q0 -25 -8 -35q-18 6 -66.5 9t-107.5 3h-27q-4 0 -11 -1t-11 -1q-23 -4 -44.5 1t-25.5 36z" />
<glyph unicode="&#x2012;" horiz-adv-x="378" d="M39 598h68.5t42.5 -2q4 0 12 -1t14 -1h14.5t16.5 2l63 6q23 0 36 -2t22 -6v12l6 -18q0 -8 6 -2q0 -25 -8 -35q-18 6 -66.5 9t-107.5 3h-27q-4 0 -11 -1t-11 -1q-23 -4 -44.5 1t-25.5 36z" />
<glyph unicode="&#x2013;" horiz-adv-x="512" d="M-10 598h74.5t70.5 -2q25 0 64 -1t61 -1h70q18 0 37.5 1t38.5 1q29 0 53 -1t53 -3h6v12q4 -10 6 -21.5t2 -23.5h-2l-2 -6q-41 4 -120.5 8t-157.5 4q-47 0 -75 -1t-46 -1h-35q-6 0 -12 -1t-13 -1q-27 -4 -48 1t-25 36z" />
<glyph unicode="&#x2014;" horiz-adv-x="901" d="M66 567q0 10 1 14.5t7 16.5h65q23 0 44.5 1t31.5 1h31q23 0 57.5 -1t97.5 -1h70q51 0 142.5 1t240.5 1q2 -2 2 -22q0 6 -2 6q-2 -2 -2 -6q-2 -4 -2 -8.5t-4 -10.5v16q-35 -6 -73 -8t-79 -2q-78 0 -151 6q-35 2 -64.5 2h-58.5q-33 0 -76 -1t-90 -1q-47 -4 -100.5 -4h-87.5 z" />
<glyph unicode="&#x2018;" horiz-adv-x="141" d="M16 1327q0 16 4.5 33.5t16.5 40.5q10 16 31.5 39.5t44.5 23.5q10 0 10 -6q-2 0 -2 -2t-2 -4v-4h-4h-2q-29 -33 -39.5 -51.5t-10.5 -59.5q0 -10 2.5 -14t6.5 -8t7 -8t3 -9q0 -20 -37 -26v-2q-2 2 -8 2q-12 0 -16.5 18.5t-4.5 36.5z" />
<glyph unicode="&#x2019;" horiz-adv-x="126" d="M4 1286q0 -6 8 -6q23 0 44.5 23.5t31.5 39.5q23 39 23 74q0 18 -5.5 37t-17.5 19h-8q-37 -6 -37 -27q0 -6 10 -16q10 -6 10 -23q0 -41 -11 -59.5t-40 -51.5h-2h-2v-4q-2 -2 -2 -4t-2 -2zM80 1473q-2 2 0 2v-2z" />
<glyph unicode="&#x201a;" horiz-adv-x="149" d="M10 -123q0 -6 8 -6q23 0 44.5 24.5t31.5 41.5q23 37 23 71q0 18 -5.5 36.5t-17.5 18.5h-8q-37 -6 -37 -26q0 -4 12 -17q4 -4 6.5 -7t2.5 -13q0 -41 -11.5 -60.5t-40.5 -52.5h-2h-2v-2zM86 63q-2 3 0 3v-3z" />
<glyph unicode="&#x201c;" horiz-adv-x="272" d="M23 1348q0 16 4 33.5t18 39.5q10 16 31.5 40t44.5 24q8 0 8 -6q-2 0 -2 -2t-2 -4v-5h-2h-2q-29 -33 -40 -51t-11 -59q0 -10 2 -14.5t6 -8.5t7 -8t3 -8q0 -20 -35 -27v-2q-2 2 -8 2q-14 0 -18 18.5t-4 37.5zM152 1348q0 16 4 33.5t16 39.5q10 16 31.5 40t44.5 24q8 0 8 -6 q-2 0 -2 -2t-2 -4v-5h-2h-2q-29 -33 -40 -51t-11 -59q0 -16 10 -23q4 -4 7 -8t3 -8q0 -20 -37 -27v-2q-2 2 -8 2q-12 0 -16 18.5t-4 37.5z" />
<glyph unicode="&#x201d;" horiz-adv-x="278" d="M23 1298q0 -6 8 -6q23 0 45 23.5t33 40.5q12 23 16 40t4 34q0 18 -4 36.5t-16 18.5h-9q-37 -6 -37 -27q0 -6 11 -16q4 -4 6 -8t2 -15q0 -41 -11.5 -59.5t-39.5 -50.5h-2h-2v-4q-2 -2 -2 -5q0 -2 -2 -2zM100 1485q-2 2 0 2v-2zM152 1298q0 -6 8 -6q23 0 44 23.5t32 40.5 q12 23 16 40t4 34q0 18 -4 36.5t-16 18.5h-9q-37 -6 -37 -27q0 -6 11 -16q10 -6 10 -23q0 -41 -11.5 -59.5t-39.5 -50.5h-2h-2v-4q-2 -2 -2 -5q0 -2 -2 -2zM227 1485q-2 2 0 2v-2z" />
<glyph unicode="&#x201e;" horiz-adv-x="266" d="M9 -129q0 -6 8 -6q23 0 45 23.5t33 40.5q12 23 16 40t4 34q0 18 -4 36.5t-16 18.5h-9q-37 -6 -37 -27q0 -6 11 -16q4 -4 6 -8t2 -15q0 -41 -11.5 -59.5t-39.5 -50.5h-2h-2v-4q-2 -2 -2 -5q0 -2 -2 -2zM86 58q-2 2 0 2v-2zM138 -129q0 -6 8 -6q23 0 44 23.5t32 40.5 q12 23 16 40t4 34q0 18 -4 36.5t-16 18.5h-9q-37 -6 -37 -27q0 -6 11 -16q10 -6 10 -23q0 -41 -11.5 -59.5t-39.5 -50.5h-2h-2v-4q-2 -2 -2 -5q0 -2 -2 -2zM213 58q-2 2 0 2v-2z" />
<glyph unicode="&#x2022;" horiz-adv-x="512" d="M111 776q0 43 3 86t12 81t22.5 65.5t35.5 40.5v2q12 10 28.5 12t33.5 2q43 0 76.5 -33t57 -86t35 -118.5t11.5 -133.5q0 -90 -19.5 -164.5t-64.5 -117.5q-25 -25 -63 -25q-51 0 -91.5 50t-60.5 122q-6 35 -11 93.5t-5 123.5z" />
<glyph unicode="&#x2026;" horiz-adv-x="704" d="M137 88l29 35l2 -4q16 0 19 -2t8 -6v-2l20 -19q2 -8 2 -22.5v-30.5q-2 -16 -20 -31q-8 -4 -21 -4q-29 0 -34 26.5t-5 59.5zM326 88l26 35l2 -4q16 0 20.5 -2t8.5 -6v-2l18 -19q2 -8 2 -22.5v-30.5q-2 -14 -18 -31q-8 -4 -23 -4q-29 0 -32.5 26.5t-3.5 59.5zM498 88l26 35 l2 -4q16 0 20.5 -2t8.5 -6v-2l18 -19q2 -8 2 -22.5v-30.5q-2 -14 -18 -31q-8 -4 -20 -4q-29 0 -34 26.5t-5 59.5z" />
<glyph unicode="&#x202f;" horiz-adv-x="355" />
<glyph unicode="&#x2039;" horiz-adv-x="253" d="M37 580q0 4 13 29.5t26 45.5q23 33 45 86q10 16 22.5 38t34.5 52q2 -2 8 -2q10 0 11 -6q0 -18 -9 -35l-49 -94v-2q-10 -20 -23.5 -42.5t-39.5 -63.5v-21q14 -25 26.5 -47t22.5 -41q16 -27 30.5 -51.5t30.5 -58.5l11 -37v-8q0 -2 -21 -13q-18 23 -29.5 45.5t-23.5 44.5 q-10 25 -22.5 48.5t-24.5 41.5v5h-4q-14 25 -24.5 46t-10.5 40z" />
<glyph unicode="&#x203a;" horiz-adv-x="276" d="M66 313q2 4 2 17l6 37q10 20 24.5 44.5t32.5 59.5q10 16 22.5 37.5t30.5 56.5v21q-20 35 -32.5 55.5t-22.5 42.5l-57 107q-6 14 -6 32q0 6 10 6q6 0 6 2q29 -31 40 -52t21 -42q10 -23 20.5 -41t20.5 -39q12 -20 27.5 -46.5t15.5 -30.5q-2 -29 -39 -84v-4h-2 q-12 -16 -25.5 -43t-23.5 -52q-10 -20 -18 -38.5t-37 -49.5q-16 6 -16 4z" />
<glyph unicode="&#x205f;" horiz-adv-x="444" />
<glyph unicode="&#x20ac;" horiz-adv-x="409" d="M-8 625q2 16 3 19t9 20h25q6 0 14 1t18 1v22q0 31 -1 64.5t-1 66.5v21q-16 -2 -31.5 -2h-35.5q4 37 17.5 42t45.5 5v22q0 102 -1 208t11.5 192t43 144t94.5 69h14q20 0 38.5 -3.5t35.5 -13.5q18 -16 37.5 -48t35 -70.5t25.5 -79.5t10 -76q0 -14 -5 -34.5t-15 -20.5l-14 2 q-4 55 -13.5 91t-29.5 91l-9 33q-4 12 -12 26.5t-18.5 28.5t-24.5 23.5t-31 9.5q-55 0 -81.5 -49.5t-41.5 -114.5v-4q0 -23 -3 -46.5t-3 -45.5v-27q0 -43 2 -78t2 -76v-153h195q16 0 21.5 -8.5t5.5 -16.5q0 -14 -14.5 -18t-30.5 -4q-8 0 -14.5 1t-12.5 1h-16q-41 0 -61.5 2 t-35.5 2h-35v-178h105q23 0 32 2t17 2q10 0 18 -2q6 -2 12.5 -3t6.5 -3t-2 -16.5t-4 -16.5h-45q-8 0 -16.5 -1t-24.5 -1h-94v-133q0 -137 6 -228.5t19 -145.5t34.5 -77t52.5 -23q39 0 75 52.5t58 185.5v2q4 16 5 29.5t3 15.5q23 0 27 -21.5t4 -43.5q0 -119 -47 -191 t-123 -72q-66 0 -96.5 50.5t-42.5 136.5t-13 200.5t-8 243.5v19h-24q-10 0 -20.5 -1t-26.5 -1z" />
<glyph unicode="&#x2122;" horiz-adv-x="667" d="M25 1438q2 10 26 10h17.5t17.5 -2q16 -4 27 -4h22t21 2q14 2 28.5 3t32.5 1q27 0 29 -10l2 -17l-2 -6q-16 4 -26.5 4t-20.5 2h-22.5t-24.5 2v-43v-92q0 -10 2 -26.5t3 -57.5t2 -115.5t1 -199.5q0 -25 -6.5 -45.5t-18.5 -20.5h-10q0 33 1 69t1 83v48t-2 64q0 55 -2 121 t-2 133v31q0 20 -2 35.5t-13 15.5l-12 -2v-2q-12 -6 -35 -6q-2 0 -3 1t-3 1h-10q-14 0 -18 23zM285 1393q4 31 6 39v6q0 4 11 19.5t17 15.5q14 0 27 -62l10 -59q2 -23 6.5 -52.5t11.5 -74.5t17 -107.5t29 -148.5v-2l2 4v2l12 43q14 61 20.5 107t10.5 87q4 35 12 78t19 96 q2 14 5 30t7 28q8 37 14 37q16 0 25 -9v11q4 -41 4 -77v-77v-117q0 -27 -1 -60.5t-2 -65t-1 -60.5v-47v-25.5t2 -31.5q2 -18 3 -34t1 -30q0 -23 -12 -22q-8 0 -13.5 1t-7.5 16t-2 51v104v127q0 14 1 29.5t1 31.5v152q-8 -37 -12 -76q-16 -111 -34.5 -208t-45.5 -188 q-6 0 -20.5 34t-20.5 71v2q-4 39 -11 77t-14 75q-6 35 -13 71.5t-13 71.5t-11.5 65.5t-7.5 51.5q4 -98 4.5 -190.5t0.5 -158.5v-106q0 -47 -2.5 -78t-12.5 -31q-4 0 -9 9.5t-7 19.5v328q0 53 -1 104t-5 103z" />
<glyph unicode="&#x25fc;" horiz-adv-x="1085" d="M0 0v1085h1085v-1085h-1085z" />
</font>
</defs>
</svg>
